%TF.GenerationSoftware,KiCad,Pcbnew,(6.0.4)*%
%TF.CreationDate,2023-03-24T19:38:28+01:00*%
%TF.ProjectId,test,74657374-2e6b-4696-9361-645f70636258,rev?*%
%TF.SameCoordinates,Original*%
%TF.FileFunction,Legend,Bot*%
%TF.FilePolarity,Positive*%
%FSLAX46Y46*%
G04 Gerber Fmt 4.6, Leading zero omitted, Abs format (unit mm)*
G04 Created by KiCad (PCBNEW (6.0.4)) date 2023-03-24 19:38:28*
%MOMM*%
%LPD*%
G01*
G04 APERTURE LIST*
%ADD10C,0.150000*%
%ADD11C,0.254000*%
%ADD12C,0.120000*%
%ADD13C,0.100000*%
%ADD14C,2.000000*%
%ADD15C,1.650000*%
%ADD16C,0.750013*%
%ADD17O,2.000000X1.200000*%
%ADD18O,1.800000X1.200000*%
%ADD19C,3.100000*%
%ADD20C,5.400000*%
%ADD21R,1.700000X1.700000*%
%ADD22O,1.700000X1.700000*%
%ADD23C,2.800000*%
%ADD24C,1.550000*%
%ADD25C,1.980000*%
%ADD26C,5.325000*%
%ADD27C,3.585000*%
%ADD28C,1.950000*%
G04 APERTURE END LIST*
D10*
X53207142Y-47204761D02*
X52064285Y-47204761D01*
X52635714Y-49204761D02*
X52635714Y-47204761D01*
X51397619Y-49204761D02*
X51397619Y-47204761D01*
X51397619Y-48157142D02*
X50254761Y-48157142D01*
X50254761Y-49204761D02*
X50254761Y-47204761D01*
X47873809Y-47109523D02*
X49588095Y-49680952D01*
X47207142Y-49204761D02*
X47207142Y-47204761D01*
X46540476Y-48633333D01*
X45873809Y-47204761D01*
X45873809Y-49204761D01*
X44540476Y-47204761D02*
X44159523Y-47204761D01*
X43969047Y-47300000D01*
X43778571Y-47490476D01*
X43683333Y-47871428D01*
X43683333Y-48538095D01*
X43778571Y-48919047D01*
X43969047Y-49109523D01*
X44159523Y-49204761D01*
X44540476Y-49204761D01*
X44730952Y-49109523D01*
X44921428Y-48919047D01*
X45016666Y-48538095D01*
X45016666Y-47871428D01*
X44921428Y-47490476D01*
X44730952Y-47300000D01*
X44540476Y-47204761D01*
%TO.C,JP1*%
X7733333Y-15077380D02*
X7733333Y-15791666D01*
X7780952Y-15934523D01*
X7876190Y-16029761D01*
X8019047Y-16077380D01*
X8114285Y-16077380D01*
X7257142Y-16077380D02*
X7257142Y-15077380D01*
X6876190Y-15077380D01*
X6780952Y-15125000D01*
X6733333Y-15172619D01*
X6685714Y-15267857D01*
X6685714Y-15410714D01*
X6733333Y-15505952D01*
X6780952Y-15553571D01*
X6876190Y-15601190D01*
X7257142Y-15601190D01*
X5733333Y-16077380D02*
X6304761Y-16077380D01*
X6019047Y-16077380D02*
X6019047Y-15077380D01*
X6114285Y-15220238D01*
X6209523Y-15315476D01*
X6304761Y-15363095D01*
D11*
%TO.C,J3*%
X98004523Y-11576666D02*
X98911666Y-11576666D01*
X99093095Y-11516190D01*
X99214047Y-11395238D01*
X99274523Y-11213809D01*
X99274523Y-11092857D01*
X98004523Y-12060476D02*
X98004523Y-12846666D01*
X98488333Y-12423333D01*
X98488333Y-12604761D01*
X98548809Y-12725714D01*
X98609285Y-12786190D01*
X98730238Y-12846666D01*
X99032619Y-12846666D01*
X99153571Y-12786190D01*
X99214047Y-12725714D01*
X99274523Y-12604761D01*
X99274523Y-12241904D01*
X99214047Y-12120952D01*
X99153571Y-12060476D01*
%TO.C,J4*%
X98004523Y-37576666D02*
X98911666Y-37576666D01*
X99093095Y-37516190D01*
X99214047Y-37395238D01*
X99274523Y-37213809D01*
X99274523Y-37092857D01*
X98427857Y-38725714D02*
X99274523Y-38725714D01*
X97944047Y-38423333D02*
X98851190Y-38120952D01*
X98851190Y-38907142D01*
%TO.C,U5*%
X48467619Y-32304523D02*
X48467619Y-33332619D01*
X48407142Y-33453571D01*
X48346666Y-33514047D01*
X48225714Y-33574523D01*
X47983809Y-33574523D01*
X47862857Y-33514047D01*
X47802380Y-33453571D01*
X47741904Y-33332619D01*
X47741904Y-32304523D01*
X46532380Y-32304523D02*
X47137142Y-32304523D01*
X47197619Y-32909285D01*
X47137142Y-32848809D01*
X47016190Y-32788333D01*
X46713809Y-32788333D01*
X46592857Y-32848809D01*
X46532380Y-32909285D01*
X46471904Y-33030238D01*
X46471904Y-33332619D01*
X46532380Y-33453571D01*
X46592857Y-33514047D01*
X46713809Y-33574523D01*
X47016190Y-33574523D01*
X47137142Y-33514047D01*
X47197619Y-33453571D01*
%TO.C,U4*%
X27987619Y-17779523D02*
X27987619Y-18807619D01*
X27927142Y-18928571D01*
X27866666Y-18989047D01*
X27745714Y-19049523D01*
X27503809Y-19049523D01*
X27382857Y-18989047D01*
X27322380Y-18928571D01*
X27261904Y-18807619D01*
X27261904Y-17779523D01*
X26112857Y-18202857D02*
X26112857Y-19049523D01*
X26415238Y-17719047D02*
X26717619Y-18626190D01*
X25931428Y-18626190D01*
%TO.C,J1*%
X96498333Y-22604523D02*
X96498333Y-23511666D01*
X96558809Y-23693095D01*
X96679761Y-23814047D01*
X96861190Y-23874523D01*
X96982142Y-23874523D01*
X95228333Y-23874523D02*
X95954047Y-23874523D01*
X95591190Y-23874523D02*
X95591190Y-22604523D01*
X95712142Y-22785952D01*
X95833095Y-22906904D01*
X95954047Y-22967380D01*
D12*
%TO.C,JP1*%
X5655000Y-19080000D02*
X515000Y-19080000D01*
X5655000Y-16420000D02*
X515000Y-16420000D01*
X515000Y-19080000D02*
X515000Y-16420000D01*
X6925000Y-19080000D02*
X8255000Y-19080000D01*
X5655000Y-19080000D02*
X5655000Y-16420000D01*
X8255000Y-19080000D02*
X8255000Y-17750000D01*
D11*
%TO.C,J3*%
X113362500Y-7175000D02*
X113362500Y-16825000D01*
X113362500Y-7175000D02*
X97612500Y-7175000D01*
X91562500Y-7175000D02*
X91562500Y-16825000D01*
X113362500Y-16825000D02*
X97612500Y-16825000D01*
%TO.C,J4*%
X113362500Y-42825000D02*
X97612500Y-42825000D01*
X91562500Y-33175000D02*
X91562500Y-42825000D01*
X113362500Y-33175000D02*
X97612500Y-33175000D01*
X113362500Y-33175000D02*
X113362500Y-42825000D01*
D13*
%TO.C,U5*%
X8975000Y-22675000D02*
X8975000Y-43325000D01*
X86025000Y-22675000D02*
X86025000Y-22675000D01*
X86025000Y-43325000D02*
X86025000Y-22675000D01*
X8975000Y-22675000D02*
X8975000Y-22675000D01*
X8975000Y-43325000D02*
X8975000Y-43325000D01*
D12*
X20380000Y-33000000D02*
X18380000Y-33000000D01*
D13*
X8975000Y-43325000D02*
X8975000Y-22675000D01*
X86025000Y-43325000D02*
X86025000Y-43325000D01*
D12*
X19380000Y-32000000D02*
X19380000Y-34000000D01*
D13*
X86025000Y-22675000D02*
X86025000Y-43325000D01*
D12*
X76380000Y-33000000D02*
X74380000Y-33000000D01*
%TO.C,U4*%
X20400000Y-12000000D02*
X18400000Y-12000000D01*
D13*
X8995000Y-1675000D02*
X8995000Y-1675000D01*
X86045000Y-22325000D02*
X86045000Y-1675000D01*
X86045000Y-1675000D02*
X86045000Y-1675000D01*
X86045000Y-22325000D02*
X86045000Y-22325000D01*
X8995000Y-1675000D02*
X8995000Y-22325000D01*
D12*
X76400000Y-12000000D02*
X74400000Y-12000000D01*
D13*
X8995000Y-22325000D02*
X8995000Y-1675000D01*
X8995000Y-22325000D02*
X8995000Y-22325000D01*
D12*
X19400000Y-11000000D02*
X19400000Y-13000000D01*
D13*
X86045000Y-1675000D02*
X86045000Y-22325000D01*
%TO.C,J1*%
X94957000Y-25255000D02*
X97257000Y-25255000D01*
X94957000Y-24745000D02*
X97257000Y-24745000D01*
X99957000Y-25255000D02*
X106367000Y-25255000D01*
X106367000Y-24745000D02*
X99957000Y-24745000D01*
X106367000Y-25255000D02*
X106367000Y-24745000D01*
%TD*%
%LPC*%
D14*
%TO.C,TP15*%
X62225000Y-33425000D03*
%TD*%
%TO.C,TP1*%
X11400000Y-9000000D03*
%TD*%
D15*
%TO.C,SW3*%
X16990000Y-46125000D03*
X14450000Y-46125000D03*
X11910000Y-46125000D03*
%TD*%
D14*
%TO.C,TP2*%
X38330000Y-3880000D03*
%TD*%
D16*
%TO.C,U1*%
X5015621Y-22099060D03*
X5015621Y-27898908D03*
D17*
X5515748Y-20673863D03*
X5515748Y-29324105D03*
D18*
X1315850Y-29324105D03*
X1315850Y-20673863D03*
%TD*%
D14*
%TO.C,TP10*%
X74200000Y-30570000D03*
%TD*%
%TO.C,TP5*%
X80975000Y-13400000D03*
%TD*%
D19*
%TO.C,H4*%
X97000000Y-47000000D03*
D20*
X97000000Y-47000000D03*
%TD*%
D14*
%TO.C,TP7*%
X77575000Y-13400000D03*
%TD*%
%TO.C,TP13*%
X55175000Y-46200000D03*
%TD*%
D19*
%TO.C,H1*%
X3000000Y-3000000D03*
D20*
X3000000Y-3000000D03*
%TD*%
D14*
%TO.C,TP12*%
X58650000Y-46200000D03*
%TD*%
D20*
%TO.C,H2*%
X97000000Y-3000000D03*
D19*
X97000000Y-3000000D03*
%TD*%
D14*
%TO.C,TP6*%
X80970000Y-30560000D03*
%TD*%
%TO.C,TP8*%
X77610000Y-30570000D03*
%TD*%
%TO.C,TP11*%
X74200000Y-25200000D03*
%TD*%
%TO.C,TP17*%
X22650000Y-21450000D03*
%TD*%
%TO.C,TP16*%
X18525000Y-40525000D03*
%TD*%
%TO.C,TP9*%
X76680000Y-3890000D03*
%TD*%
%TO.C,TP3*%
X73300000Y-3850000D03*
%TD*%
D20*
%TO.C,H3*%
X3000000Y-47000000D03*
D19*
X3000000Y-47000000D03*
%TD*%
D14*
%TO.C,TP4*%
X95900000Y-30300000D03*
%TD*%
%TO.C,TP14*%
X69750000Y-36725000D03*
%TD*%
D21*
%TO.C,JP1*%
X6925000Y-17750000D03*
D22*
X4385000Y-17750000D03*
X1845000Y-17750000D03*
%TD*%
D23*
%TO.C,J3*%
X95762500Y-8200000D03*
X95762500Y-15800000D03*
D24*
X87962500Y-12000000D03*
%TD*%
D23*
%TO.C,J4*%
X95762500Y-34200000D03*
X95762500Y-41800000D03*
D24*
X87962500Y-38000000D03*
%TD*%
D25*
%TO.C,U5*%
X11380000Y-33000000D03*
X83600000Y-33000000D03*
D26*
X74780000Y-40870000D03*
D27*
X11380000Y-40870000D03*
D26*
X19580000Y-25130000D03*
%TD*%
D25*
%TO.C,U4*%
X11400000Y-12000000D03*
X83620000Y-12000000D03*
D26*
X74800000Y-19870000D03*
D27*
X11400000Y-19870000D03*
D26*
X19600000Y-4130000D03*
%TD*%
D28*
%TO.C,J1*%
X93607000Y-25000000D03*
X98607000Y-25000000D03*
%TD*%
M02*
