M48
; DRILL file {KiCad (6.0.4)} date Fri Mar 24 19:38:28 2023
; FORMAT={-:-/ absolute / inch / decimal}
; #@! TF.CreationDate,2023-03-24T19:38:28+01:00
; #@! TF.GenerationSoftware,Kicad,Pcbnew,(6.0.4)
; #@! TF.FileFunction,Plated,1,4,PTH
FMAT,2
INCH
; #@! TA.AperFunction,Plated,PTH,ViaDrill
T1C0.0118
; #@! TA.AperFunction,Plated,PTH,ViaDrill
T2C0.0157
; #@! TA.AperFunction,Plated,PTH,ComponentDrill
T3C0.0315
; #@! TA.AperFunction,Plated,PTH,ComponentDrill
T4C0.0394
; #@! TA.AperFunction,Plated,PTH,ComponentDrill
T5C0.0402
; #@! TA.AperFunction,Plated,PTH,ComponentDrill
T6C0.0433
; #@! TA.AperFunction,Plated,PTH,ComponentDrill
T7C0.0512
; #@! TA.AperFunction,Plated,PTH,ComponentDrill
T8C0.0520
; #@! TA.AperFunction,Plated,PTH,ComponentDrill
T9C0.0748
; #@! TA.AperFunction,Plated,PTH,ComponentDrill
T10C0.0941
; #@! TA.AperFunction,Plated,PTH,ComponentDrill
T11C0.1063
; #@! TA.AperFunction,Plated,PTH,ComponentDrill
T12C0.1398
%
G90
G05
T1
X0.5709Y-0.7441
X0.5778Y-0.9045
X0.6083Y-0.8061
X0.6102Y-0.8465
X0.6486Y-1.2854
X0.6486Y-1.4272
X1.0266Y-1.2726
X1.0266Y-1.3169
X1.0285Y-1.3563
X1.0719Y-1.122
X1.0728Y-1.0709
X1.0728Y-1.1693
X1.0749Y-1.2174
X1.0817Y-1.0285
X1.7047Y-1.1142
X1.7672Y-0.4276
X1.8351Y-0.3937
X1.9075Y-0.3937
X1.9085Y-0.3504
X1.9547Y-1.0335
X2.0177Y-1.127
X2.04Y-1.1492
X2.0624Y-1.1713
X2.0689Y-1.0069
X2.112Y-1.1553
X2.1137Y-1.187
X2.144Y-1.1957
X2.1466Y-1.227
X2.1752Y-1.2402
T2
X0.0522Y-0.9941
X0.1457Y-0.5236
X0.1732Y-1.2047
X0.187Y-0.9606
X0.2982Y-0.8189
X0.2992Y-1.0019
X0.4537Y-0.6083
X0.4547Y-0.9055
X0.4724Y-1.1417
X0.689Y-0.3248
X0.7362Y-0.689
X0.7933Y-1.5246
X0.8248Y-1.1614
X0.8346Y-0.5138
X0.8366Y-0.6969
X0.8572Y-1.1249
X0.872Y-1.5482
X0.8956Y-1.3996
X0.9006Y-0.2845
X0.9214Y-0.4949
X1.0Y-0.4685
X1.0827Y-0.7106
X1.0866Y-0.9026
X1.1378Y-0.3219
X1.1508Y-0.2315
X1.1821Y-0.4764
X1.2244Y-0.5492
X1.4724Y-0.8976
X1.5187Y-0.4537
X1.5522Y-0.4882
X1.5561Y-1.5669
X1.5571Y-0.8996
X1.5669Y-1.0689
X1.6644Y-0.3268
X1.7343Y-0.5787
X1.748Y-0.9508
X1.7697Y-0.9154
X1.8366Y-1.4636
X1.872Y-1.6585
X1.8986Y-1.4616
X1.9311Y-0.624
X1.9675Y-0.8858
X2.0512Y-0.3346
X2.0669Y-1.4478
X2.0679Y-1.502
X2.0689Y-0.6329
X2.0994Y-0.0876
X2.1358Y-0.3494
X2.1752Y-0.7539
X2.2087Y-0.5512
X2.2557Y-0.6223
X2.2815Y-0.8445
X2.2835Y-0.8917
X2.3031Y-1.4469
X2.3091Y-1.0728
X2.3543Y-0.0472
X2.3602Y-0.9488
X2.4291Y-0.7953
X2.4301Y-0.5994
X2.4331Y-0.5079
X2.464Y-1.4797
X2.5079Y-1.1575
X2.5226Y-0.7185
X2.5276Y-0.2264
X2.562Y-0.7175
X2.5787Y-0.5197
X2.6102Y-0.7323
X2.6319Y-1.625
X2.6411Y-1.5506
X2.6644Y-1.0738
X2.6905Y-0.6634
X2.7116Y-1.0699
X2.7638Y-1.0709
X2.8213Y-0.3804
X2.8386Y-1.2341
X2.9213Y-1.4528
X2.9252Y-0.4252
X3.0482Y-0.2293
X3.063Y-1.9016
X3.185Y-0.1142
X3.2717Y-1.2323
X3.2913Y-1.7323
X3.5394Y-1.0591
X3.5502Y-0.7096
X3.6063Y-0.7077
X3.6073Y-1.065
T4
X0.0726Y-0.6988
X0.1726Y-0.6988
X0.2726Y-0.6988
X0.4488Y-0.3543
X0.7293Y-1.5955
X0.8917Y-0.8445
X1.5091Y-0.1528
X2.1722Y-1.8189
X2.3091Y-1.8189
X2.4498Y-1.3159
X2.7461Y-1.4459
X2.8858Y-0.1516
X2.9213Y-0.9921
X2.9213Y-1.2035
X3.0189Y-0.1531
X3.0541Y-0.5276
X3.0555Y-1.2035
X3.1878Y-1.2031
X3.188Y-0.5276
X3.7756Y-1.1929
T5
X3.4631Y-0.4724
X3.4631Y-1.4961
T6
X0.4689Y-1.8159
X0.5689Y-1.8159
X0.6689Y-1.8159
T7
X3.6853Y-0.9843
X3.8822Y-0.9843
T8
X0.448Y-1.2992
X0.4488Y-0.4724
X3.2913Y-1.2992
X3.2921Y-0.4724
T9
X3.7702Y-0.3228
X3.7702Y-0.622
X3.7702Y-1.3465
X3.7702Y-1.6457
T10
X0.448Y-1.6091
X0.4488Y-0.7823
T11
X0.1181Y-0.1181
X0.1181Y-1.8504
X3.8189Y-0.1181
X3.8189Y-1.8504
T12
X0.7709Y-0.9894
X0.7717Y-0.1626
X2.9441Y-1.6091
X2.9449Y-0.7823
T3
G00X0.0636Y-0.8139
M15
G01X0.04Y-0.8139
M16
G05
G00X0.0636Y-1.1545
M15
G01X0.04Y-1.1545
M16
G05
G00X0.2329Y-0.8139
M15
G01X0.2014Y-0.8139
M16
G05
G00X0.2329Y-1.1545
M15
G01X0.2014Y-1.1545
M16
G05
T0
M30
