%TF.GenerationSoftware,KiCad,Pcbnew,(6.0.4)*%
%TF.CreationDate,2023-03-24T19:38:28+01:00*%
%TF.ProjectId,test,74657374-2e6b-4696-9361-645f70636258,rev?*%
%TF.SameCoordinates,Original*%
%TF.FileFunction,Paste,Top*%
%TF.FilePolarity,Positive*%
%FSLAX46Y46*%
G04 Gerber Fmt 4.6, Leading zero omitted, Abs format (unit mm)*
G04 Created by KiCad (PCBNEW (6.0.4)) date 2023-03-24 19:38:28*
%MOMM*%
%LPD*%
G01*
G04 APERTURE LIST*
G04 Aperture macros list*
%AMRoundRect*
0 Rectangle with rounded corners*
0 $1 Rounding radius*
0 $2 $3 $4 $5 $6 $7 $8 $9 X,Y pos of 4 corners*
0 Add a 4 corners polygon primitive as box body*
4,1,4,$2,$3,$4,$5,$6,$7,$8,$9,$2,$3,0*
0 Add four circle primitives for the rounded corners*
1,1,$1+$1,$2,$3*
1,1,$1+$1,$4,$5*
1,1,$1+$1,$6,$7*
1,1,$1+$1,$8,$9*
0 Add four rect primitives between the rounded corners*
20,1,$1+$1,$2,$3,$4,$5,0*
20,1,$1+$1,$4,$5,$6,$7,0*
20,1,$1+$1,$6,$7,$8,$9,0*
20,1,$1+$1,$8,$9,$2,$3,0*%
G04 Aperture macros list end*
%ADD10RoundRect,0.237500X0.300000X0.237500X-0.300000X0.237500X-0.300000X-0.237500X0.300000X-0.237500X0*%
%ADD11RoundRect,0.250000X-0.450000X0.325000X-0.450000X-0.325000X0.450000X-0.325000X0.450000X0.325000X0*%
%ADD12RoundRect,0.237500X-0.250000X-0.237500X0.250000X-0.237500X0.250000X0.237500X-0.250000X0.237500X0*%
%ADD13RoundRect,0.237500X-0.300000X-0.237500X0.300000X-0.237500X0.300000X0.237500X-0.300000X0.237500X0*%
%ADD14R,1.900000X0.750000*%
%ADD15RoundRect,0.250000X0.475000X-0.337500X0.475000X0.337500X-0.475000X0.337500X-0.475000X-0.337500X0*%
%ADD16R,1.475000X1.400000*%
%ADD17R,1.300000X0.300000*%
%ADD18RoundRect,0.237500X-0.237500X0.300000X-0.237500X-0.300000X0.237500X-0.300000X0.237500X0.300000X0*%
%ADD19R,3.050000X2.750000*%
%ADD20R,2.200000X1.200000*%
%ADD21R,0.750000X1.000000*%
%ADD22RoundRect,0.250000X0.450000X-0.350000X0.450000X0.350000X-0.450000X0.350000X-0.450000X-0.350000X0*%
%ADD23RoundRect,0.237500X-0.237500X0.250000X-0.237500X-0.250000X0.237500X-0.250000X0.237500X0.250000X0*%
%ADD24R,0.300000X0.750000*%
%ADD25R,1.300000X0.900000*%
%ADD26RoundRect,0.237500X0.237500X-0.300000X0.237500X0.300000X-0.237500X0.300000X-0.237500X-0.300000X0*%
%ADD27RoundRect,0.150000X-0.150000X0.587500X-0.150000X-0.587500X0.150000X-0.587500X0.150000X0.587500X0*%
%ADD28RoundRect,0.225000X0.225000X0.225000X-0.225000X0.225000X-0.225000X-0.225000X0.225000X-0.225000X0*%
%ADD29RoundRect,0.062500X0.337500X0.062500X-0.337500X0.062500X-0.337500X-0.062500X0.337500X-0.062500X0*%
%ADD30RoundRect,0.062500X0.062500X0.337500X-0.062500X0.337500X-0.062500X-0.337500X0.062500X-0.337500X0*%
%ADD31RoundRect,0.250000X0.337500X0.475000X-0.337500X0.475000X-0.337500X-0.475000X0.337500X-0.475000X0*%
%ADD32R,1.425000X0.450000*%
%ADD33R,1.500000X0.900000*%
%ADD34R,0.900000X1.500000*%
%ADD35R,0.900000X0.900000*%
%ADD36RoundRect,0.250000X-0.450000X0.350000X-0.450000X-0.350000X0.450000X-0.350000X0.450000X0.350000X0*%
%ADD37RoundRect,0.250000X-0.350000X-0.450000X0.350000X-0.450000X0.350000X0.450000X-0.350000X0.450000X0*%
%ADD38RoundRect,0.250000X-0.475000X0.337500X-0.475000X-0.337500X0.475000X-0.337500X0.475000X0.337500X0*%
%ADD39R,1.500000X0.650000*%
%ADD40R,1.475000X0.450000*%
%ADD41R,0.300000X1.475000*%
%ADD42R,1.475000X0.300000*%
%ADD43RoundRect,0.237500X0.250000X0.237500X-0.250000X0.237500X-0.250000X-0.237500X0.250000X-0.237500X0*%
%ADD44R,1.200000X0.600000*%
%ADD45R,1.100000X0.600000*%
%ADD46R,0.850000X0.300000*%
%ADD47R,0.300000X0.850000*%
%ADD48R,1.650000X1.650000*%
%ADD49RoundRect,0.150000X0.150000X-0.587500X0.150000X0.587500X-0.150000X0.587500X-0.150000X-0.587500X0*%
%ADD50RoundRect,0.237500X0.237500X-0.250000X0.237500X0.250000X-0.237500X0.250000X-0.237500X-0.250000X0*%
%ADD51R,1.400000X0.600000*%
%ADD52R,0.650000X1.500000*%
G04 APERTURE END LIST*
D10*
%TO.C,C6*%
X4522500Y-14580000D03*
X2797500Y-14580000D03*
%TD*%
D11*
%TO.C,D1*%
X49650000Y-1125000D03*
X49650000Y-3175000D03*
%TD*%
D12*
%TO.C,R1*%
X8467500Y-26750000D03*
X10292500Y-26750000D03*
%TD*%
D13*
%TO.C,C31*%
X63922500Y-37285000D03*
X65647500Y-37285000D03*
%TD*%
D14*
%TO.C,K2*%
X83650000Y-45310000D03*
X83650000Y-47850000D03*
X92250000Y-47850000D03*
X92250000Y-45310000D03*
%TD*%
D10*
%TO.C,C5*%
X48230000Y-35350000D03*
X46505000Y-35350000D03*
%TD*%
D15*
%TO.C,C25*%
X89780000Y-42947500D03*
X89780000Y-40872500D03*
%TD*%
D16*
%TO.C,C29*%
X89982500Y-29210000D03*
X85457500Y-29210000D03*
%TD*%
D17*
%TO.C,U1*%
X6284100Y-21648971D03*
X6284100Y-22449073D03*
X6284100Y-23749047D03*
X6284100Y-24749047D03*
X6284100Y-25248920D03*
X6284100Y-26248666D03*
X6284100Y-27549149D03*
X6284100Y-28348997D03*
X6284100Y-28049022D03*
X6284100Y-27248920D03*
X6284100Y-26749047D03*
X6284100Y-25749047D03*
X6284100Y-24248920D03*
X6284100Y-23248920D03*
X6284100Y-22749047D03*
X6284100Y-21948946D03*
%TD*%
D18*
%TO.C,C8*%
X45860000Y-40400000D03*
X45860000Y-42125000D03*
%TD*%
D19*
%TO.C,U7*%
X69775000Y-4325000D03*
X66425000Y-7375000D03*
X69775000Y-7375000D03*
X66425000Y-4325000D03*
D20*
X61800000Y-3570000D03*
X61800000Y-8130000D03*
%TD*%
D16*
%TO.C,C28*%
X85437500Y-15900000D03*
X89962500Y-15900000D03*
%TD*%
D21*
%TO.C,SW2*%
X1625000Y-12900000D03*
X1625000Y-6900000D03*
X5375000Y-12900000D03*
X5375000Y-6900000D03*
%TD*%
D22*
%TO.C,R17*%
X41250000Y-11825000D03*
X41250000Y-9825000D03*
%TD*%
D23*
%TO.C,R9*%
X34872500Y-11582500D03*
X34872500Y-13407500D03*
%TD*%
D18*
%TO.C,C7*%
X44300000Y-40400000D03*
X44300000Y-42125000D03*
%TD*%
D24*
%TO.C,IC3*%
X45762500Y-13200000D03*
X46262500Y-13200000D03*
X46762500Y-13200000D03*
X47262500Y-13200000D03*
X47262500Y-11200000D03*
X46762500Y-11200000D03*
X46262500Y-11200000D03*
X45762500Y-11200000D03*
D25*
X46512500Y-12200000D03*
%TD*%
D26*
%TO.C,C15*%
X33187500Y-13337500D03*
X33187500Y-11612500D03*
%TD*%
D27*
%TO.C,D7*%
X91525000Y-19487500D03*
X89625000Y-19487500D03*
X90575000Y-21362500D03*
%TD*%
D13*
%TO.C,C30*%
X63922500Y-35685000D03*
X65647500Y-35685000D03*
%TD*%
D21*
%TO.C,SW1*%
X1625000Y-42500000D03*
X1625000Y-36500000D03*
X5375000Y-42500000D03*
X5375000Y-36500000D03*
%TD*%
D13*
%TO.C,C10*%
X53345000Y-35370000D03*
X55070000Y-35370000D03*
%TD*%
D28*
%TO.C,U2*%
X16475000Y-14055000D03*
X16475000Y-16295000D03*
X17595000Y-14055000D03*
X15355000Y-14055000D03*
X17595000Y-16295000D03*
X17595000Y-15175000D03*
X15355000Y-15175000D03*
X16475000Y-15175000D03*
X15355000Y-16295000D03*
D29*
X18925000Y-16675000D03*
X18925000Y-16175000D03*
X18925000Y-15675000D03*
X18925000Y-15175000D03*
X18925000Y-14675000D03*
X18925000Y-14175000D03*
X18925000Y-13675000D03*
D30*
X17975000Y-12725000D03*
X17475000Y-12725000D03*
X16975000Y-12725000D03*
X16475000Y-12725000D03*
X15975000Y-12725000D03*
X15475000Y-12725000D03*
X14975000Y-12725000D03*
D29*
X14025000Y-13675000D03*
X14025000Y-14175000D03*
X14025000Y-14675000D03*
X14025000Y-15175000D03*
X14025000Y-15675000D03*
X14025000Y-16175000D03*
X14025000Y-16675000D03*
D30*
X14975000Y-17625000D03*
X15475000Y-17625000D03*
X15975000Y-17625000D03*
X16475000Y-17625000D03*
X16975000Y-17625000D03*
X17475000Y-17625000D03*
X17975000Y-17625000D03*
%TD*%
D10*
%TO.C,C9*%
X51640000Y-35360000D03*
X49915000Y-35360000D03*
%TD*%
D31*
%TO.C,C22*%
X63337500Y-1250000D03*
X61262500Y-1250000D03*
%TD*%
D23*
%TO.C,R11*%
X31775000Y-19687500D03*
X31775000Y-21512500D03*
%TD*%
D22*
%TO.C,R24*%
X87800000Y-21500000D03*
X87800000Y-19500000D03*
%TD*%
D32*
%TO.C,IC6*%
X70472000Y-12255000D03*
X70472000Y-11605000D03*
X70472000Y-10955000D03*
X70472000Y-10305000D03*
X66048000Y-10305000D03*
X66048000Y-10955000D03*
X66048000Y-11605000D03*
X66048000Y-12255000D03*
%TD*%
D33*
%TO.C,U3*%
X41750000Y-42310000D03*
X41750000Y-41040000D03*
X41750000Y-39770000D03*
X41750000Y-38500000D03*
X41750000Y-37230000D03*
X41750000Y-35960000D03*
X41750000Y-34690000D03*
X41750000Y-33420000D03*
X41750000Y-32150000D03*
X41750000Y-30880000D03*
X41750000Y-29610000D03*
X41750000Y-28340000D03*
X41750000Y-27070000D03*
X41750000Y-25800000D03*
D34*
X38720000Y-24550000D03*
X37450000Y-24550000D03*
X36180000Y-24550000D03*
X34910000Y-24550000D03*
X33640000Y-24550000D03*
X32370000Y-24550000D03*
X31100000Y-24550000D03*
X29830000Y-24550000D03*
X28560000Y-24550000D03*
X27290000Y-24550000D03*
D33*
X24250000Y-25800000D03*
X24250000Y-27070000D03*
X24250000Y-28340000D03*
X24250000Y-29610000D03*
X24250000Y-30880000D03*
X24250000Y-32150000D03*
X24250000Y-33420000D03*
X24250000Y-34690000D03*
X24250000Y-35960000D03*
X24250000Y-37230000D03*
X24250000Y-38500000D03*
X24250000Y-39770000D03*
X24250000Y-41040000D03*
X24250000Y-42310000D03*
D35*
X33100000Y-34590000D03*
X34500000Y-34590000D03*
X35900000Y-35990000D03*
X33100000Y-33190000D03*
X35900000Y-34590000D03*
X34500000Y-33190000D03*
X34500000Y-35990000D03*
X35900000Y-33190000D03*
X33100000Y-35990000D03*
%TD*%
D36*
%TO.C,R19*%
X54500000Y-5020000D03*
X54500000Y-7020000D03*
%TD*%
D37*
%TO.C,R20*%
X79275000Y-5125000D03*
X81275000Y-5125000D03*
%TD*%
D10*
%TO.C,C16*%
X47355000Y-14670000D03*
X45630000Y-14670000D03*
%TD*%
%TO.C,C14*%
X29182500Y-16610000D03*
X27457500Y-16610000D03*
%TD*%
D36*
%TO.C,R23*%
X87640000Y-40960000D03*
X87640000Y-42960000D03*
%TD*%
D38*
%TO.C,C24*%
X89800000Y-7562500D03*
X89800000Y-9637500D03*
%TD*%
D26*
%TO.C,C3*%
X56530000Y-24037500D03*
X56530000Y-22312500D03*
%TD*%
D31*
%TO.C,C21*%
X28367500Y-1280000D03*
X26292500Y-1280000D03*
%TD*%
D11*
%TO.C,D2*%
X42150000Y-1125000D03*
X42150000Y-3175000D03*
%TD*%
D39*
%TO.C,U8*%
X81100000Y-10805000D03*
X81100000Y-9535000D03*
X81100000Y-8265000D03*
X81100000Y-6995000D03*
X75700000Y-6995000D03*
X75700000Y-8265000D03*
X75700000Y-9535000D03*
X75700000Y-10805000D03*
%TD*%
D36*
%TO.C,R22*%
X87600000Y-7600000D03*
X87600000Y-9600000D03*
%TD*%
D13*
%TO.C,C11*%
X56785000Y-35360000D03*
X58510000Y-35360000D03*
%TD*%
D32*
%TO.C,IC7*%
X70472000Y-33395000D03*
X70472000Y-32745000D03*
X70472000Y-32095000D03*
X70472000Y-31445000D03*
X66048000Y-31445000D03*
X66048000Y-32095000D03*
X66048000Y-32745000D03*
X66048000Y-33395000D03*
%TD*%
D10*
%TO.C,C4*%
X4412500Y-34930000D03*
X2687500Y-34930000D03*
%TD*%
D36*
%TO.C,R14*%
X47150000Y-4920000D03*
X47150000Y-6920000D03*
%TD*%
D15*
%TO.C,C19*%
X24430000Y-6817500D03*
X24430000Y-4742500D03*
%TD*%
D36*
%TO.C,R13*%
X44600000Y-4950000D03*
X44600000Y-6950000D03*
%TD*%
D10*
%TO.C,C12*%
X48050000Y-22350000D03*
X46325000Y-22350000D03*
%TD*%
D39*
%TO.C,U9*%
X81110000Y-36965000D03*
X81110000Y-35695000D03*
X81110000Y-34425000D03*
X81110000Y-33155000D03*
X75710000Y-33155000D03*
X75710000Y-34425000D03*
X75710000Y-35695000D03*
X75710000Y-36965000D03*
%TD*%
D40*
%TO.C,IC5*%
X60208000Y-16075000D03*
X60208000Y-15425000D03*
X60208000Y-14775000D03*
X60208000Y-14125000D03*
X60208000Y-13475000D03*
X60208000Y-12825000D03*
X60208000Y-12175000D03*
X60208000Y-11525000D03*
X54332000Y-11525000D03*
X54332000Y-12175000D03*
X54332000Y-12825000D03*
X54332000Y-13475000D03*
X54332000Y-14125000D03*
X54332000Y-14775000D03*
X54332000Y-15425000D03*
X54332000Y-16075000D03*
%TD*%
D41*
%TO.C,IC2*%
X55050000Y-24262000D03*
X54550000Y-24262000D03*
X54050000Y-24262000D03*
X53550000Y-24262000D03*
X53050000Y-24262000D03*
X52550000Y-24262000D03*
X52050000Y-24262000D03*
X51550000Y-24262000D03*
X51050000Y-24262000D03*
X50550000Y-24262000D03*
X50050000Y-24262000D03*
X49550000Y-24262000D03*
D42*
X48062000Y-25750000D03*
X48062000Y-26250000D03*
X48062000Y-26750000D03*
X48062000Y-27250000D03*
X48062000Y-27750000D03*
X48062000Y-28250000D03*
X48062000Y-28750000D03*
X48062000Y-29250000D03*
X48062000Y-29750000D03*
X48062000Y-30250000D03*
X48062000Y-30750000D03*
X48062000Y-31250000D03*
D41*
X49550000Y-32738000D03*
X50050000Y-32738000D03*
X50550000Y-32738000D03*
X51050000Y-32738000D03*
X51550000Y-32738000D03*
X52050000Y-32738000D03*
X52550000Y-32738000D03*
X53050000Y-32738000D03*
X53550000Y-32738000D03*
X54050000Y-32738000D03*
X54550000Y-32738000D03*
X55050000Y-32738000D03*
D42*
X56538000Y-31250000D03*
X56538000Y-30750000D03*
X56538000Y-30250000D03*
X56538000Y-29750000D03*
X56538000Y-29250000D03*
X56538000Y-28750000D03*
X56538000Y-28250000D03*
X56538000Y-27750000D03*
X56538000Y-27250000D03*
X56538000Y-26750000D03*
X56538000Y-26250000D03*
X56538000Y-25750000D03*
%TD*%
D11*
%TO.C,D4*%
X47150000Y-1125000D03*
X47150000Y-3175000D03*
%TD*%
D43*
%TO.C,R8*%
X16362500Y-33800000D03*
X14537500Y-33800000D03*
%TD*%
D38*
%TO.C,C26*%
X85500000Y-7562500D03*
X85500000Y-9637500D03*
%TD*%
D36*
%TO.C,R7*%
X49650000Y-5020000D03*
X49650000Y-7020000D03*
%TD*%
D44*
%TO.C,IC1*%
X14750000Y-26200000D03*
X14750000Y-25250000D03*
X14750000Y-24300000D03*
X12250000Y-24300000D03*
X12250000Y-25250000D03*
X12250000Y-26200000D03*
%TD*%
D45*
%TO.C,Q2*%
X17950000Y-31850000D03*
X17950000Y-33750000D03*
X20150000Y-32800000D03*
%TD*%
D46*
%TO.C,IC4*%
X29850000Y-14350000D03*
X29850000Y-13850000D03*
X29850000Y-13350000D03*
X29850000Y-12850000D03*
D47*
X29150000Y-12150000D03*
X28650000Y-12150000D03*
X28150000Y-12150000D03*
X27650000Y-12150000D03*
D46*
X26950000Y-12850000D03*
X26950000Y-13350000D03*
X26950000Y-13850000D03*
X26950000Y-14350000D03*
D47*
X27650000Y-15050000D03*
X28150000Y-15050000D03*
X28650000Y-15050000D03*
X29150000Y-15050000D03*
D48*
X28400000Y-13600000D03*
%TD*%
D23*
%TO.C,R10*%
X25425000Y-16625000D03*
X25425000Y-18450000D03*
%TD*%
D49*
%TO.C,D8*%
X89650000Y-25487500D03*
X91550000Y-25487500D03*
X90600000Y-23612500D03*
%TD*%
D23*
%TO.C,R5*%
X16450000Y-9387500D03*
X16450000Y-11212500D03*
%TD*%
D36*
%TO.C,R25*%
X87830000Y-23610000D03*
X87830000Y-25610000D03*
%TD*%
D11*
%TO.C,D6*%
X54500000Y-1175000D03*
X54500000Y-3225000D03*
%TD*%
D22*
%TO.C,R16*%
X43330000Y-11815000D03*
X43330000Y-9815000D03*
%TD*%
D50*
%TO.C,R6*%
X14850000Y-11212500D03*
X14850000Y-9387500D03*
%TD*%
D23*
%TO.C,R4*%
X20450000Y-8662500D03*
X20450000Y-10487500D03*
%TD*%
D51*
%TO.C,IC8*%
X63415000Y-40885000D03*
X63415000Y-39935000D03*
X63415000Y-38985000D03*
X60915000Y-38985000D03*
X60915000Y-39935000D03*
X60915000Y-40885000D03*
%TD*%
D15*
%TO.C,C20*%
X59400000Y-6787500D03*
X59400000Y-4712500D03*
%TD*%
D12*
%TO.C,R2*%
X8467500Y-23750000D03*
X10292500Y-23750000D03*
%TD*%
D26*
%TO.C,C32*%
X65635000Y-41147500D03*
X65635000Y-39422500D03*
%TD*%
D37*
%TO.C,R21*%
X79490000Y-48290000D03*
X81490000Y-48290000D03*
%TD*%
D10*
%TO.C,C13*%
X46137500Y-25675000D03*
X44412500Y-25675000D03*
%TD*%
D52*
%TO.C,U10*%
X70130000Y-20325000D03*
X68860000Y-20325000D03*
X67590000Y-20325000D03*
X66320000Y-20325000D03*
X66320000Y-25725000D03*
X67590000Y-25725000D03*
X68860000Y-25725000D03*
X70130000Y-25725000D03*
%TD*%
D18*
%TO.C,C2*%
X58580000Y-24087500D03*
X58580000Y-25812500D03*
%TD*%
D19*
%TO.C,U6*%
X31455000Y-7405000D03*
X34805000Y-7405000D03*
X34805000Y-4355000D03*
X31455000Y-4355000D03*
D20*
X26830000Y-3600000D03*
X26830000Y-8160000D03*
%TD*%
D43*
%TO.C,R15*%
X16362500Y-37400000D03*
X14537500Y-37400000D03*
%TD*%
D18*
%TO.C,C23*%
X22975000Y-14437500D03*
X22975000Y-16162500D03*
%TD*%
D36*
%TO.C,R18*%
X52100000Y-5020000D03*
X52100000Y-7020000D03*
%TD*%
D11*
%TO.C,D3*%
X44600000Y-1125000D03*
X44600000Y-3175000D03*
%TD*%
D23*
%TO.C,R3*%
X18725000Y-8637500D03*
X18725000Y-10462500D03*
%TD*%
D36*
%TO.C,R12*%
X42150000Y-4925000D03*
X42150000Y-6925000D03*
%TD*%
D45*
%TO.C,Q1*%
X17950000Y-35450000D03*
X17950000Y-37350000D03*
X20150000Y-36400000D03*
%TD*%
D26*
%TO.C,C17*%
X25420000Y-14952500D03*
X25420000Y-13227500D03*
%TD*%
D10*
%TO.C,C18*%
X48052500Y-23900000D03*
X46327500Y-23900000D03*
%TD*%
D18*
%TO.C,C1*%
X21450000Y-14437500D03*
X21450000Y-16162500D03*
%TD*%
D14*
%TO.C,K1*%
X83700000Y-2230000D03*
X83700000Y-4770000D03*
X92300000Y-4770000D03*
X92300000Y-2230000D03*
%TD*%
D15*
%TO.C,C27*%
X85490000Y-42970000D03*
X85490000Y-40895000D03*
%TD*%
D11*
%TO.C,D5*%
X52100000Y-1195000D03*
X52100000Y-3245000D03*
%TD*%
M02*
