%TF.GenerationSoftware,KiCad,Pcbnew,(6.0.4)*%
%TF.CreationDate,2023-03-24T19:38:28+01:00*%
%TF.ProjectId,test,74657374-2e6b-4696-9361-645f70636258,rev?*%
%TF.SameCoordinates,Original*%
%TF.FileFunction,Legend,Top*%
%TF.FilePolarity,Positive*%
%FSLAX46Y46*%
G04 Gerber Fmt 4.6, Leading zero omitted, Abs format (unit mm)*
G04 Created by KiCad (PCBNEW (6.0.4)) date 2023-03-24 19:38:28*
%MOMM*%
%LPD*%
G01*
G04 APERTURE LIST*
G04 Aperture macros list*
%AMRoundRect*
0 Rectangle with rounded corners*
0 $1 Rounding radius*
0 $2 $3 $4 $5 $6 $7 $8 $9 X,Y pos of 4 corners*
0 Add a 4 corners polygon primitive as box body*
4,1,4,$2,$3,$4,$5,$6,$7,$8,$9,$2,$3,0*
0 Add four circle primitives for the rounded corners*
1,1,$1+$1,$2,$3*
1,1,$1+$1,$4,$5*
1,1,$1+$1,$6,$7*
1,1,$1+$1,$8,$9*
0 Add four rect primitives between the rounded corners*
20,1,$1+$1,$2,$3,$4,$5,0*
20,1,$1+$1,$4,$5,$6,$7,0*
20,1,$1+$1,$6,$7,$8,$9,0*
20,1,$1+$1,$8,$9,$2,$3,0*%
G04 Aperture macros list end*
%ADD10C,0.150000*%
%ADD11C,0.125000*%
%ADD12C,0.254000*%
%ADD13C,0.250000*%
%ADD14C,0.120000*%
%ADD15C,0.200000*%
%ADD16C,0.100000*%
%ADD17C,0.254001*%
%ADD18C,0.059995*%
%ADD19C,0.127000*%
%ADD20C,2.000000*%
%ADD21RoundRect,0.237500X0.300000X0.237500X-0.300000X0.237500X-0.300000X-0.237500X0.300000X-0.237500X0*%
%ADD22RoundRect,0.250000X-0.450000X0.325000X-0.450000X-0.325000X0.450000X-0.325000X0.450000X0.325000X0*%
%ADD23RoundRect,0.237500X-0.250000X-0.237500X0.250000X-0.237500X0.250000X0.237500X-0.250000X0.237500X0*%
%ADD24RoundRect,0.237500X-0.300000X-0.237500X0.300000X-0.237500X0.300000X0.237500X-0.300000X0.237500X0*%
%ADD25R,1.900000X0.750000*%
%ADD26RoundRect,0.250000X0.475000X-0.337500X0.475000X0.337500X-0.475000X0.337500X-0.475000X-0.337500X0*%
%ADD27R,1.475000X1.400000*%
%ADD28C,1.650000*%
%ADD29C,0.750013*%
%ADD30O,2.000000X1.200000*%
%ADD31O,1.800000X1.200000*%
%ADD32R,1.300000X0.300000*%
%ADD33RoundRect,0.237500X-0.237500X0.300000X-0.237500X-0.300000X0.237500X-0.300000X0.237500X0.300000X0*%
%ADD34R,2.200000X1.200000*%
%ADD35R,6.400000X5.800000*%
%ADD36R,0.750000X1.000000*%
%ADD37RoundRect,0.250000X0.450000X-0.350000X0.450000X0.350000X-0.450000X0.350000X-0.450000X-0.350000X0*%
%ADD38RoundRect,0.237500X-0.237500X0.250000X-0.237500X-0.250000X0.237500X-0.250000X0.237500X0.250000X0*%
%ADD39C,3.100000*%
%ADD40C,5.400000*%
%ADD41R,0.300000X0.750000*%
%ADD42R,1.300000X0.900000*%
%ADD43RoundRect,0.237500X0.237500X-0.300000X0.237500X0.300000X-0.237500X0.300000X-0.237500X-0.300000X0*%
%ADD44RoundRect,0.150000X-0.150000X0.587500X-0.150000X-0.587500X0.150000X-0.587500X0.150000X0.587500X0*%
%ADD45RoundRect,0.062500X0.337500X0.062500X-0.337500X0.062500X-0.337500X-0.062500X0.337500X-0.062500X0*%
%ADD46RoundRect,0.062500X0.062500X0.337500X-0.062500X0.337500X-0.062500X-0.337500X0.062500X-0.337500X0*%
%ADD47R,3.350000X3.350000*%
%ADD48RoundRect,0.250000X0.337500X0.475000X-0.337500X0.475000X-0.337500X-0.475000X0.337500X-0.475000X0*%
%ADD49R,1.425000X0.450000*%
%ADD50R,1.500000X0.900000*%
%ADD51R,0.900000X1.500000*%
%ADD52R,0.900000X0.900000*%
%ADD53RoundRect,0.250000X-0.450000X0.350000X-0.450000X-0.350000X0.450000X-0.350000X0.450000X0.350000X0*%
%ADD54RoundRect,0.250000X-0.350000X-0.450000X0.350000X-0.450000X0.350000X0.450000X-0.350000X0.450000X0*%
%ADD55RoundRect,0.250000X-0.475000X0.337500X-0.475000X-0.337500X0.475000X-0.337500X0.475000X0.337500X0*%
%ADD56R,1.500000X0.650000*%
%ADD57R,1.475000X0.450000*%
%ADD58R,0.300000X1.475000*%
%ADD59R,1.475000X0.300000*%
%ADD60RoundRect,0.237500X0.250000X0.237500X-0.250000X0.237500X-0.250000X-0.237500X0.250000X-0.237500X0*%
%ADD61R,1.200000X0.600000*%
%ADD62R,1.100000X0.600000*%
%ADD63R,0.850000X0.300000*%
%ADD64R,0.300000X0.850000*%
%ADD65R,1.650000X1.650000*%
%ADD66RoundRect,0.150000X0.150000X-0.587500X0.150000X0.587500X-0.150000X0.587500X-0.150000X-0.587500X0*%
%ADD67RoundRect,0.237500X0.237500X-0.250000X0.237500X0.250000X-0.237500X0.250000X-0.237500X-0.250000X0*%
%ADD68R,1.400000X0.600000*%
%ADD69R,0.650000X1.500000*%
%ADD70R,1.700000X1.700000*%
%ADD71O,1.700000X1.700000*%
%ADD72C,2.800000*%
%ADD73C,1.550000*%
%ADD74C,1.980000*%
%ADD75C,5.325000*%
%ADD76C,3.585000*%
%ADD77C,1.950000*%
G04 APERTURE END LIST*
D10*
X29916666Y-26602380D02*
X29916666Y-27316666D01*
X29869047Y-27459523D01*
X29773809Y-27554761D01*
X29630952Y-27602380D01*
X29535714Y-27602380D01*
X30869047Y-27602380D02*
X30392857Y-27602380D01*
X30392857Y-26602380D01*
X31773809Y-27507142D02*
X31726190Y-27554761D01*
X31583333Y-27602380D01*
X31488095Y-27602380D01*
X31345238Y-27554761D01*
X31250000Y-27459523D01*
X31202380Y-27364285D01*
X31154761Y-27173809D01*
X31154761Y-27030952D01*
X31202380Y-26840476D01*
X31250000Y-26745238D01*
X31345238Y-26650000D01*
X31488095Y-26602380D01*
X31583333Y-26602380D01*
X31726190Y-26650000D01*
X31773809Y-26697619D01*
X32488095Y-26602380D02*
X32488095Y-27316666D01*
X32440476Y-27459523D01*
X32345238Y-27554761D01*
X32202380Y-27602380D01*
X32107142Y-27602380D01*
X33440476Y-27602380D02*
X32964285Y-27602380D01*
X32964285Y-26602380D01*
X34345238Y-27507142D02*
X34297619Y-27554761D01*
X34154761Y-27602380D01*
X34059523Y-27602380D01*
X33916666Y-27554761D01*
X33821428Y-27459523D01*
X33773809Y-27364285D01*
X33726190Y-27173809D01*
X33726190Y-27030952D01*
X33773809Y-26840476D01*
X33821428Y-26745238D01*
X33916666Y-26650000D01*
X34059523Y-26602380D01*
X34154761Y-26602380D01*
X34297619Y-26650000D01*
X34345238Y-26697619D01*
X35059523Y-26602380D02*
X35059523Y-27316666D01*
X35011904Y-27459523D01*
X34916666Y-27554761D01*
X34773809Y-27602380D01*
X34678571Y-27602380D01*
X36011904Y-27602380D02*
X35535714Y-27602380D01*
X35535714Y-26602380D01*
X36916666Y-27507142D02*
X36869047Y-27554761D01*
X36726190Y-27602380D01*
X36630952Y-27602380D01*
X36488095Y-27554761D01*
X36392857Y-27459523D01*
X36345238Y-27364285D01*
X36297619Y-27173809D01*
X36297619Y-27030952D01*
X36345238Y-26840476D01*
X36392857Y-26745238D01*
X36488095Y-26650000D01*
X36630952Y-26602380D01*
X36726190Y-26602380D01*
X36869047Y-26650000D01*
X36916666Y-26697619D01*
D11*
%TO.C,TP15*%
X60582142Y-31427380D02*
X60653571Y-31451190D01*
X60772619Y-31451190D01*
X60820238Y-31427380D01*
X60844047Y-31403571D01*
X60867857Y-31355952D01*
X60867857Y-31308333D01*
X60844047Y-31260714D01*
X60820238Y-31236904D01*
X60772619Y-31213095D01*
X60677380Y-31189285D01*
X60629761Y-31165476D01*
X60605952Y-31141666D01*
X60582142Y-31094047D01*
X60582142Y-31046428D01*
X60605952Y-30998809D01*
X60629761Y-30975000D01*
X60677380Y-30951190D01*
X60796428Y-30951190D01*
X60867857Y-30975000D01*
X61367857Y-31403571D02*
X61344047Y-31427380D01*
X61272619Y-31451190D01*
X61225000Y-31451190D01*
X61153571Y-31427380D01*
X61105952Y-31379761D01*
X61082142Y-31332142D01*
X61058333Y-31236904D01*
X61058333Y-31165476D01*
X61082142Y-31070238D01*
X61105952Y-31022619D01*
X61153571Y-30975000D01*
X61225000Y-30951190D01*
X61272619Y-30951190D01*
X61344047Y-30975000D01*
X61367857Y-30998809D01*
X61820238Y-31451190D02*
X61582142Y-31451190D01*
X61582142Y-30951190D01*
X61986904Y-31451190D02*
X61986904Y-30951190D01*
X62272619Y-31451190D02*
X62058333Y-31165476D01*
X62272619Y-30951190D02*
X61986904Y-31236904D01*
X62367857Y-31498809D02*
X62748809Y-31498809D01*
X62844047Y-31427380D02*
X62915476Y-31451190D01*
X63034523Y-31451190D01*
X63082142Y-31427380D01*
X63105952Y-31403571D01*
X63129761Y-31355952D01*
X63129761Y-31308333D01*
X63105952Y-31260714D01*
X63082142Y-31236904D01*
X63034523Y-31213095D01*
X62939285Y-31189285D01*
X62891666Y-31165476D01*
X62867857Y-31141666D01*
X62844047Y-31094047D01*
X62844047Y-31046428D01*
X62867857Y-30998809D01*
X62891666Y-30975000D01*
X62939285Y-30951190D01*
X63058333Y-30951190D01*
X63129761Y-30975000D01*
X63344047Y-31451190D02*
X63344047Y-30951190D01*
X63534523Y-30951190D01*
X63582142Y-30975000D01*
X63605952Y-30998809D01*
X63629761Y-31046428D01*
X63629761Y-31117857D01*
X63605952Y-31165476D01*
X63582142Y-31189285D01*
X63534523Y-31213095D01*
X63344047Y-31213095D01*
X63844047Y-31451190D02*
X63844047Y-30951190D01*
%TO.C,TP1*%
X10614285Y-6701190D02*
X10780952Y-7201190D01*
X10947619Y-6701190D01*
X11280952Y-6939285D02*
X11352380Y-6963095D01*
X11376190Y-6986904D01*
X11400000Y-7034523D01*
X11400000Y-7105952D01*
X11376190Y-7153571D01*
X11352380Y-7177380D01*
X11304761Y-7201190D01*
X11114285Y-7201190D01*
X11114285Y-6701190D01*
X11280952Y-6701190D01*
X11328571Y-6725000D01*
X11352380Y-6748809D01*
X11376190Y-6796428D01*
X11376190Y-6844047D01*
X11352380Y-6891666D01*
X11328571Y-6915476D01*
X11280952Y-6939285D01*
X11114285Y-6939285D01*
X11828571Y-7201190D02*
X11828571Y-6939285D01*
X11804761Y-6891666D01*
X11757142Y-6867857D01*
X11661904Y-6867857D01*
X11614285Y-6891666D01*
X11828571Y-7177380D02*
X11780952Y-7201190D01*
X11661904Y-7201190D01*
X11614285Y-7177380D01*
X11590476Y-7129761D01*
X11590476Y-7082142D01*
X11614285Y-7034523D01*
X11661904Y-7010714D01*
X11780952Y-7010714D01*
X11828571Y-6986904D01*
X11995238Y-6867857D02*
X12185714Y-6867857D01*
X12066666Y-6701190D02*
X12066666Y-7129761D01*
X12090476Y-7177380D01*
X12138095Y-7201190D01*
X12185714Y-7201190D01*
%TO.C,C6*%
X3576666Y-15903571D02*
X3552857Y-15927380D01*
X3481428Y-15951190D01*
X3433809Y-15951190D01*
X3362380Y-15927380D01*
X3314761Y-15879761D01*
X3290952Y-15832142D01*
X3267142Y-15736904D01*
X3267142Y-15665476D01*
X3290952Y-15570238D01*
X3314761Y-15522619D01*
X3362380Y-15475000D01*
X3433809Y-15451190D01*
X3481428Y-15451190D01*
X3552857Y-15475000D01*
X3576666Y-15498809D01*
X4005238Y-15451190D02*
X3910000Y-15451190D01*
X3862380Y-15475000D01*
X3838571Y-15498809D01*
X3790952Y-15570238D01*
X3767142Y-15665476D01*
X3767142Y-15855952D01*
X3790952Y-15903571D01*
X3814761Y-15927380D01*
X3862380Y-15951190D01*
X3957619Y-15951190D01*
X4005238Y-15927380D01*
X4029047Y-15903571D01*
X4052857Y-15855952D01*
X4052857Y-15736904D01*
X4029047Y-15689285D01*
X4005238Y-15665476D01*
X3957619Y-15641666D01*
X3862380Y-15641666D01*
X3814761Y-15665476D01*
X3790952Y-15689285D01*
X3767142Y-15736904D01*
%TO.C,D1*%
X49280952Y-8476190D02*
X49280952Y-7976190D01*
X49400000Y-7976190D01*
X49471428Y-8000000D01*
X49519047Y-8047619D01*
X49542857Y-8095238D01*
X49566666Y-8190476D01*
X49566666Y-8261904D01*
X49542857Y-8357142D01*
X49519047Y-8404761D01*
X49471428Y-8452380D01*
X49400000Y-8476190D01*
X49280952Y-8476190D01*
X50042857Y-8476190D02*
X49757142Y-8476190D01*
X49900000Y-8476190D02*
X49900000Y-7976190D01*
X49852380Y-8047619D01*
X49804761Y-8095238D01*
X49757142Y-8119047D01*
D10*
%TO.C,R1*%
X9213333Y-25772380D02*
X8880000Y-25296190D01*
X8641904Y-25772380D02*
X8641904Y-24772380D01*
X9022857Y-24772380D01*
X9118095Y-24820000D01*
X9165714Y-24867619D01*
X9213333Y-24962857D01*
X9213333Y-25105714D01*
X9165714Y-25200952D01*
X9118095Y-25248571D01*
X9022857Y-25296190D01*
X8641904Y-25296190D01*
X10165714Y-25772380D02*
X9594285Y-25772380D01*
X9880000Y-25772380D02*
X9880000Y-24772380D01*
X9784761Y-24915238D01*
X9689523Y-25010476D01*
X9594285Y-25058095D01*
D11*
%TO.C,C31*%
X66903571Y-37478571D02*
X66879761Y-37502380D01*
X66808333Y-37526190D01*
X66760714Y-37526190D01*
X66689285Y-37502380D01*
X66641666Y-37454761D01*
X66617857Y-37407142D01*
X66594047Y-37311904D01*
X66594047Y-37240476D01*
X66617857Y-37145238D01*
X66641666Y-37097619D01*
X66689285Y-37050000D01*
X66760714Y-37026190D01*
X66808333Y-37026190D01*
X66879761Y-37050000D01*
X66903571Y-37073809D01*
X67070238Y-37026190D02*
X67379761Y-37026190D01*
X67213095Y-37216666D01*
X67284523Y-37216666D01*
X67332142Y-37240476D01*
X67355952Y-37264285D01*
X67379761Y-37311904D01*
X67379761Y-37430952D01*
X67355952Y-37478571D01*
X67332142Y-37502380D01*
X67284523Y-37526190D01*
X67141666Y-37526190D01*
X67094047Y-37502380D01*
X67070238Y-37478571D01*
X67855952Y-37526190D02*
X67570238Y-37526190D01*
X67713095Y-37526190D02*
X67713095Y-37026190D01*
X67665476Y-37097619D01*
X67617857Y-37145238D01*
X67570238Y-37169047D01*
D12*
%TO.C,K2*%
X87012619Y-47154523D02*
X87012619Y-45884523D01*
X87738333Y-47154523D02*
X87194047Y-46428809D01*
X87738333Y-45884523D02*
X87012619Y-46610238D01*
X88222142Y-46005476D02*
X88282619Y-45945000D01*
X88403571Y-45884523D01*
X88705952Y-45884523D01*
X88826904Y-45945000D01*
X88887380Y-46005476D01*
X88947857Y-46126428D01*
X88947857Y-46247380D01*
X88887380Y-46428809D01*
X88161666Y-47154523D01*
X88947857Y-47154523D01*
D11*
%TO.C,C5*%
X47316666Y-36603571D02*
X47292857Y-36627380D01*
X47221428Y-36651190D01*
X47173809Y-36651190D01*
X47102380Y-36627380D01*
X47054761Y-36579761D01*
X47030952Y-36532142D01*
X47007142Y-36436904D01*
X47007142Y-36365476D01*
X47030952Y-36270238D01*
X47054761Y-36222619D01*
X47102380Y-36175000D01*
X47173809Y-36151190D01*
X47221428Y-36151190D01*
X47292857Y-36175000D01*
X47316666Y-36198809D01*
X47769047Y-36151190D02*
X47530952Y-36151190D01*
X47507142Y-36389285D01*
X47530952Y-36365476D01*
X47578571Y-36341666D01*
X47697619Y-36341666D01*
X47745238Y-36365476D01*
X47769047Y-36389285D01*
X47792857Y-36436904D01*
X47792857Y-36555952D01*
X47769047Y-36603571D01*
X47745238Y-36627380D01*
X47697619Y-36651190D01*
X47578571Y-36651190D01*
X47530952Y-36627380D01*
X47507142Y-36603571D01*
%TO.C,C25*%
X89428571Y-39803571D02*
X89404761Y-39827380D01*
X89333333Y-39851190D01*
X89285714Y-39851190D01*
X89214285Y-39827380D01*
X89166666Y-39779761D01*
X89142857Y-39732142D01*
X89119047Y-39636904D01*
X89119047Y-39565476D01*
X89142857Y-39470238D01*
X89166666Y-39422619D01*
X89214285Y-39375000D01*
X89285714Y-39351190D01*
X89333333Y-39351190D01*
X89404761Y-39375000D01*
X89428571Y-39398809D01*
X89619047Y-39398809D02*
X89642857Y-39375000D01*
X89690476Y-39351190D01*
X89809523Y-39351190D01*
X89857142Y-39375000D01*
X89880952Y-39398809D01*
X89904761Y-39446428D01*
X89904761Y-39494047D01*
X89880952Y-39565476D01*
X89595238Y-39851190D01*
X89904761Y-39851190D01*
X90357142Y-39351190D02*
X90119047Y-39351190D01*
X90095238Y-39589285D01*
X90119047Y-39565476D01*
X90166666Y-39541666D01*
X90285714Y-39541666D01*
X90333333Y-39565476D01*
X90357142Y-39589285D01*
X90380952Y-39636904D01*
X90380952Y-39755952D01*
X90357142Y-39803571D01*
X90333333Y-39827380D01*
X90285714Y-39851190D01*
X90166666Y-39851190D01*
X90119047Y-39827380D01*
X90095238Y-39803571D01*
D13*
%TO.C,C29*%
X87082142Y-32382142D02*
X87034523Y-32429761D01*
X86891666Y-32477380D01*
X86796428Y-32477380D01*
X86653571Y-32429761D01*
X86558333Y-32334523D01*
X86510714Y-32239285D01*
X86463095Y-32048809D01*
X86463095Y-31905952D01*
X86510714Y-31715476D01*
X86558333Y-31620238D01*
X86653571Y-31525000D01*
X86796428Y-31477380D01*
X86891666Y-31477380D01*
X87034523Y-31525000D01*
X87082142Y-31572619D01*
X87463095Y-31572619D02*
X87510714Y-31525000D01*
X87605952Y-31477380D01*
X87844047Y-31477380D01*
X87939285Y-31525000D01*
X87986904Y-31572619D01*
X88034523Y-31667857D01*
X88034523Y-31763095D01*
X87986904Y-31905952D01*
X87415476Y-32477380D01*
X88034523Y-32477380D01*
X88510714Y-32477380D02*
X88701190Y-32477380D01*
X88796428Y-32429761D01*
X88844047Y-32382142D01*
X88939285Y-32239285D01*
X88986904Y-32048809D01*
X88986904Y-31667857D01*
X88939285Y-31572619D01*
X88891666Y-31525000D01*
X88796428Y-31477380D01*
X88605952Y-31477380D01*
X88510714Y-31525000D01*
X88463095Y-31572619D01*
X88415476Y-31667857D01*
X88415476Y-31905952D01*
X88463095Y-32001190D01*
X88510714Y-32048809D01*
X88605952Y-32096428D01*
X88796428Y-32096428D01*
X88891666Y-32048809D01*
X88939285Y-32001190D01*
X88986904Y-31905952D01*
D12*
%TO.C,SW3*%
X12756666Y-44564047D02*
X12938095Y-44624523D01*
X13240476Y-44624523D01*
X13361428Y-44564047D01*
X13421904Y-44503571D01*
X13482380Y-44382619D01*
X13482380Y-44261666D01*
X13421904Y-44140714D01*
X13361428Y-44080238D01*
X13240476Y-44019761D01*
X12998571Y-43959285D01*
X12877619Y-43898809D01*
X12817142Y-43838333D01*
X12756666Y-43717380D01*
X12756666Y-43596428D01*
X12817142Y-43475476D01*
X12877619Y-43415000D01*
X12998571Y-43354523D01*
X13300952Y-43354523D01*
X13482380Y-43415000D01*
X13905714Y-43354523D02*
X14208095Y-44624523D01*
X14450000Y-43717380D01*
X14691904Y-44624523D01*
X14994285Y-43354523D01*
X15357142Y-43354523D02*
X16143333Y-43354523D01*
X15720000Y-43838333D01*
X15901428Y-43838333D01*
X16022380Y-43898809D01*
X16082857Y-43959285D01*
X16143333Y-44080238D01*
X16143333Y-44382619D01*
X16082857Y-44503571D01*
X16022380Y-44564047D01*
X15901428Y-44624523D01*
X15538571Y-44624523D01*
X15417619Y-44564047D01*
X15357142Y-44503571D01*
D11*
%TO.C,TP2*%
X37586904Y-1576190D02*
X37896428Y-1576190D01*
X37729761Y-1766666D01*
X37801190Y-1766666D01*
X37848809Y-1790476D01*
X37872619Y-1814285D01*
X37896428Y-1861904D01*
X37896428Y-1980952D01*
X37872619Y-2028571D01*
X37848809Y-2052380D01*
X37801190Y-2076190D01*
X37658333Y-2076190D01*
X37610714Y-2052380D01*
X37586904Y-2028571D01*
X38110714Y-2028571D02*
X38134523Y-2052380D01*
X38110714Y-2076190D01*
X38086904Y-2052380D01*
X38110714Y-2028571D01*
X38110714Y-2076190D01*
X38301190Y-1576190D02*
X38610714Y-1576190D01*
X38444047Y-1766666D01*
X38515476Y-1766666D01*
X38563095Y-1790476D01*
X38586904Y-1814285D01*
X38610714Y-1861904D01*
X38610714Y-1980952D01*
X38586904Y-2028571D01*
X38563095Y-2052380D01*
X38515476Y-2076190D01*
X38372619Y-2076190D01*
X38325000Y-2052380D01*
X38301190Y-2028571D01*
X38753571Y-1576190D02*
X38920238Y-2076190D01*
X39086904Y-1576190D01*
D10*
%TO.C,U1*%
X1952380Y-25761904D02*
X2761904Y-25761904D01*
X2857142Y-25714285D01*
X2904761Y-25666666D01*
X2952380Y-25571428D01*
X2952380Y-25380952D01*
X2904761Y-25285714D01*
X2857142Y-25238095D01*
X2761904Y-25190476D01*
X1952380Y-25190476D01*
X2952380Y-24190476D02*
X2952380Y-24761904D01*
X2952380Y-24476190D02*
X1952380Y-24476190D01*
X2095238Y-24571428D01*
X2190476Y-24666666D01*
X2238095Y-24761904D01*
D11*
%TO.C,C8*%
X45766666Y-39228571D02*
X45742857Y-39252380D01*
X45671428Y-39276190D01*
X45623809Y-39276190D01*
X45552380Y-39252380D01*
X45504761Y-39204761D01*
X45480952Y-39157142D01*
X45457142Y-39061904D01*
X45457142Y-38990476D01*
X45480952Y-38895238D01*
X45504761Y-38847619D01*
X45552380Y-38800000D01*
X45623809Y-38776190D01*
X45671428Y-38776190D01*
X45742857Y-38800000D01*
X45766666Y-38823809D01*
X46052380Y-38990476D02*
X46004761Y-38966666D01*
X45980952Y-38942857D01*
X45957142Y-38895238D01*
X45957142Y-38871428D01*
X45980952Y-38823809D01*
X46004761Y-38800000D01*
X46052380Y-38776190D01*
X46147619Y-38776190D01*
X46195238Y-38800000D01*
X46219047Y-38823809D01*
X46242857Y-38871428D01*
X46242857Y-38895238D01*
X46219047Y-38942857D01*
X46195238Y-38966666D01*
X46147619Y-38990476D01*
X46052380Y-38990476D01*
X46004761Y-39014285D01*
X45980952Y-39038095D01*
X45957142Y-39085714D01*
X45957142Y-39180952D01*
X45980952Y-39228571D01*
X46004761Y-39252380D01*
X46052380Y-39276190D01*
X46147619Y-39276190D01*
X46195238Y-39252380D01*
X46219047Y-39228571D01*
X46242857Y-39180952D01*
X46242857Y-39085714D01*
X46219047Y-39038095D01*
X46195238Y-39014285D01*
X46147619Y-38990476D01*
D10*
%TO.C,U7*%
X66788095Y-1152380D02*
X66788095Y-1961904D01*
X66835714Y-2057142D01*
X66883333Y-2104761D01*
X66978571Y-2152380D01*
X67169047Y-2152380D01*
X67264285Y-2104761D01*
X67311904Y-2057142D01*
X67359523Y-1961904D01*
X67359523Y-1152380D01*
X67740476Y-1152380D02*
X68407142Y-1152380D01*
X67978571Y-2152380D01*
D11*
%TO.C,TP10*%
X72948809Y-28376190D02*
X73044047Y-28376190D01*
X73091666Y-28400000D01*
X73139285Y-28447619D01*
X73163095Y-28542857D01*
X73163095Y-28709523D01*
X73139285Y-28804761D01*
X73091666Y-28852380D01*
X73044047Y-28876190D01*
X72948809Y-28876190D01*
X72901190Y-28852380D01*
X72853571Y-28804761D01*
X72829761Y-28709523D01*
X72829761Y-28542857D01*
X72853571Y-28447619D01*
X72901190Y-28400000D01*
X72948809Y-28376190D01*
X73544047Y-28614285D02*
X73377380Y-28614285D01*
X73377380Y-28876190D02*
X73377380Y-28376190D01*
X73615476Y-28376190D01*
X73972619Y-28614285D02*
X73805952Y-28614285D01*
X73805952Y-28876190D02*
X73805952Y-28376190D01*
X74044047Y-28376190D01*
X74520238Y-28828571D02*
X74496428Y-28852380D01*
X74425000Y-28876190D01*
X74377380Y-28876190D01*
X74305952Y-28852380D01*
X74258333Y-28804761D01*
X74234523Y-28757142D01*
X74210714Y-28661904D01*
X74210714Y-28590476D01*
X74234523Y-28495238D01*
X74258333Y-28447619D01*
X74305952Y-28400000D01*
X74377380Y-28376190D01*
X74425000Y-28376190D01*
X74496428Y-28400000D01*
X74520238Y-28423809D01*
X74734523Y-28876190D02*
X74734523Y-28376190D01*
X74734523Y-28614285D02*
X75020238Y-28614285D01*
X75020238Y-28876190D02*
X75020238Y-28376190D01*
X75234523Y-28423809D02*
X75258333Y-28400000D01*
X75305952Y-28376190D01*
X75425000Y-28376190D01*
X75472619Y-28400000D01*
X75496428Y-28423809D01*
X75520238Y-28471428D01*
X75520238Y-28519047D01*
X75496428Y-28590476D01*
X75210714Y-28876190D01*
X75520238Y-28876190D01*
%TO.C,TP5*%
X79725000Y-15558333D02*
X79963095Y-15558333D01*
X79677380Y-15701190D02*
X79844047Y-15201190D01*
X80010714Y-15701190D01*
X80177380Y-15701190D02*
X80177380Y-15201190D01*
X80463095Y-15701190D01*
X80463095Y-15201190D01*
X80701190Y-15701190D02*
X80701190Y-15201190D01*
X81225000Y-15653571D02*
X81201190Y-15677380D01*
X81129761Y-15701190D01*
X81082142Y-15701190D01*
X81010714Y-15677380D01*
X80963095Y-15629761D01*
X80939285Y-15582142D01*
X80915476Y-15486904D01*
X80915476Y-15415476D01*
X80939285Y-15320238D01*
X80963095Y-15272619D01*
X81010714Y-15225000D01*
X81082142Y-15201190D01*
X81129761Y-15201190D01*
X81201190Y-15225000D01*
X81225000Y-15248809D01*
X81439285Y-15701190D02*
X81439285Y-15201190D01*
X81439285Y-15439285D02*
X81725000Y-15439285D01*
X81725000Y-15701190D02*
X81725000Y-15201190D01*
X82225000Y-15701190D02*
X81939285Y-15701190D01*
X82082142Y-15701190D02*
X82082142Y-15201190D01*
X82034523Y-15272619D01*
X81986904Y-15320238D01*
X81939285Y-15344047D01*
D13*
%TO.C,C28*%
X85382142Y-13907142D02*
X85334523Y-13954761D01*
X85191666Y-14002380D01*
X85096428Y-14002380D01*
X84953571Y-13954761D01*
X84858333Y-13859523D01*
X84810714Y-13764285D01*
X84763095Y-13573809D01*
X84763095Y-13430952D01*
X84810714Y-13240476D01*
X84858333Y-13145238D01*
X84953571Y-13050000D01*
X85096428Y-13002380D01*
X85191666Y-13002380D01*
X85334523Y-13050000D01*
X85382142Y-13097619D01*
X85763095Y-13097619D02*
X85810714Y-13050000D01*
X85905952Y-13002380D01*
X86144047Y-13002380D01*
X86239285Y-13050000D01*
X86286904Y-13097619D01*
X86334523Y-13192857D01*
X86334523Y-13288095D01*
X86286904Y-13430952D01*
X85715476Y-14002380D01*
X86334523Y-14002380D01*
X86905952Y-13430952D02*
X86810714Y-13383333D01*
X86763095Y-13335714D01*
X86715476Y-13240476D01*
X86715476Y-13192857D01*
X86763095Y-13097619D01*
X86810714Y-13050000D01*
X86905952Y-13002380D01*
X87096428Y-13002380D01*
X87191666Y-13050000D01*
X87239285Y-13097619D01*
X87286904Y-13192857D01*
X87286904Y-13240476D01*
X87239285Y-13335714D01*
X87191666Y-13383333D01*
X87096428Y-13430952D01*
X86905952Y-13430952D01*
X86810714Y-13478571D01*
X86763095Y-13526190D01*
X86715476Y-13621428D01*
X86715476Y-13811904D01*
X86763095Y-13907142D01*
X86810714Y-13954761D01*
X86905952Y-14002380D01*
X87096428Y-14002380D01*
X87191666Y-13954761D01*
X87239285Y-13907142D01*
X87286904Y-13811904D01*
X87286904Y-13621428D01*
X87239285Y-13526190D01*
X87191666Y-13478571D01*
X87096428Y-13430952D01*
D10*
%TO.C,SW2*%
X3904761Y-11333333D02*
X3952380Y-11190476D01*
X3952380Y-10952380D01*
X3904761Y-10857142D01*
X3857142Y-10809523D01*
X3761904Y-10761904D01*
X3666666Y-10761904D01*
X3571428Y-10809523D01*
X3523809Y-10857142D01*
X3476190Y-10952380D01*
X3428571Y-11142857D01*
X3380952Y-11238095D01*
X3333333Y-11285714D01*
X3238095Y-11333333D01*
X3142857Y-11333333D01*
X3047619Y-11285714D01*
X3000000Y-11238095D01*
X2952380Y-11142857D01*
X2952380Y-10904761D01*
X3000000Y-10761904D01*
X2952380Y-10428571D02*
X3952380Y-10190476D01*
X3238095Y-10000000D01*
X3952380Y-9809523D01*
X2952380Y-9571428D01*
X3047619Y-9238095D02*
X3000000Y-9190476D01*
X2952380Y-9095238D01*
X2952380Y-8857142D01*
X3000000Y-8761904D01*
X3047619Y-8714285D01*
X3142857Y-8666666D01*
X3238095Y-8666666D01*
X3380952Y-8714285D01*
X3952380Y-9285714D01*
X3952380Y-8666666D01*
D11*
%TO.C,R17*%
X40953571Y-13376190D02*
X40786904Y-13138095D01*
X40667857Y-13376190D02*
X40667857Y-12876190D01*
X40858333Y-12876190D01*
X40905952Y-12900000D01*
X40929761Y-12923809D01*
X40953571Y-12971428D01*
X40953571Y-13042857D01*
X40929761Y-13090476D01*
X40905952Y-13114285D01*
X40858333Y-13138095D01*
X40667857Y-13138095D01*
X41429761Y-13376190D02*
X41144047Y-13376190D01*
X41286904Y-13376190D02*
X41286904Y-12876190D01*
X41239285Y-12947619D01*
X41191666Y-12995238D01*
X41144047Y-13019047D01*
X41596428Y-12876190D02*
X41929761Y-12876190D01*
X41715476Y-13376190D01*
%TO.C,R9*%
X34789166Y-14851190D02*
X34622500Y-14613095D01*
X34503452Y-14851190D02*
X34503452Y-14351190D01*
X34693928Y-14351190D01*
X34741547Y-14375000D01*
X34765357Y-14398809D01*
X34789166Y-14446428D01*
X34789166Y-14517857D01*
X34765357Y-14565476D01*
X34741547Y-14589285D01*
X34693928Y-14613095D01*
X34503452Y-14613095D01*
X35027261Y-14851190D02*
X35122500Y-14851190D01*
X35170119Y-14827380D01*
X35193928Y-14803571D01*
X35241547Y-14732142D01*
X35265357Y-14636904D01*
X35265357Y-14446428D01*
X35241547Y-14398809D01*
X35217738Y-14375000D01*
X35170119Y-14351190D01*
X35074880Y-14351190D01*
X35027261Y-14375000D01*
X35003452Y-14398809D01*
X34979642Y-14446428D01*
X34979642Y-14565476D01*
X35003452Y-14613095D01*
X35027261Y-14636904D01*
X35074880Y-14660714D01*
X35170119Y-14660714D01*
X35217738Y-14636904D01*
X35241547Y-14613095D01*
X35265357Y-14565476D01*
D10*
%TO.C,H4*%
X93488095Y-44552380D02*
X93488095Y-43552380D01*
X93488095Y-44028571D02*
X94059523Y-44028571D01*
X94059523Y-44552380D02*
X94059523Y-43552380D01*
X94964285Y-43885714D02*
X94964285Y-44552380D01*
X94726190Y-43504761D02*
X94488095Y-44219047D01*
X95107142Y-44219047D01*
D11*
%TO.C,C7*%
X44226666Y-39228571D02*
X44202857Y-39252380D01*
X44131428Y-39276190D01*
X44083809Y-39276190D01*
X44012380Y-39252380D01*
X43964761Y-39204761D01*
X43940952Y-39157142D01*
X43917142Y-39061904D01*
X43917142Y-38990476D01*
X43940952Y-38895238D01*
X43964761Y-38847619D01*
X44012380Y-38800000D01*
X44083809Y-38776190D01*
X44131428Y-38776190D01*
X44202857Y-38800000D01*
X44226666Y-38823809D01*
X44393333Y-38776190D02*
X44726666Y-38776190D01*
X44512380Y-39276190D01*
%TO.C,TP7*%
X76182142Y-15533333D02*
X76420238Y-15533333D01*
X76134523Y-15676190D02*
X76301190Y-15176190D01*
X76467857Y-15676190D01*
X76634523Y-15676190D02*
X76634523Y-15176190D01*
X76920238Y-15676190D01*
X76920238Y-15176190D01*
X77253571Y-15176190D02*
X77348809Y-15176190D01*
X77396428Y-15200000D01*
X77444047Y-15247619D01*
X77467857Y-15342857D01*
X77467857Y-15509523D01*
X77444047Y-15604761D01*
X77396428Y-15652380D01*
X77348809Y-15676190D01*
X77253571Y-15676190D01*
X77205952Y-15652380D01*
X77158333Y-15604761D01*
X77134523Y-15509523D01*
X77134523Y-15342857D01*
X77158333Y-15247619D01*
X77205952Y-15200000D01*
X77253571Y-15176190D01*
X77967857Y-15628571D02*
X77944047Y-15652380D01*
X77872619Y-15676190D01*
X77825000Y-15676190D01*
X77753571Y-15652380D01*
X77705952Y-15604761D01*
X77682142Y-15557142D01*
X77658333Y-15461904D01*
X77658333Y-15390476D01*
X77682142Y-15295238D01*
X77705952Y-15247619D01*
X77753571Y-15200000D01*
X77825000Y-15176190D01*
X77872619Y-15176190D01*
X77944047Y-15200000D01*
X77967857Y-15223809D01*
X78182142Y-15676190D02*
X78182142Y-15176190D01*
X78182142Y-15414285D02*
X78467857Y-15414285D01*
X78467857Y-15676190D02*
X78467857Y-15176190D01*
X78967857Y-15676190D02*
X78682142Y-15676190D01*
X78825000Y-15676190D02*
X78825000Y-15176190D01*
X78777380Y-15247619D01*
X78729761Y-15295238D01*
X78682142Y-15319047D01*
D12*
%TO.C,IC3*%
X49124523Y-13439761D02*
X47854523Y-13439761D01*
X49003571Y-12109285D02*
X49064047Y-12169761D01*
X49124523Y-12351190D01*
X49124523Y-12472142D01*
X49064047Y-12653571D01*
X48943095Y-12774523D01*
X48822142Y-12835000D01*
X48580238Y-12895476D01*
X48398809Y-12895476D01*
X48156904Y-12835000D01*
X48035952Y-12774523D01*
X47915000Y-12653571D01*
X47854523Y-12472142D01*
X47854523Y-12351190D01*
X47915000Y-12169761D01*
X47975476Y-12109285D01*
X47854523Y-11685952D02*
X47854523Y-10899761D01*
X48338333Y-11323095D01*
X48338333Y-11141666D01*
X48398809Y-11020714D01*
X48459285Y-10960238D01*
X48580238Y-10899761D01*
X48882619Y-10899761D01*
X49003571Y-10960238D01*
X49064047Y-11020714D01*
X49124523Y-11141666D01*
X49124523Y-11504523D01*
X49064047Y-11625476D01*
X49003571Y-11685952D01*
D11*
%TO.C,C15*%
X32876071Y-14828571D02*
X32852261Y-14852380D01*
X32780833Y-14876190D01*
X32733214Y-14876190D01*
X32661785Y-14852380D01*
X32614166Y-14804761D01*
X32590357Y-14757142D01*
X32566547Y-14661904D01*
X32566547Y-14590476D01*
X32590357Y-14495238D01*
X32614166Y-14447619D01*
X32661785Y-14400000D01*
X32733214Y-14376190D01*
X32780833Y-14376190D01*
X32852261Y-14400000D01*
X32876071Y-14423809D01*
X33352261Y-14876190D02*
X33066547Y-14876190D01*
X33209404Y-14876190D02*
X33209404Y-14376190D01*
X33161785Y-14447619D01*
X33114166Y-14495238D01*
X33066547Y-14519047D01*
X33804642Y-14376190D02*
X33566547Y-14376190D01*
X33542738Y-14614285D01*
X33566547Y-14590476D01*
X33614166Y-14566666D01*
X33733214Y-14566666D01*
X33780833Y-14590476D01*
X33804642Y-14614285D01*
X33828452Y-14661904D01*
X33828452Y-14780952D01*
X33804642Y-14828571D01*
X33780833Y-14852380D01*
X33733214Y-14876190D01*
X33614166Y-14876190D01*
X33566547Y-14852380D01*
X33542738Y-14828571D01*
%TO.C,D7*%
X92205952Y-18376190D02*
X92205952Y-17876190D01*
X92325000Y-17876190D01*
X92396428Y-17900000D01*
X92444047Y-17947619D01*
X92467857Y-17995238D01*
X92491666Y-18090476D01*
X92491666Y-18161904D01*
X92467857Y-18257142D01*
X92444047Y-18304761D01*
X92396428Y-18352380D01*
X92325000Y-18376190D01*
X92205952Y-18376190D01*
X92658333Y-17876190D02*
X92991666Y-17876190D01*
X92777380Y-18376190D01*
%TO.C,C30*%
X66878571Y-35878571D02*
X66854761Y-35902380D01*
X66783333Y-35926190D01*
X66735714Y-35926190D01*
X66664285Y-35902380D01*
X66616666Y-35854761D01*
X66592857Y-35807142D01*
X66569047Y-35711904D01*
X66569047Y-35640476D01*
X66592857Y-35545238D01*
X66616666Y-35497619D01*
X66664285Y-35450000D01*
X66735714Y-35426190D01*
X66783333Y-35426190D01*
X66854761Y-35450000D01*
X66878571Y-35473809D01*
X67045238Y-35426190D02*
X67354761Y-35426190D01*
X67188095Y-35616666D01*
X67259523Y-35616666D01*
X67307142Y-35640476D01*
X67330952Y-35664285D01*
X67354761Y-35711904D01*
X67354761Y-35830952D01*
X67330952Y-35878571D01*
X67307142Y-35902380D01*
X67259523Y-35926190D01*
X67116666Y-35926190D01*
X67069047Y-35902380D01*
X67045238Y-35878571D01*
X67664285Y-35426190D02*
X67711904Y-35426190D01*
X67759523Y-35450000D01*
X67783333Y-35473809D01*
X67807142Y-35521428D01*
X67830952Y-35616666D01*
X67830952Y-35735714D01*
X67807142Y-35830952D01*
X67783333Y-35878571D01*
X67759523Y-35902380D01*
X67711904Y-35926190D01*
X67664285Y-35926190D01*
X67616666Y-35902380D01*
X67592857Y-35878571D01*
X67569047Y-35830952D01*
X67545238Y-35735714D01*
X67545238Y-35616666D01*
X67569047Y-35521428D01*
X67592857Y-35473809D01*
X67616666Y-35450000D01*
X67664285Y-35426190D01*
D10*
%TO.C,SW1*%
X3904761Y-40833333D02*
X3952380Y-40690476D01*
X3952380Y-40452380D01*
X3904761Y-40357142D01*
X3857142Y-40309523D01*
X3761904Y-40261904D01*
X3666666Y-40261904D01*
X3571428Y-40309523D01*
X3523809Y-40357142D01*
X3476190Y-40452380D01*
X3428571Y-40642857D01*
X3380952Y-40738095D01*
X3333333Y-40785714D01*
X3238095Y-40833333D01*
X3142857Y-40833333D01*
X3047619Y-40785714D01*
X3000000Y-40738095D01*
X2952380Y-40642857D01*
X2952380Y-40404761D01*
X3000000Y-40261904D01*
X2952380Y-39928571D02*
X3952380Y-39690476D01*
X3238095Y-39500000D01*
X3952380Y-39309523D01*
X2952380Y-39071428D01*
X3952380Y-38166666D02*
X3952380Y-38738095D01*
X3952380Y-38452380D02*
X2952380Y-38452380D01*
X3095238Y-38547619D01*
X3190476Y-38642857D01*
X3238095Y-38738095D01*
D11*
%TO.C,C10*%
X53878571Y-36653571D02*
X53854761Y-36677380D01*
X53783333Y-36701190D01*
X53735714Y-36701190D01*
X53664285Y-36677380D01*
X53616666Y-36629761D01*
X53592857Y-36582142D01*
X53569047Y-36486904D01*
X53569047Y-36415476D01*
X53592857Y-36320238D01*
X53616666Y-36272619D01*
X53664285Y-36225000D01*
X53735714Y-36201190D01*
X53783333Y-36201190D01*
X53854761Y-36225000D01*
X53878571Y-36248809D01*
X54354761Y-36701190D02*
X54069047Y-36701190D01*
X54211904Y-36701190D02*
X54211904Y-36201190D01*
X54164285Y-36272619D01*
X54116666Y-36320238D01*
X54069047Y-36344047D01*
X54664285Y-36201190D02*
X54711904Y-36201190D01*
X54759523Y-36225000D01*
X54783333Y-36248809D01*
X54807142Y-36296428D01*
X54830952Y-36391666D01*
X54830952Y-36510714D01*
X54807142Y-36605952D01*
X54783333Y-36653571D01*
X54759523Y-36677380D01*
X54711904Y-36701190D01*
X54664285Y-36701190D01*
X54616666Y-36677380D01*
X54592857Y-36653571D01*
X54569047Y-36605952D01*
X54545238Y-36510714D01*
X54545238Y-36391666D01*
X54569047Y-36296428D01*
X54592857Y-36248809D01*
X54616666Y-36225000D01*
X54664285Y-36201190D01*
%TO.C,TP13*%
X54567857Y-44127380D02*
X54639285Y-44151190D01*
X54758333Y-44151190D01*
X54805952Y-44127380D01*
X54829761Y-44103571D01*
X54853571Y-44055952D01*
X54853571Y-44008333D01*
X54829761Y-43960714D01*
X54805952Y-43936904D01*
X54758333Y-43913095D01*
X54663095Y-43889285D01*
X54615476Y-43865476D01*
X54591666Y-43841666D01*
X54567857Y-43794047D01*
X54567857Y-43746428D01*
X54591666Y-43698809D01*
X54615476Y-43675000D01*
X54663095Y-43651190D01*
X54782142Y-43651190D01*
X54853571Y-43675000D01*
X55067857Y-44151190D02*
X55067857Y-43651190D01*
X55186904Y-43651190D01*
X55258333Y-43675000D01*
X55305952Y-43722619D01*
X55329761Y-43770238D01*
X55353571Y-43865476D01*
X55353571Y-43936904D01*
X55329761Y-44032142D01*
X55305952Y-44079761D01*
X55258333Y-44127380D01*
X55186904Y-44151190D01*
X55067857Y-44151190D01*
X55544047Y-44008333D02*
X55782142Y-44008333D01*
X55496428Y-44151190D02*
X55663095Y-43651190D01*
X55829761Y-44151190D01*
D10*
%TO.C,U2*%
X15713095Y-18427380D02*
X15713095Y-19236904D01*
X15760714Y-19332142D01*
X15808333Y-19379761D01*
X15903571Y-19427380D01*
X16094047Y-19427380D01*
X16189285Y-19379761D01*
X16236904Y-19332142D01*
X16284523Y-19236904D01*
X16284523Y-18427380D01*
X16713095Y-18522619D02*
X16760714Y-18475000D01*
X16855952Y-18427380D01*
X17094047Y-18427380D01*
X17189285Y-18475000D01*
X17236904Y-18522619D01*
X17284523Y-18617857D01*
X17284523Y-18713095D01*
X17236904Y-18855952D01*
X16665476Y-19427380D01*
X17284523Y-19427380D01*
D11*
%TO.C,C9*%
X50694166Y-36653571D02*
X50670357Y-36677380D01*
X50598928Y-36701190D01*
X50551309Y-36701190D01*
X50479880Y-36677380D01*
X50432261Y-36629761D01*
X50408452Y-36582142D01*
X50384642Y-36486904D01*
X50384642Y-36415476D01*
X50408452Y-36320238D01*
X50432261Y-36272619D01*
X50479880Y-36225000D01*
X50551309Y-36201190D01*
X50598928Y-36201190D01*
X50670357Y-36225000D01*
X50694166Y-36248809D01*
X50932261Y-36701190D02*
X51027500Y-36701190D01*
X51075119Y-36677380D01*
X51098928Y-36653571D01*
X51146547Y-36582142D01*
X51170357Y-36486904D01*
X51170357Y-36296428D01*
X51146547Y-36248809D01*
X51122738Y-36225000D01*
X51075119Y-36201190D01*
X50979880Y-36201190D01*
X50932261Y-36225000D01*
X50908452Y-36248809D01*
X50884642Y-36296428D01*
X50884642Y-36415476D01*
X50908452Y-36463095D01*
X50932261Y-36486904D01*
X50979880Y-36510714D01*
X51075119Y-36510714D01*
X51122738Y-36486904D01*
X51146547Y-36463095D01*
X51170357Y-36415476D01*
%TO.C,C22*%
X59278571Y-2103571D02*
X59254761Y-2127380D01*
X59183333Y-2151190D01*
X59135714Y-2151190D01*
X59064285Y-2127380D01*
X59016666Y-2079761D01*
X58992857Y-2032142D01*
X58969047Y-1936904D01*
X58969047Y-1865476D01*
X58992857Y-1770238D01*
X59016666Y-1722619D01*
X59064285Y-1675000D01*
X59135714Y-1651190D01*
X59183333Y-1651190D01*
X59254761Y-1675000D01*
X59278571Y-1698809D01*
X59469047Y-1698809D02*
X59492857Y-1675000D01*
X59540476Y-1651190D01*
X59659523Y-1651190D01*
X59707142Y-1675000D01*
X59730952Y-1698809D01*
X59754761Y-1746428D01*
X59754761Y-1794047D01*
X59730952Y-1865476D01*
X59445238Y-2151190D01*
X59754761Y-2151190D01*
X59945238Y-1698809D02*
X59969047Y-1675000D01*
X60016666Y-1651190D01*
X60135714Y-1651190D01*
X60183333Y-1675000D01*
X60207142Y-1698809D01*
X60230952Y-1746428D01*
X60230952Y-1794047D01*
X60207142Y-1865476D01*
X59921428Y-2151190D01*
X60230952Y-2151190D01*
%TO.C,R11*%
X30826190Y-20921428D02*
X30588095Y-21088095D01*
X30826190Y-21207142D02*
X30326190Y-21207142D01*
X30326190Y-21016666D01*
X30350000Y-20969047D01*
X30373809Y-20945238D01*
X30421428Y-20921428D01*
X30492857Y-20921428D01*
X30540476Y-20945238D01*
X30564285Y-20969047D01*
X30588095Y-21016666D01*
X30588095Y-21207142D01*
X30826190Y-20445238D02*
X30826190Y-20730952D01*
X30826190Y-20588095D02*
X30326190Y-20588095D01*
X30397619Y-20635714D01*
X30445238Y-20683333D01*
X30469047Y-20730952D01*
X30826190Y-19969047D02*
X30826190Y-20254761D01*
X30826190Y-20111904D02*
X30326190Y-20111904D01*
X30397619Y-20159523D01*
X30445238Y-20207142D01*
X30469047Y-20254761D01*
%TO.C,R24*%
X87478571Y-18376190D02*
X87311904Y-18138095D01*
X87192857Y-18376190D02*
X87192857Y-17876190D01*
X87383333Y-17876190D01*
X87430952Y-17900000D01*
X87454761Y-17923809D01*
X87478571Y-17971428D01*
X87478571Y-18042857D01*
X87454761Y-18090476D01*
X87430952Y-18114285D01*
X87383333Y-18138095D01*
X87192857Y-18138095D01*
X87669047Y-17923809D02*
X87692857Y-17900000D01*
X87740476Y-17876190D01*
X87859523Y-17876190D01*
X87907142Y-17900000D01*
X87930952Y-17923809D01*
X87954761Y-17971428D01*
X87954761Y-18019047D01*
X87930952Y-18090476D01*
X87645238Y-18376190D01*
X87954761Y-18376190D01*
X88383333Y-18042857D02*
X88383333Y-18376190D01*
X88264285Y-17852380D02*
X88145238Y-18209523D01*
X88454761Y-18209523D01*
D12*
%TO.C,IC6*%
X67020238Y-14624523D02*
X67020238Y-13354523D01*
X68350714Y-14503571D02*
X68290238Y-14564047D01*
X68108809Y-14624523D01*
X67987857Y-14624523D01*
X67806428Y-14564047D01*
X67685476Y-14443095D01*
X67625000Y-14322142D01*
X67564523Y-14080238D01*
X67564523Y-13898809D01*
X67625000Y-13656904D01*
X67685476Y-13535952D01*
X67806428Y-13415000D01*
X67987857Y-13354523D01*
X68108809Y-13354523D01*
X68290238Y-13415000D01*
X68350714Y-13475476D01*
X69439285Y-13354523D02*
X69197380Y-13354523D01*
X69076428Y-13415000D01*
X69015952Y-13475476D01*
X68895000Y-13656904D01*
X68834523Y-13898809D01*
X68834523Y-14382619D01*
X68895000Y-14503571D01*
X68955476Y-14564047D01*
X69076428Y-14624523D01*
X69318333Y-14624523D01*
X69439285Y-14564047D01*
X69499761Y-14503571D01*
X69560238Y-14382619D01*
X69560238Y-14080238D01*
X69499761Y-13959285D01*
X69439285Y-13898809D01*
X69318333Y-13838333D01*
X69076428Y-13838333D01*
X68955476Y-13898809D01*
X68895000Y-13959285D01*
X68834523Y-14080238D01*
D10*
%TO.C,U3*%
X23963095Y-23002380D02*
X23963095Y-23811904D01*
X24010714Y-23907142D01*
X24058333Y-23954761D01*
X24153571Y-24002380D01*
X24344047Y-24002380D01*
X24439285Y-23954761D01*
X24486904Y-23907142D01*
X24534523Y-23811904D01*
X24534523Y-23002380D01*
X24915476Y-23002380D02*
X25534523Y-23002380D01*
X25201190Y-23383333D01*
X25344047Y-23383333D01*
X25439285Y-23430952D01*
X25486904Y-23478571D01*
X25534523Y-23573809D01*
X25534523Y-23811904D01*
X25486904Y-23907142D01*
X25439285Y-23954761D01*
X25344047Y-24002380D01*
X25058333Y-24002380D01*
X24963095Y-23954761D01*
X24915476Y-23907142D01*
X28238095Y-46966666D02*
X28714285Y-46966666D01*
X28142857Y-47252380D02*
X28476190Y-46252380D01*
X28809523Y-47252380D01*
X29142857Y-46585714D02*
X29142857Y-47252380D01*
X29142857Y-46680952D02*
X29190476Y-46633333D01*
X29285714Y-46585714D01*
X29428571Y-46585714D01*
X29523809Y-46633333D01*
X29571428Y-46728571D01*
X29571428Y-47252380D01*
X29904761Y-46585714D02*
X30285714Y-46585714D01*
X30047619Y-46252380D02*
X30047619Y-47109523D01*
X30095238Y-47204761D01*
X30190476Y-47252380D01*
X30285714Y-47252380D01*
X31000000Y-47204761D02*
X30904761Y-47252380D01*
X30714285Y-47252380D01*
X30619047Y-47204761D01*
X30571428Y-47109523D01*
X30571428Y-46728571D01*
X30619047Y-46633333D01*
X30714285Y-46585714D01*
X30904761Y-46585714D01*
X31000000Y-46633333D01*
X31047619Y-46728571D01*
X31047619Y-46823809D01*
X30571428Y-46919047D01*
X31476190Y-46585714D02*
X31476190Y-47252380D01*
X31476190Y-46680952D02*
X31523809Y-46633333D01*
X31619047Y-46585714D01*
X31761904Y-46585714D01*
X31857142Y-46633333D01*
X31904761Y-46728571D01*
X31904761Y-47252380D01*
X32380952Y-46585714D02*
X32380952Y-47252380D01*
X32380952Y-46680952D02*
X32428571Y-46633333D01*
X32523809Y-46585714D01*
X32666666Y-46585714D01*
X32761904Y-46633333D01*
X32809523Y-46728571D01*
X32809523Y-47252380D01*
X33714285Y-47252380D02*
X33714285Y-46728571D01*
X33666666Y-46633333D01*
X33571428Y-46585714D01*
X33380952Y-46585714D01*
X33285714Y-46633333D01*
X33714285Y-47204761D02*
X33619047Y-47252380D01*
X33380952Y-47252380D01*
X33285714Y-47204761D01*
X33238095Y-47109523D01*
X33238095Y-47014285D01*
X33285714Y-46919047D01*
X33380952Y-46871428D01*
X33619047Y-46871428D01*
X33714285Y-46823809D01*
X34904761Y-46966666D02*
X35380952Y-46966666D01*
X34809523Y-47252380D02*
X35142857Y-46252380D01*
X35476190Y-47252380D01*
X35809523Y-47252380D02*
X35809523Y-46585714D01*
X35809523Y-46776190D02*
X35857142Y-46680952D01*
X35904761Y-46633333D01*
X36000000Y-46585714D01*
X36095238Y-46585714D01*
X36809523Y-47204761D02*
X36714285Y-47252380D01*
X36523809Y-47252380D01*
X36428571Y-47204761D01*
X36380952Y-47109523D01*
X36380952Y-46728571D01*
X36428571Y-46633333D01*
X36523809Y-46585714D01*
X36714285Y-46585714D01*
X36809523Y-46633333D01*
X36857142Y-46728571D01*
X36857142Y-46823809D01*
X36380952Y-46919047D01*
X37714285Y-47252380D02*
X37714285Y-46728571D01*
X37666666Y-46633333D01*
X37571428Y-46585714D01*
X37380952Y-46585714D01*
X37285714Y-46633333D01*
X37714285Y-47204761D02*
X37619047Y-47252380D01*
X37380952Y-47252380D01*
X37285714Y-47204761D01*
X37238095Y-47109523D01*
X37238095Y-47014285D01*
X37285714Y-46919047D01*
X37380952Y-46871428D01*
X37619047Y-46871428D01*
X37714285Y-46823809D01*
D11*
%TO.C,R19*%
X55153571Y-9076190D02*
X54986904Y-8838095D01*
X54867857Y-9076190D02*
X54867857Y-8576190D01*
X55058333Y-8576190D01*
X55105952Y-8600000D01*
X55129761Y-8623809D01*
X55153571Y-8671428D01*
X55153571Y-8742857D01*
X55129761Y-8790476D01*
X55105952Y-8814285D01*
X55058333Y-8838095D01*
X54867857Y-8838095D01*
X55629761Y-9076190D02*
X55344047Y-9076190D01*
X55486904Y-9076190D02*
X55486904Y-8576190D01*
X55439285Y-8647619D01*
X55391666Y-8695238D01*
X55344047Y-8719047D01*
X55867857Y-9076190D02*
X55963095Y-9076190D01*
X56010714Y-9052380D01*
X56034523Y-9028571D01*
X56082142Y-8957142D01*
X56105952Y-8861904D01*
X56105952Y-8671428D01*
X56082142Y-8623809D01*
X56058333Y-8600000D01*
X56010714Y-8576190D01*
X55915476Y-8576190D01*
X55867857Y-8600000D01*
X55844047Y-8623809D01*
X55820238Y-8671428D01*
X55820238Y-8790476D01*
X55844047Y-8838095D01*
X55867857Y-8861904D01*
X55915476Y-8885714D01*
X56010714Y-8885714D01*
X56058333Y-8861904D01*
X56082142Y-8838095D01*
X56105952Y-8790476D01*
%TO.C,R20*%
X79953571Y-3976190D02*
X79786904Y-3738095D01*
X79667857Y-3976190D02*
X79667857Y-3476190D01*
X79858333Y-3476190D01*
X79905952Y-3500000D01*
X79929761Y-3523809D01*
X79953571Y-3571428D01*
X79953571Y-3642857D01*
X79929761Y-3690476D01*
X79905952Y-3714285D01*
X79858333Y-3738095D01*
X79667857Y-3738095D01*
X80144047Y-3523809D02*
X80167857Y-3500000D01*
X80215476Y-3476190D01*
X80334523Y-3476190D01*
X80382142Y-3500000D01*
X80405952Y-3523809D01*
X80429761Y-3571428D01*
X80429761Y-3619047D01*
X80405952Y-3690476D01*
X80120238Y-3976190D01*
X80429761Y-3976190D01*
X80739285Y-3476190D02*
X80786904Y-3476190D01*
X80834523Y-3500000D01*
X80858333Y-3523809D01*
X80882142Y-3571428D01*
X80905952Y-3666666D01*
X80905952Y-3785714D01*
X80882142Y-3880952D01*
X80858333Y-3928571D01*
X80834523Y-3952380D01*
X80786904Y-3976190D01*
X80739285Y-3976190D01*
X80691666Y-3952380D01*
X80667857Y-3928571D01*
X80644047Y-3880952D01*
X80620238Y-3785714D01*
X80620238Y-3666666D01*
X80644047Y-3571428D01*
X80667857Y-3523809D01*
X80691666Y-3500000D01*
X80739285Y-3476190D01*
%TO.C,C16*%
X46171071Y-16003571D02*
X46147261Y-16027380D01*
X46075833Y-16051190D01*
X46028214Y-16051190D01*
X45956785Y-16027380D01*
X45909166Y-15979761D01*
X45885357Y-15932142D01*
X45861547Y-15836904D01*
X45861547Y-15765476D01*
X45885357Y-15670238D01*
X45909166Y-15622619D01*
X45956785Y-15575000D01*
X46028214Y-15551190D01*
X46075833Y-15551190D01*
X46147261Y-15575000D01*
X46171071Y-15598809D01*
X46647261Y-16051190D02*
X46361547Y-16051190D01*
X46504404Y-16051190D02*
X46504404Y-15551190D01*
X46456785Y-15622619D01*
X46409166Y-15670238D01*
X46361547Y-15694047D01*
X47075833Y-15551190D02*
X46980595Y-15551190D01*
X46932976Y-15575000D01*
X46909166Y-15598809D01*
X46861547Y-15670238D01*
X46837738Y-15765476D01*
X46837738Y-15955952D01*
X46861547Y-16003571D01*
X46885357Y-16027380D01*
X46932976Y-16051190D01*
X47028214Y-16051190D01*
X47075833Y-16027380D01*
X47099642Y-16003571D01*
X47123452Y-15955952D01*
X47123452Y-15836904D01*
X47099642Y-15789285D01*
X47075833Y-15765476D01*
X47028214Y-15741666D01*
X46932976Y-15741666D01*
X46885357Y-15765476D01*
X46861547Y-15789285D01*
X46837738Y-15836904D01*
D10*
%TO.C,H1*%
X6338095Y-3402380D02*
X6338095Y-2402380D01*
X6338095Y-2878571D02*
X6909523Y-2878571D01*
X6909523Y-3402380D02*
X6909523Y-2402380D01*
X7909523Y-3402380D02*
X7338095Y-3402380D01*
X7623809Y-3402380D02*
X7623809Y-2402380D01*
X7528571Y-2545238D01*
X7433333Y-2640476D01*
X7338095Y-2688095D01*
D11*
%TO.C,C14*%
X28003571Y-17878571D02*
X27979761Y-17902380D01*
X27908333Y-17926190D01*
X27860714Y-17926190D01*
X27789285Y-17902380D01*
X27741666Y-17854761D01*
X27717857Y-17807142D01*
X27694047Y-17711904D01*
X27694047Y-17640476D01*
X27717857Y-17545238D01*
X27741666Y-17497619D01*
X27789285Y-17450000D01*
X27860714Y-17426190D01*
X27908333Y-17426190D01*
X27979761Y-17450000D01*
X28003571Y-17473809D01*
X28479761Y-17926190D02*
X28194047Y-17926190D01*
X28336904Y-17926190D02*
X28336904Y-17426190D01*
X28289285Y-17497619D01*
X28241666Y-17545238D01*
X28194047Y-17569047D01*
X28908333Y-17592857D02*
X28908333Y-17926190D01*
X28789285Y-17402380D02*
X28670238Y-17759523D01*
X28979761Y-17759523D01*
%TO.C,R23*%
X87318571Y-39826190D02*
X87151904Y-39588095D01*
X87032857Y-39826190D02*
X87032857Y-39326190D01*
X87223333Y-39326190D01*
X87270952Y-39350000D01*
X87294761Y-39373809D01*
X87318571Y-39421428D01*
X87318571Y-39492857D01*
X87294761Y-39540476D01*
X87270952Y-39564285D01*
X87223333Y-39588095D01*
X87032857Y-39588095D01*
X87509047Y-39373809D02*
X87532857Y-39350000D01*
X87580476Y-39326190D01*
X87699523Y-39326190D01*
X87747142Y-39350000D01*
X87770952Y-39373809D01*
X87794761Y-39421428D01*
X87794761Y-39469047D01*
X87770952Y-39540476D01*
X87485238Y-39826190D01*
X87794761Y-39826190D01*
X87961428Y-39326190D02*
X88270952Y-39326190D01*
X88104285Y-39516666D01*
X88175714Y-39516666D01*
X88223333Y-39540476D01*
X88247142Y-39564285D01*
X88270952Y-39611904D01*
X88270952Y-39730952D01*
X88247142Y-39778571D01*
X88223333Y-39802380D01*
X88175714Y-39826190D01*
X88032857Y-39826190D01*
X87985238Y-39802380D01*
X87961428Y-39778571D01*
%TO.C,C24*%
X89528571Y-11003571D02*
X89504761Y-11027380D01*
X89433333Y-11051190D01*
X89385714Y-11051190D01*
X89314285Y-11027380D01*
X89266666Y-10979761D01*
X89242857Y-10932142D01*
X89219047Y-10836904D01*
X89219047Y-10765476D01*
X89242857Y-10670238D01*
X89266666Y-10622619D01*
X89314285Y-10575000D01*
X89385714Y-10551190D01*
X89433333Y-10551190D01*
X89504761Y-10575000D01*
X89528571Y-10598809D01*
X89719047Y-10598809D02*
X89742857Y-10575000D01*
X89790476Y-10551190D01*
X89909523Y-10551190D01*
X89957142Y-10575000D01*
X89980952Y-10598809D01*
X90004761Y-10646428D01*
X90004761Y-10694047D01*
X89980952Y-10765476D01*
X89695238Y-11051190D01*
X90004761Y-11051190D01*
X90433333Y-10717857D02*
X90433333Y-11051190D01*
X90314285Y-10527380D02*
X90195238Y-10884523D01*
X90504761Y-10884523D01*
%TO.C,C3*%
X56416666Y-21333571D02*
X56392857Y-21357380D01*
X56321428Y-21381190D01*
X56273809Y-21381190D01*
X56202380Y-21357380D01*
X56154761Y-21309761D01*
X56130952Y-21262142D01*
X56107142Y-21166904D01*
X56107142Y-21095476D01*
X56130952Y-21000238D01*
X56154761Y-20952619D01*
X56202380Y-20905000D01*
X56273809Y-20881190D01*
X56321428Y-20881190D01*
X56392857Y-20905000D01*
X56416666Y-20928809D01*
X56583333Y-20881190D02*
X56892857Y-20881190D01*
X56726190Y-21071666D01*
X56797619Y-21071666D01*
X56845238Y-21095476D01*
X56869047Y-21119285D01*
X56892857Y-21166904D01*
X56892857Y-21285952D01*
X56869047Y-21333571D01*
X56845238Y-21357380D01*
X56797619Y-21381190D01*
X56654761Y-21381190D01*
X56607142Y-21357380D01*
X56583333Y-21333571D01*
%TO.C,C21*%
X25103571Y-1621428D02*
X25127380Y-1645238D01*
X25151190Y-1716666D01*
X25151190Y-1764285D01*
X25127380Y-1835714D01*
X25079761Y-1883333D01*
X25032142Y-1907142D01*
X24936904Y-1930952D01*
X24865476Y-1930952D01*
X24770238Y-1907142D01*
X24722619Y-1883333D01*
X24675000Y-1835714D01*
X24651190Y-1764285D01*
X24651190Y-1716666D01*
X24675000Y-1645238D01*
X24698809Y-1621428D01*
X24698809Y-1430952D02*
X24675000Y-1407142D01*
X24651190Y-1359523D01*
X24651190Y-1240476D01*
X24675000Y-1192857D01*
X24698809Y-1169047D01*
X24746428Y-1145238D01*
X24794047Y-1145238D01*
X24865476Y-1169047D01*
X25151190Y-1454761D01*
X25151190Y-1145238D01*
X25151190Y-669047D02*
X25151190Y-954761D01*
X25151190Y-811904D02*
X24651190Y-811904D01*
X24722619Y-859523D01*
X24770238Y-907142D01*
X24794047Y-954761D01*
%TO.C,TP12*%
X56982142Y-44177380D02*
X57053571Y-44201190D01*
X57172619Y-44201190D01*
X57220238Y-44177380D01*
X57244047Y-44153571D01*
X57267857Y-44105952D01*
X57267857Y-44058333D01*
X57244047Y-44010714D01*
X57220238Y-43986904D01*
X57172619Y-43963095D01*
X57077380Y-43939285D01*
X57029761Y-43915476D01*
X57005952Y-43891666D01*
X56982142Y-43844047D01*
X56982142Y-43796428D01*
X57005952Y-43748809D01*
X57029761Y-43725000D01*
X57077380Y-43701190D01*
X57196428Y-43701190D01*
X57267857Y-43725000D01*
X57767857Y-44153571D02*
X57744047Y-44177380D01*
X57672619Y-44201190D01*
X57625000Y-44201190D01*
X57553571Y-44177380D01*
X57505952Y-44129761D01*
X57482142Y-44082142D01*
X57458333Y-43986904D01*
X57458333Y-43915476D01*
X57482142Y-43820238D01*
X57505952Y-43772619D01*
X57553571Y-43725000D01*
X57625000Y-43701190D01*
X57672619Y-43701190D01*
X57744047Y-43725000D01*
X57767857Y-43748809D01*
X58220238Y-44201190D02*
X57982142Y-44201190D01*
X57982142Y-43701190D01*
X58386904Y-44201190D02*
X58386904Y-43701190D01*
X58672619Y-44201190D02*
X58458333Y-43915476D01*
X58672619Y-43701190D02*
X58386904Y-43986904D01*
X58767857Y-44248809D02*
X59148809Y-44248809D01*
X59267857Y-44201190D02*
X59267857Y-43701190D01*
X59482142Y-43748809D02*
X59505952Y-43725000D01*
X59553571Y-43701190D01*
X59672619Y-43701190D01*
X59720238Y-43725000D01*
X59744047Y-43748809D01*
X59767857Y-43796428D01*
X59767857Y-43844047D01*
X59744047Y-43915476D01*
X59458333Y-44201190D01*
X59767857Y-44201190D01*
X60267857Y-44153571D02*
X60244047Y-44177380D01*
X60172619Y-44201190D01*
X60125000Y-44201190D01*
X60053571Y-44177380D01*
X60005952Y-44129761D01*
X59982142Y-44082142D01*
X59958333Y-43986904D01*
X59958333Y-43915476D01*
X59982142Y-43820238D01*
X60005952Y-43772619D01*
X60053571Y-43725000D01*
X60125000Y-43701190D01*
X60172619Y-43701190D01*
X60244047Y-43725000D01*
X60267857Y-43748809D01*
D10*
%TO.C,H2*%
X97563095Y-7102380D02*
X97563095Y-6102380D01*
X97563095Y-6578571D02*
X98134523Y-6578571D01*
X98134523Y-7102380D02*
X98134523Y-6102380D01*
X98563095Y-6197619D02*
X98610714Y-6150000D01*
X98705952Y-6102380D01*
X98944047Y-6102380D01*
X99039285Y-6150000D01*
X99086904Y-6197619D01*
X99134523Y-6292857D01*
X99134523Y-6388095D01*
X99086904Y-6530952D01*
X98515476Y-7102380D01*
X99134523Y-7102380D01*
D11*
%TO.C,D2*%
X41780952Y-8301190D02*
X41780952Y-7801190D01*
X41900000Y-7801190D01*
X41971428Y-7825000D01*
X42019047Y-7872619D01*
X42042857Y-7920238D01*
X42066666Y-8015476D01*
X42066666Y-8086904D01*
X42042857Y-8182142D01*
X42019047Y-8229761D01*
X41971428Y-8277380D01*
X41900000Y-8301190D01*
X41780952Y-8301190D01*
X42257142Y-7848809D02*
X42280952Y-7825000D01*
X42328571Y-7801190D01*
X42447619Y-7801190D01*
X42495238Y-7825000D01*
X42519047Y-7848809D01*
X42542857Y-7896428D01*
X42542857Y-7944047D01*
X42519047Y-8015476D01*
X42233333Y-8301190D01*
X42542857Y-8301190D01*
%TO.C,U8*%
X73719047Y-6176190D02*
X73719047Y-6580952D01*
X73742857Y-6628571D01*
X73766666Y-6652380D01*
X73814285Y-6676190D01*
X73909523Y-6676190D01*
X73957142Y-6652380D01*
X73980952Y-6628571D01*
X74004761Y-6580952D01*
X74004761Y-6176190D01*
X74314285Y-6390476D02*
X74266666Y-6366666D01*
X74242857Y-6342857D01*
X74219047Y-6295238D01*
X74219047Y-6271428D01*
X74242857Y-6223809D01*
X74266666Y-6200000D01*
X74314285Y-6176190D01*
X74409523Y-6176190D01*
X74457142Y-6200000D01*
X74480952Y-6223809D01*
X74504761Y-6271428D01*
X74504761Y-6295238D01*
X74480952Y-6342857D01*
X74457142Y-6366666D01*
X74409523Y-6390476D01*
X74314285Y-6390476D01*
X74266666Y-6414285D01*
X74242857Y-6438095D01*
X74219047Y-6485714D01*
X74219047Y-6580952D01*
X74242857Y-6628571D01*
X74266666Y-6652380D01*
X74314285Y-6676190D01*
X74409523Y-6676190D01*
X74457142Y-6652380D01*
X74480952Y-6628571D01*
X74504761Y-6580952D01*
X74504761Y-6485714D01*
X74480952Y-6438095D01*
X74457142Y-6414285D01*
X74409523Y-6390476D01*
%TO.C,R22*%
X86453571Y-11051190D02*
X86286904Y-10813095D01*
X86167857Y-11051190D02*
X86167857Y-10551190D01*
X86358333Y-10551190D01*
X86405952Y-10575000D01*
X86429761Y-10598809D01*
X86453571Y-10646428D01*
X86453571Y-10717857D01*
X86429761Y-10765476D01*
X86405952Y-10789285D01*
X86358333Y-10813095D01*
X86167857Y-10813095D01*
X86644047Y-10598809D02*
X86667857Y-10575000D01*
X86715476Y-10551190D01*
X86834523Y-10551190D01*
X86882142Y-10575000D01*
X86905952Y-10598809D01*
X86929761Y-10646428D01*
X86929761Y-10694047D01*
X86905952Y-10765476D01*
X86620238Y-11051190D01*
X86929761Y-11051190D01*
X87120238Y-10598809D02*
X87144047Y-10575000D01*
X87191666Y-10551190D01*
X87310714Y-10551190D01*
X87358333Y-10575000D01*
X87382142Y-10598809D01*
X87405952Y-10646428D01*
X87405952Y-10694047D01*
X87382142Y-10765476D01*
X87096428Y-11051190D01*
X87405952Y-11051190D01*
%TO.C,C11*%
X57326071Y-36653571D02*
X57302261Y-36677380D01*
X57230833Y-36701190D01*
X57183214Y-36701190D01*
X57111785Y-36677380D01*
X57064166Y-36629761D01*
X57040357Y-36582142D01*
X57016547Y-36486904D01*
X57016547Y-36415476D01*
X57040357Y-36320238D01*
X57064166Y-36272619D01*
X57111785Y-36225000D01*
X57183214Y-36201190D01*
X57230833Y-36201190D01*
X57302261Y-36225000D01*
X57326071Y-36248809D01*
X57802261Y-36701190D02*
X57516547Y-36701190D01*
X57659404Y-36701190D02*
X57659404Y-36201190D01*
X57611785Y-36272619D01*
X57564166Y-36320238D01*
X57516547Y-36344047D01*
X58278452Y-36701190D02*
X57992738Y-36701190D01*
X58135595Y-36701190D02*
X58135595Y-36201190D01*
X58087976Y-36272619D01*
X58040357Y-36320238D01*
X57992738Y-36344047D01*
D12*
%TO.C,IC7*%
X65460238Y-30524523D02*
X65460238Y-29254523D01*
X66790714Y-30403571D02*
X66730238Y-30464047D01*
X66548809Y-30524523D01*
X66427857Y-30524523D01*
X66246428Y-30464047D01*
X66125476Y-30343095D01*
X66065000Y-30222142D01*
X66004523Y-29980238D01*
X66004523Y-29798809D01*
X66065000Y-29556904D01*
X66125476Y-29435952D01*
X66246428Y-29315000D01*
X66427857Y-29254523D01*
X66548809Y-29254523D01*
X66730238Y-29315000D01*
X66790714Y-29375476D01*
X67214047Y-29254523D02*
X68060714Y-29254523D01*
X67516428Y-30524523D01*
D10*
%TO.C,C4*%
X3383333Y-34007142D02*
X3335714Y-34054761D01*
X3192857Y-34102380D01*
X3097619Y-34102380D01*
X2954761Y-34054761D01*
X2859523Y-33959523D01*
X2811904Y-33864285D01*
X2764285Y-33673809D01*
X2764285Y-33530952D01*
X2811904Y-33340476D01*
X2859523Y-33245238D01*
X2954761Y-33150000D01*
X3097619Y-33102380D01*
X3192857Y-33102380D01*
X3335714Y-33150000D01*
X3383333Y-33197619D01*
X4240476Y-33435714D02*
X4240476Y-34102380D01*
X4002380Y-33054761D02*
X3764285Y-33769047D01*
X4383333Y-33769047D01*
D11*
%TO.C,R14*%
X46828571Y-9101190D02*
X46661904Y-8863095D01*
X46542857Y-9101190D02*
X46542857Y-8601190D01*
X46733333Y-8601190D01*
X46780952Y-8625000D01*
X46804761Y-8648809D01*
X46828571Y-8696428D01*
X46828571Y-8767857D01*
X46804761Y-8815476D01*
X46780952Y-8839285D01*
X46733333Y-8863095D01*
X46542857Y-8863095D01*
X47304761Y-9101190D02*
X47019047Y-9101190D01*
X47161904Y-9101190D02*
X47161904Y-8601190D01*
X47114285Y-8672619D01*
X47066666Y-8720238D01*
X47019047Y-8744047D01*
X47733333Y-8767857D02*
X47733333Y-9101190D01*
X47614285Y-8577380D02*
X47495238Y-8934523D01*
X47804761Y-8934523D01*
%TO.C,C19*%
X23203571Y-6096428D02*
X23227380Y-6120238D01*
X23251190Y-6191666D01*
X23251190Y-6239285D01*
X23227380Y-6310714D01*
X23179761Y-6358333D01*
X23132142Y-6382142D01*
X23036904Y-6405952D01*
X22965476Y-6405952D01*
X22870238Y-6382142D01*
X22822619Y-6358333D01*
X22775000Y-6310714D01*
X22751190Y-6239285D01*
X22751190Y-6191666D01*
X22775000Y-6120238D01*
X22798809Y-6096428D01*
X23251190Y-5620238D02*
X23251190Y-5905952D01*
X23251190Y-5763095D02*
X22751190Y-5763095D01*
X22822619Y-5810714D01*
X22870238Y-5858333D01*
X22894047Y-5905952D01*
X23251190Y-5382142D02*
X23251190Y-5286904D01*
X23227380Y-5239285D01*
X23203571Y-5215476D01*
X23132142Y-5167857D01*
X23036904Y-5144047D01*
X22846428Y-5144047D01*
X22798809Y-5167857D01*
X22775000Y-5191666D01*
X22751190Y-5239285D01*
X22751190Y-5334523D01*
X22775000Y-5382142D01*
X22798809Y-5405952D01*
X22846428Y-5429761D01*
X22965476Y-5429761D01*
X23013095Y-5405952D01*
X23036904Y-5382142D01*
X23060714Y-5334523D01*
X23060714Y-5239285D01*
X23036904Y-5191666D01*
X23013095Y-5167857D01*
X22965476Y-5144047D01*
%TO.C,R13*%
X44278571Y-8951190D02*
X44111904Y-8713095D01*
X43992857Y-8951190D02*
X43992857Y-8451190D01*
X44183333Y-8451190D01*
X44230952Y-8475000D01*
X44254761Y-8498809D01*
X44278571Y-8546428D01*
X44278571Y-8617857D01*
X44254761Y-8665476D01*
X44230952Y-8689285D01*
X44183333Y-8713095D01*
X43992857Y-8713095D01*
X44754761Y-8951190D02*
X44469047Y-8951190D01*
X44611904Y-8951190D02*
X44611904Y-8451190D01*
X44564285Y-8522619D01*
X44516666Y-8570238D01*
X44469047Y-8594047D01*
X44921428Y-8451190D02*
X45230952Y-8451190D01*
X45064285Y-8641666D01*
X45135714Y-8641666D01*
X45183333Y-8665476D01*
X45207142Y-8689285D01*
X45230952Y-8736904D01*
X45230952Y-8855952D01*
X45207142Y-8903571D01*
X45183333Y-8927380D01*
X45135714Y-8951190D01*
X44992857Y-8951190D01*
X44945238Y-8927380D01*
X44921428Y-8903571D01*
%TO.C,TP6*%
X79720000Y-28758333D02*
X79958095Y-28758333D01*
X79672380Y-28901190D02*
X79839047Y-28401190D01*
X80005714Y-28901190D01*
X80172380Y-28901190D02*
X80172380Y-28401190D01*
X80458095Y-28901190D01*
X80458095Y-28401190D01*
X80696190Y-28901190D02*
X80696190Y-28401190D01*
X81220000Y-28853571D02*
X81196190Y-28877380D01*
X81124761Y-28901190D01*
X81077142Y-28901190D01*
X81005714Y-28877380D01*
X80958095Y-28829761D01*
X80934285Y-28782142D01*
X80910476Y-28686904D01*
X80910476Y-28615476D01*
X80934285Y-28520238D01*
X80958095Y-28472619D01*
X81005714Y-28425000D01*
X81077142Y-28401190D01*
X81124761Y-28401190D01*
X81196190Y-28425000D01*
X81220000Y-28448809D01*
X81434285Y-28901190D02*
X81434285Y-28401190D01*
X81434285Y-28639285D02*
X81720000Y-28639285D01*
X81720000Y-28901190D02*
X81720000Y-28401190D01*
X81934285Y-28448809D02*
X81958095Y-28425000D01*
X82005714Y-28401190D01*
X82124761Y-28401190D01*
X82172380Y-28425000D01*
X82196190Y-28448809D01*
X82220000Y-28496428D01*
X82220000Y-28544047D01*
X82196190Y-28615476D01*
X81910476Y-28901190D01*
X82220000Y-28901190D01*
%TO.C,C12*%
X44428571Y-22528571D02*
X44404761Y-22552380D01*
X44333333Y-22576190D01*
X44285714Y-22576190D01*
X44214285Y-22552380D01*
X44166666Y-22504761D01*
X44142857Y-22457142D01*
X44119047Y-22361904D01*
X44119047Y-22290476D01*
X44142857Y-22195238D01*
X44166666Y-22147619D01*
X44214285Y-22100000D01*
X44285714Y-22076190D01*
X44333333Y-22076190D01*
X44404761Y-22100000D01*
X44428571Y-22123809D01*
X44904761Y-22576190D02*
X44619047Y-22576190D01*
X44761904Y-22576190D02*
X44761904Y-22076190D01*
X44714285Y-22147619D01*
X44666666Y-22195238D01*
X44619047Y-22219047D01*
X45095238Y-22123809D02*
X45119047Y-22100000D01*
X45166666Y-22076190D01*
X45285714Y-22076190D01*
X45333333Y-22100000D01*
X45357142Y-22123809D01*
X45380952Y-22171428D01*
X45380952Y-22219047D01*
X45357142Y-22290476D01*
X45071428Y-22576190D01*
X45380952Y-22576190D01*
%TO.C,TP8*%
X76232142Y-28733333D02*
X76470238Y-28733333D01*
X76184523Y-28876190D02*
X76351190Y-28376190D01*
X76517857Y-28876190D01*
X76684523Y-28876190D02*
X76684523Y-28376190D01*
X76970238Y-28876190D01*
X76970238Y-28376190D01*
X77303571Y-28376190D02*
X77398809Y-28376190D01*
X77446428Y-28400000D01*
X77494047Y-28447619D01*
X77517857Y-28542857D01*
X77517857Y-28709523D01*
X77494047Y-28804761D01*
X77446428Y-28852380D01*
X77398809Y-28876190D01*
X77303571Y-28876190D01*
X77255952Y-28852380D01*
X77208333Y-28804761D01*
X77184523Y-28709523D01*
X77184523Y-28542857D01*
X77208333Y-28447619D01*
X77255952Y-28400000D01*
X77303571Y-28376190D01*
X78017857Y-28828571D02*
X77994047Y-28852380D01*
X77922619Y-28876190D01*
X77875000Y-28876190D01*
X77803571Y-28852380D01*
X77755952Y-28804761D01*
X77732142Y-28757142D01*
X77708333Y-28661904D01*
X77708333Y-28590476D01*
X77732142Y-28495238D01*
X77755952Y-28447619D01*
X77803571Y-28400000D01*
X77875000Y-28376190D01*
X77922619Y-28376190D01*
X77994047Y-28400000D01*
X78017857Y-28423809D01*
X78232142Y-28876190D02*
X78232142Y-28376190D01*
X78232142Y-28614285D02*
X78517857Y-28614285D01*
X78517857Y-28876190D02*
X78517857Y-28376190D01*
X78732142Y-28423809D02*
X78755952Y-28400000D01*
X78803571Y-28376190D01*
X78922619Y-28376190D01*
X78970238Y-28400000D01*
X78994047Y-28423809D01*
X79017857Y-28471428D01*
X79017857Y-28519047D01*
X78994047Y-28590476D01*
X78708333Y-28876190D01*
X79017857Y-28876190D01*
D12*
%TO.C,U9*%
X77442380Y-34364523D02*
X77442380Y-35392619D01*
X77502857Y-35513571D01*
X77563333Y-35574047D01*
X77684285Y-35634523D01*
X77926190Y-35634523D01*
X78047142Y-35574047D01*
X78107619Y-35513571D01*
X78168095Y-35392619D01*
X78168095Y-34364523D01*
X78833333Y-35634523D02*
X79075238Y-35634523D01*
X79196190Y-35574047D01*
X79256666Y-35513571D01*
X79377619Y-35332142D01*
X79438095Y-35090238D01*
X79438095Y-34606428D01*
X79377619Y-34485476D01*
X79317142Y-34425000D01*
X79196190Y-34364523D01*
X78954285Y-34364523D01*
X78833333Y-34425000D01*
X78772857Y-34485476D01*
X78712380Y-34606428D01*
X78712380Y-34908809D01*
X78772857Y-35029761D01*
X78833333Y-35090238D01*
X78954285Y-35150714D01*
X79196190Y-35150714D01*
X79317142Y-35090238D01*
X79377619Y-35029761D01*
X79438095Y-34908809D01*
%TO.C,IC5*%
X56030238Y-14374523D02*
X56030238Y-13104523D01*
X57360714Y-14253571D02*
X57300238Y-14314047D01*
X57118809Y-14374523D01*
X56997857Y-14374523D01*
X56816428Y-14314047D01*
X56695476Y-14193095D01*
X56635000Y-14072142D01*
X56574523Y-13830238D01*
X56574523Y-13648809D01*
X56635000Y-13406904D01*
X56695476Y-13285952D01*
X56816428Y-13165000D01*
X56997857Y-13104523D01*
X57118809Y-13104523D01*
X57300238Y-13165000D01*
X57360714Y-13225476D01*
X58509761Y-13104523D02*
X57905000Y-13104523D01*
X57844523Y-13709285D01*
X57905000Y-13648809D01*
X58025952Y-13588333D01*
X58328333Y-13588333D01*
X58449285Y-13648809D01*
X58509761Y-13709285D01*
X58570238Y-13830238D01*
X58570238Y-14132619D01*
X58509761Y-14253571D01*
X58449285Y-14314047D01*
X58328333Y-14374523D01*
X58025952Y-14374523D01*
X57905000Y-14314047D01*
X57844523Y-14253571D01*
%TO.C,IC2*%
X51060238Y-22674523D02*
X51060238Y-21404523D01*
X52390714Y-22553571D02*
X52330238Y-22614047D01*
X52148809Y-22674523D01*
X52027857Y-22674523D01*
X51846428Y-22614047D01*
X51725476Y-22493095D01*
X51665000Y-22372142D01*
X51604523Y-22130238D01*
X51604523Y-21948809D01*
X51665000Y-21706904D01*
X51725476Y-21585952D01*
X51846428Y-21465000D01*
X52027857Y-21404523D01*
X52148809Y-21404523D01*
X52330238Y-21465000D01*
X52390714Y-21525476D01*
X52874523Y-21525476D02*
X52935000Y-21465000D01*
X53055952Y-21404523D01*
X53358333Y-21404523D01*
X53479285Y-21465000D01*
X53539761Y-21525476D01*
X53600238Y-21646428D01*
X53600238Y-21767380D01*
X53539761Y-21948809D01*
X52814047Y-22674523D01*
X53600238Y-22674523D01*
D11*
%TO.C,D4*%
X46780952Y-8426190D02*
X46780952Y-7926190D01*
X46900000Y-7926190D01*
X46971428Y-7950000D01*
X47019047Y-7997619D01*
X47042857Y-8045238D01*
X47066666Y-8140476D01*
X47066666Y-8211904D01*
X47042857Y-8307142D01*
X47019047Y-8354761D01*
X46971428Y-8402380D01*
X46900000Y-8426190D01*
X46780952Y-8426190D01*
X47495238Y-8092857D02*
X47495238Y-8426190D01*
X47376190Y-7902380D02*
X47257142Y-8259523D01*
X47566666Y-8259523D01*
%TO.C,R8*%
X15366666Y-32976190D02*
X15200000Y-32738095D01*
X15080952Y-32976190D02*
X15080952Y-32476190D01*
X15271428Y-32476190D01*
X15319047Y-32500000D01*
X15342857Y-32523809D01*
X15366666Y-32571428D01*
X15366666Y-32642857D01*
X15342857Y-32690476D01*
X15319047Y-32714285D01*
X15271428Y-32738095D01*
X15080952Y-32738095D01*
X15652380Y-32690476D02*
X15604761Y-32666666D01*
X15580952Y-32642857D01*
X15557142Y-32595238D01*
X15557142Y-32571428D01*
X15580952Y-32523809D01*
X15604761Y-32500000D01*
X15652380Y-32476190D01*
X15747619Y-32476190D01*
X15795238Y-32500000D01*
X15819047Y-32523809D01*
X15842857Y-32571428D01*
X15842857Y-32595238D01*
X15819047Y-32642857D01*
X15795238Y-32666666D01*
X15747619Y-32690476D01*
X15652380Y-32690476D01*
X15604761Y-32714285D01*
X15580952Y-32738095D01*
X15557142Y-32785714D01*
X15557142Y-32880952D01*
X15580952Y-32928571D01*
X15604761Y-32952380D01*
X15652380Y-32976190D01*
X15747619Y-32976190D01*
X15795238Y-32952380D01*
X15819047Y-32928571D01*
X15842857Y-32880952D01*
X15842857Y-32785714D01*
X15819047Y-32738095D01*
X15795238Y-32714285D01*
X15747619Y-32690476D01*
%TO.C,C26*%
X84903571Y-11028571D02*
X84879761Y-11052380D01*
X84808333Y-11076190D01*
X84760714Y-11076190D01*
X84689285Y-11052380D01*
X84641666Y-11004761D01*
X84617857Y-10957142D01*
X84594047Y-10861904D01*
X84594047Y-10790476D01*
X84617857Y-10695238D01*
X84641666Y-10647619D01*
X84689285Y-10600000D01*
X84760714Y-10576190D01*
X84808333Y-10576190D01*
X84879761Y-10600000D01*
X84903571Y-10623809D01*
X85094047Y-10623809D02*
X85117857Y-10600000D01*
X85165476Y-10576190D01*
X85284523Y-10576190D01*
X85332142Y-10600000D01*
X85355952Y-10623809D01*
X85379761Y-10671428D01*
X85379761Y-10719047D01*
X85355952Y-10790476D01*
X85070238Y-11076190D01*
X85379761Y-11076190D01*
X85808333Y-10576190D02*
X85713095Y-10576190D01*
X85665476Y-10600000D01*
X85641666Y-10623809D01*
X85594047Y-10695238D01*
X85570238Y-10790476D01*
X85570238Y-10980952D01*
X85594047Y-11028571D01*
X85617857Y-11052380D01*
X85665476Y-11076190D01*
X85760714Y-11076190D01*
X85808333Y-11052380D01*
X85832142Y-11028571D01*
X85855952Y-10980952D01*
X85855952Y-10861904D01*
X85832142Y-10814285D01*
X85808333Y-10790476D01*
X85760714Y-10766666D01*
X85665476Y-10766666D01*
X85617857Y-10790476D01*
X85594047Y-10814285D01*
X85570238Y-10861904D01*
%TO.C,R7*%
X49566666Y-9151190D02*
X49400000Y-8913095D01*
X49280952Y-9151190D02*
X49280952Y-8651190D01*
X49471428Y-8651190D01*
X49519047Y-8675000D01*
X49542857Y-8698809D01*
X49566666Y-8746428D01*
X49566666Y-8817857D01*
X49542857Y-8865476D01*
X49519047Y-8889285D01*
X49471428Y-8913095D01*
X49280952Y-8913095D01*
X49733333Y-8651190D02*
X50066666Y-8651190D01*
X49852380Y-9151190D01*
%TO.C,TP11*%
X75922619Y-24926190D02*
X76208333Y-24926190D01*
X76065476Y-25426190D02*
X76065476Y-24926190D01*
X76660714Y-25426190D02*
X76494047Y-25188095D01*
X76375000Y-25426190D02*
X76375000Y-24926190D01*
X76565476Y-24926190D01*
X76613095Y-24950000D01*
X76636904Y-24973809D01*
X76660714Y-25021428D01*
X76660714Y-25092857D01*
X76636904Y-25140476D01*
X76613095Y-25164285D01*
X76565476Y-25188095D01*
X76375000Y-25188095D01*
X76875000Y-25426190D02*
X76875000Y-24926190D01*
X77375000Y-24950000D02*
X77327380Y-24926190D01*
X77255952Y-24926190D01*
X77184523Y-24950000D01*
X77136904Y-24997619D01*
X77113095Y-25045238D01*
X77089285Y-25140476D01*
X77089285Y-25211904D01*
X77113095Y-25307142D01*
X77136904Y-25354761D01*
X77184523Y-25402380D01*
X77255952Y-25426190D01*
X77303571Y-25426190D01*
X77375000Y-25402380D01*
X77398809Y-25378571D01*
X77398809Y-25211904D01*
X77303571Y-25211904D01*
X77898809Y-25426190D02*
X77732142Y-25188095D01*
X77613095Y-25426190D02*
X77613095Y-24926190D01*
X77803571Y-24926190D01*
X77851190Y-24950000D01*
X77875000Y-24973809D01*
X77898809Y-25021428D01*
X77898809Y-25092857D01*
X77875000Y-25140476D01*
X77851190Y-25164285D01*
X77803571Y-25188095D01*
X77613095Y-25188095D01*
X78113095Y-25164285D02*
X78279761Y-25164285D01*
X78351190Y-25426190D02*
X78113095Y-25426190D01*
X78113095Y-24926190D01*
X78351190Y-24926190D01*
X78732142Y-25164285D02*
X78565476Y-25164285D01*
X78565476Y-25426190D02*
X78565476Y-24926190D01*
X78803571Y-24926190D01*
D12*
%TO.C,IC1*%
X12260238Y-28474523D02*
X12260238Y-27204523D01*
X13590714Y-28353571D02*
X13530238Y-28414047D01*
X13348809Y-28474523D01*
X13227857Y-28474523D01*
X13046428Y-28414047D01*
X12925476Y-28293095D01*
X12865000Y-28172142D01*
X12804523Y-27930238D01*
X12804523Y-27748809D01*
X12865000Y-27506904D01*
X12925476Y-27385952D01*
X13046428Y-27265000D01*
X13227857Y-27204523D01*
X13348809Y-27204523D01*
X13530238Y-27265000D01*
X13590714Y-27325476D01*
X14800238Y-28474523D02*
X14074523Y-28474523D01*
X14437380Y-28474523D02*
X14437380Y-27204523D01*
X14316428Y-27385952D01*
X14195476Y-27506904D01*
X14074523Y-27567380D01*
D13*
%TO.C,Q2*%
X21904761Y-34547619D02*
X21809523Y-34500000D01*
X21714285Y-34404761D01*
X21571428Y-34261904D01*
X21476190Y-34214285D01*
X21380952Y-34214285D01*
X21428571Y-34452380D02*
X21333333Y-34404761D01*
X21238095Y-34309523D01*
X21190476Y-34119047D01*
X21190476Y-33785714D01*
X21238095Y-33595238D01*
X21333333Y-33500000D01*
X21428571Y-33452380D01*
X21619047Y-33452380D01*
X21714285Y-33500000D01*
X21809523Y-33595238D01*
X21857142Y-33785714D01*
X21857142Y-34119047D01*
X21809523Y-34309523D01*
X21714285Y-34404761D01*
X21619047Y-34452380D01*
X21428571Y-34452380D01*
X22238095Y-33547619D02*
X22285714Y-33500000D01*
X22380952Y-33452380D01*
X22619047Y-33452380D01*
X22714285Y-33500000D01*
X22761904Y-33547619D01*
X22809523Y-33642857D01*
X22809523Y-33738095D01*
X22761904Y-33880952D01*
X22190476Y-34452380D01*
X22809523Y-34452380D01*
D12*
%TO.C,IC4*%
X24610238Y-11774523D02*
X24610238Y-10504523D01*
X25940714Y-11653571D02*
X25880238Y-11714047D01*
X25698809Y-11774523D01*
X25577857Y-11774523D01*
X25396428Y-11714047D01*
X25275476Y-11593095D01*
X25215000Y-11472142D01*
X25154523Y-11230238D01*
X25154523Y-11048809D01*
X25215000Y-10806904D01*
X25275476Y-10685952D01*
X25396428Y-10565000D01*
X25577857Y-10504523D01*
X25698809Y-10504523D01*
X25880238Y-10565000D01*
X25940714Y-10625476D01*
X27029285Y-10927857D02*
X27029285Y-11774523D01*
X26726904Y-10444047D02*
X26424523Y-11351190D01*
X27210714Y-11351190D01*
D11*
%TO.C,R10*%
X24476190Y-17846428D02*
X24238095Y-18013095D01*
X24476190Y-18132142D02*
X23976190Y-18132142D01*
X23976190Y-17941666D01*
X24000000Y-17894047D01*
X24023809Y-17870238D01*
X24071428Y-17846428D01*
X24142857Y-17846428D01*
X24190476Y-17870238D01*
X24214285Y-17894047D01*
X24238095Y-17941666D01*
X24238095Y-18132142D01*
X24476190Y-17370238D02*
X24476190Y-17655952D01*
X24476190Y-17513095D02*
X23976190Y-17513095D01*
X24047619Y-17560714D01*
X24095238Y-17608333D01*
X24119047Y-17655952D01*
X23976190Y-17060714D02*
X23976190Y-17013095D01*
X24000000Y-16965476D01*
X24023809Y-16941666D01*
X24071428Y-16917857D01*
X24166666Y-16894047D01*
X24285714Y-16894047D01*
X24380952Y-16917857D01*
X24428571Y-16941666D01*
X24452380Y-16965476D01*
X24476190Y-17013095D01*
X24476190Y-17060714D01*
X24452380Y-17108333D01*
X24428571Y-17132142D01*
X24380952Y-17155952D01*
X24285714Y-17179761D01*
X24166666Y-17179761D01*
X24071428Y-17155952D01*
X24023809Y-17132142D01*
X24000000Y-17108333D01*
X23976190Y-17060714D01*
%TO.C,TP17*%
X22566666Y-19651190D02*
X22400000Y-19413095D01*
X22280952Y-19651190D02*
X22280952Y-19151190D01*
X22471428Y-19151190D01*
X22519047Y-19175000D01*
X22542857Y-19198809D01*
X22566666Y-19246428D01*
X22566666Y-19317857D01*
X22542857Y-19365476D01*
X22519047Y-19389285D01*
X22471428Y-19413095D01*
X22280952Y-19413095D01*
X22733333Y-19151190D02*
X23066666Y-19651190D01*
X23066666Y-19151190D02*
X22733333Y-19651190D01*
%TO.C,D8*%
X91355952Y-22451190D02*
X91355952Y-21951190D01*
X91475000Y-21951190D01*
X91546428Y-21975000D01*
X91594047Y-22022619D01*
X91617857Y-22070238D01*
X91641666Y-22165476D01*
X91641666Y-22236904D01*
X91617857Y-22332142D01*
X91594047Y-22379761D01*
X91546428Y-22427380D01*
X91475000Y-22451190D01*
X91355952Y-22451190D01*
X91927380Y-22165476D02*
X91879761Y-22141666D01*
X91855952Y-22117857D01*
X91832142Y-22070238D01*
X91832142Y-22046428D01*
X91855952Y-21998809D01*
X91879761Y-21975000D01*
X91927380Y-21951190D01*
X92022619Y-21951190D01*
X92070238Y-21975000D01*
X92094047Y-21998809D01*
X92117857Y-22046428D01*
X92117857Y-22070238D01*
X92094047Y-22117857D01*
X92070238Y-22141666D01*
X92022619Y-22165476D01*
X91927380Y-22165476D01*
X91879761Y-22189285D01*
X91855952Y-22213095D01*
X91832142Y-22260714D01*
X91832142Y-22355952D01*
X91855952Y-22403571D01*
X91879761Y-22427380D01*
X91927380Y-22451190D01*
X92022619Y-22451190D01*
X92070238Y-22427380D01*
X92094047Y-22403571D01*
X92117857Y-22355952D01*
X92117857Y-22260714D01*
X92094047Y-22213095D01*
X92070238Y-22189285D01*
X92022619Y-22165476D01*
%TO.C,R5*%
X16366666Y-8426190D02*
X16200000Y-8188095D01*
X16080952Y-8426190D02*
X16080952Y-7926190D01*
X16271428Y-7926190D01*
X16319047Y-7950000D01*
X16342857Y-7973809D01*
X16366666Y-8021428D01*
X16366666Y-8092857D01*
X16342857Y-8140476D01*
X16319047Y-8164285D01*
X16271428Y-8188095D01*
X16080952Y-8188095D01*
X16819047Y-7926190D02*
X16580952Y-7926190D01*
X16557142Y-8164285D01*
X16580952Y-8140476D01*
X16628571Y-8116666D01*
X16747619Y-8116666D01*
X16795238Y-8140476D01*
X16819047Y-8164285D01*
X16842857Y-8211904D01*
X16842857Y-8330952D01*
X16819047Y-8378571D01*
X16795238Y-8402380D01*
X16747619Y-8426190D01*
X16628571Y-8426190D01*
X16580952Y-8402380D01*
X16557142Y-8378571D01*
%TO.C,R25*%
X87503571Y-27201190D02*
X87336904Y-26963095D01*
X87217857Y-27201190D02*
X87217857Y-26701190D01*
X87408333Y-26701190D01*
X87455952Y-26725000D01*
X87479761Y-26748809D01*
X87503571Y-26796428D01*
X87503571Y-26867857D01*
X87479761Y-26915476D01*
X87455952Y-26939285D01*
X87408333Y-26963095D01*
X87217857Y-26963095D01*
X87694047Y-26748809D02*
X87717857Y-26725000D01*
X87765476Y-26701190D01*
X87884523Y-26701190D01*
X87932142Y-26725000D01*
X87955952Y-26748809D01*
X87979761Y-26796428D01*
X87979761Y-26844047D01*
X87955952Y-26915476D01*
X87670238Y-27201190D01*
X87979761Y-27201190D01*
X88432142Y-26701190D02*
X88194047Y-26701190D01*
X88170238Y-26939285D01*
X88194047Y-26915476D01*
X88241666Y-26891666D01*
X88360714Y-26891666D01*
X88408333Y-26915476D01*
X88432142Y-26939285D01*
X88455952Y-26986904D01*
X88455952Y-27105952D01*
X88432142Y-27153571D01*
X88408333Y-27177380D01*
X88360714Y-27201190D01*
X88241666Y-27201190D01*
X88194047Y-27177380D01*
X88170238Y-27153571D01*
%TO.C,D6*%
X55080952Y-8426190D02*
X55080952Y-7926190D01*
X55200000Y-7926190D01*
X55271428Y-7950000D01*
X55319047Y-7997619D01*
X55342857Y-8045238D01*
X55366666Y-8140476D01*
X55366666Y-8211904D01*
X55342857Y-8307142D01*
X55319047Y-8354761D01*
X55271428Y-8402380D01*
X55200000Y-8426190D01*
X55080952Y-8426190D01*
X55795238Y-7926190D02*
X55700000Y-7926190D01*
X55652380Y-7950000D01*
X55628571Y-7973809D01*
X55580952Y-8045238D01*
X55557142Y-8140476D01*
X55557142Y-8330952D01*
X55580952Y-8378571D01*
X55604761Y-8402380D01*
X55652380Y-8426190D01*
X55747619Y-8426190D01*
X55795238Y-8402380D01*
X55819047Y-8378571D01*
X55842857Y-8330952D01*
X55842857Y-8211904D01*
X55819047Y-8164285D01*
X55795238Y-8140476D01*
X55747619Y-8116666D01*
X55652380Y-8116666D01*
X55604761Y-8140476D01*
X55580952Y-8164285D01*
X55557142Y-8211904D01*
%TO.C,R16*%
X43028571Y-13351190D02*
X42861904Y-13113095D01*
X42742857Y-13351190D02*
X42742857Y-12851190D01*
X42933333Y-12851190D01*
X42980952Y-12875000D01*
X43004761Y-12898809D01*
X43028571Y-12946428D01*
X43028571Y-13017857D01*
X43004761Y-13065476D01*
X42980952Y-13089285D01*
X42933333Y-13113095D01*
X42742857Y-13113095D01*
X43504761Y-13351190D02*
X43219047Y-13351190D01*
X43361904Y-13351190D02*
X43361904Y-12851190D01*
X43314285Y-12922619D01*
X43266666Y-12970238D01*
X43219047Y-12994047D01*
X43933333Y-12851190D02*
X43838095Y-12851190D01*
X43790476Y-12875000D01*
X43766666Y-12898809D01*
X43719047Y-12970238D01*
X43695238Y-13065476D01*
X43695238Y-13255952D01*
X43719047Y-13303571D01*
X43742857Y-13327380D01*
X43790476Y-13351190D01*
X43885714Y-13351190D01*
X43933333Y-13327380D01*
X43957142Y-13303571D01*
X43980952Y-13255952D01*
X43980952Y-13136904D01*
X43957142Y-13089285D01*
X43933333Y-13065476D01*
X43885714Y-13041666D01*
X43790476Y-13041666D01*
X43742857Y-13065476D01*
X43719047Y-13089285D01*
X43695238Y-13136904D01*
%TO.C,R6*%
X14766666Y-8426190D02*
X14600000Y-8188095D01*
X14480952Y-8426190D02*
X14480952Y-7926190D01*
X14671428Y-7926190D01*
X14719047Y-7950000D01*
X14742857Y-7973809D01*
X14766666Y-8021428D01*
X14766666Y-8092857D01*
X14742857Y-8140476D01*
X14719047Y-8164285D01*
X14671428Y-8188095D01*
X14480952Y-8188095D01*
X15195238Y-7926190D02*
X15100000Y-7926190D01*
X15052380Y-7950000D01*
X15028571Y-7973809D01*
X14980952Y-8045238D01*
X14957142Y-8140476D01*
X14957142Y-8330952D01*
X14980952Y-8378571D01*
X15004761Y-8402380D01*
X15052380Y-8426190D01*
X15147619Y-8426190D01*
X15195238Y-8402380D01*
X15219047Y-8378571D01*
X15242857Y-8330952D01*
X15242857Y-8211904D01*
X15219047Y-8164285D01*
X15195238Y-8140476D01*
X15147619Y-8116666D01*
X15052380Y-8116666D01*
X15004761Y-8140476D01*
X14980952Y-8164285D01*
X14957142Y-8211904D01*
%TO.C,R4*%
X20366666Y-7776190D02*
X20200000Y-7538095D01*
X20080952Y-7776190D02*
X20080952Y-7276190D01*
X20271428Y-7276190D01*
X20319047Y-7300000D01*
X20342857Y-7323809D01*
X20366666Y-7371428D01*
X20366666Y-7442857D01*
X20342857Y-7490476D01*
X20319047Y-7514285D01*
X20271428Y-7538095D01*
X20080952Y-7538095D01*
X20795238Y-7442857D02*
X20795238Y-7776190D01*
X20676190Y-7252380D02*
X20557142Y-7609523D01*
X20866666Y-7609523D01*
D12*
%TO.C,IC8*%
X59410238Y-37899523D02*
X59410238Y-36629523D01*
X60740714Y-37778571D02*
X60680238Y-37839047D01*
X60498809Y-37899523D01*
X60377857Y-37899523D01*
X60196428Y-37839047D01*
X60075476Y-37718095D01*
X60015000Y-37597142D01*
X59954523Y-37355238D01*
X59954523Y-37173809D01*
X60015000Y-36931904D01*
X60075476Y-36810952D01*
X60196428Y-36690000D01*
X60377857Y-36629523D01*
X60498809Y-36629523D01*
X60680238Y-36690000D01*
X60740714Y-36750476D01*
X61466428Y-37173809D02*
X61345476Y-37113333D01*
X61285000Y-37052857D01*
X61224523Y-36931904D01*
X61224523Y-36871428D01*
X61285000Y-36750476D01*
X61345476Y-36690000D01*
X61466428Y-36629523D01*
X61708333Y-36629523D01*
X61829285Y-36690000D01*
X61889761Y-36750476D01*
X61950238Y-36871428D01*
X61950238Y-36931904D01*
X61889761Y-37052857D01*
X61829285Y-37113333D01*
X61708333Y-37173809D01*
X61466428Y-37173809D01*
X61345476Y-37234285D01*
X61285000Y-37294761D01*
X61224523Y-37415714D01*
X61224523Y-37657619D01*
X61285000Y-37778571D01*
X61345476Y-37839047D01*
X61466428Y-37899523D01*
X61708333Y-37899523D01*
X61829285Y-37839047D01*
X61889761Y-37778571D01*
X61950238Y-37657619D01*
X61950238Y-37415714D01*
X61889761Y-37294761D01*
X61829285Y-37234285D01*
X61708333Y-37173809D01*
D11*
%TO.C,C20*%
X59078571Y-8228571D02*
X59054761Y-8252380D01*
X58983333Y-8276190D01*
X58935714Y-8276190D01*
X58864285Y-8252380D01*
X58816666Y-8204761D01*
X58792857Y-8157142D01*
X58769047Y-8061904D01*
X58769047Y-7990476D01*
X58792857Y-7895238D01*
X58816666Y-7847619D01*
X58864285Y-7800000D01*
X58935714Y-7776190D01*
X58983333Y-7776190D01*
X59054761Y-7800000D01*
X59078571Y-7823809D01*
X59269047Y-7823809D02*
X59292857Y-7800000D01*
X59340476Y-7776190D01*
X59459523Y-7776190D01*
X59507142Y-7800000D01*
X59530952Y-7823809D01*
X59554761Y-7871428D01*
X59554761Y-7919047D01*
X59530952Y-7990476D01*
X59245238Y-8276190D01*
X59554761Y-8276190D01*
X59864285Y-7776190D02*
X59911904Y-7776190D01*
X59959523Y-7800000D01*
X59983333Y-7823809D01*
X60007142Y-7871428D01*
X60030952Y-7966666D01*
X60030952Y-8085714D01*
X60007142Y-8180952D01*
X59983333Y-8228571D01*
X59959523Y-8252380D01*
X59911904Y-8276190D01*
X59864285Y-8276190D01*
X59816666Y-8252380D01*
X59792857Y-8228571D01*
X59769047Y-8180952D01*
X59745238Y-8085714D01*
X59745238Y-7966666D01*
X59769047Y-7871428D01*
X59792857Y-7823809D01*
X59816666Y-7800000D01*
X59864285Y-7776190D01*
D10*
%TO.C,R2*%
X9213333Y-22952380D02*
X8880000Y-22476190D01*
X8641904Y-22952380D02*
X8641904Y-21952380D01*
X9022857Y-21952380D01*
X9118095Y-22000000D01*
X9165714Y-22047619D01*
X9213333Y-22142857D01*
X9213333Y-22285714D01*
X9165714Y-22380952D01*
X9118095Y-22428571D01*
X9022857Y-22476190D01*
X8641904Y-22476190D01*
X9594285Y-22047619D02*
X9641904Y-22000000D01*
X9737142Y-21952380D01*
X9975238Y-21952380D01*
X10070476Y-22000000D01*
X10118095Y-22047619D01*
X10165714Y-22142857D01*
X10165714Y-22238095D01*
X10118095Y-22380952D01*
X9546666Y-22952380D01*
X10165714Y-22952380D01*
D11*
%TO.C,C32*%
X66803571Y-40478571D02*
X66779761Y-40502380D01*
X66708333Y-40526190D01*
X66660714Y-40526190D01*
X66589285Y-40502380D01*
X66541666Y-40454761D01*
X66517857Y-40407142D01*
X66494047Y-40311904D01*
X66494047Y-40240476D01*
X66517857Y-40145238D01*
X66541666Y-40097619D01*
X66589285Y-40050000D01*
X66660714Y-40026190D01*
X66708333Y-40026190D01*
X66779761Y-40050000D01*
X66803571Y-40073809D01*
X66970238Y-40026190D02*
X67279761Y-40026190D01*
X67113095Y-40216666D01*
X67184523Y-40216666D01*
X67232142Y-40240476D01*
X67255952Y-40264285D01*
X67279761Y-40311904D01*
X67279761Y-40430952D01*
X67255952Y-40478571D01*
X67232142Y-40502380D01*
X67184523Y-40526190D01*
X67041666Y-40526190D01*
X66994047Y-40502380D01*
X66970238Y-40478571D01*
X67470238Y-40073809D02*
X67494047Y-40050000D01*
X67541666Y-40026190D01*
X67660714Y-40026190D01*
X67708333Y-40050000D01*
X67732142Y-40073809D01*
X67755952Y-40121428D01*
X67755952Y-40169047D01*
X67732142Y-40240476D01*
X67446428Y-40526190D01*
X67755952Y-40526190D01*
%TO.C,R21*%
X80168571Y-46866190D02*
X80001904Y-46628095D01*
X79882857Y-46866190D02*
X79882857Y-46366190D01*
X80073333Y-46366190D01*
X80120952Y-46390000D01*
X80144761Y-46413809D01*
X80168571Y-46461428D01*
X80168571Y-46532857D01*
X80144761Y-46580476D01*
X80120952Y-46604285D01*
X80073333Y-46628095D01*
X79882857Y-46628095D01*
X80359047Y-46413809D02*
X80382857Y-46390000D01*
X80430476Y-46366190D01*
X80549523Y-46366190D01*
X80597142Y-46390000D01*
X80620952Y-46413809D01*
X80644761Y-46461428D01*
X80644761Y-46509047D01*
X80620952Y-46580476D01*
X80335238Y-46866190D01*
X80644761Y-46866190D01*
X81120952Y-46866190D02*
X80835238Y-46866190D01*
X80978095Y-46866190D02*
X80978095Y-46366190D01*
X80930476Y-46437619D01*
X80882857Y-46485238D01*
X80835238Y-46509047D01*
%TO.C,TP16*%
X18144047Y-38201190D02*
X18429761Y-38201190D01*
X18286904Y-38701190D02*
X18286904Y-38201190D01*
X18548809Y-38201190D02*
X18882142Y-38701190D01*
X18882142Y-38201190D02*
X18548809Y-38701190D01*
%TO.C,TP9*%
X75453809Y-1651190D02*
X75549047Y-1651190D01*
X75596666Y-1675000D01*
X75644285Y-1722619D01*
X75668095Y-1817857D01*
X75668095Y-1984523D01*
X75644285Y-2079761D01*
X75596666Y-2127380D01*
X75549047Y-2151190D01*
X75453809Y-2151190D01*
X75406190Y-2127380D01*
X75358571Y-2079761D01*
X75334761Y-1984523D01*
X75334761Y-1817857D01*
X75358571Y-1722619D01*
X75406190Y-1675000D01*
X75453809Y-1651190D01*
X76049047Y-1889285D02*
X75882380Y-1889285D01*
X75882380Y-2151190D02*
X75882380Y-1651190D01*
X76120476Y-1651190D01*
X76477619Y-1889285D02*
X76310952Y-1889285D01*
X76310952Y-2151190D02*
X76310952Y-1651190D01*
X76549047Y-1651190D01*
X77025238Y-2103571D02*
X77001428Y-2127380D01*
X76930000Y-2151190D01*
X76882380Y-2151190D01*
X76810952Y-2127380D01*
X76763333Y-2079761D01*
X76739523Y-2032142D01*
X76715714Y-1936904D01*
X76715714Y-1865476D01*
X76739523Y-1770238D01*
X76763333Y-1722619D01*
X76810952Y-1675000D01*
X76882380Y-1651190D01*
X76930000Y-1651190D01*
X77001428Y-1675000D01*
X77025238Y-1698809D01*
X77239523Y-2151190D02*
X77239523Y-1651190D01*
X77239523Y-1889285D02*
X77525238Y-1889285D01*
X77525238Y-2151190D02*
X77525238Y-1651190D01*
X78025238Y-2151190D02*
X77739523Y-2151190D01*
X77882380Y-2151190D02*
X77882380Y-1651190D01*
X77834761Y-1722619D01*
X77787142Y-1770238D01*
X77739523Y-1794047D01*
%TO.C,TP3*%
X72347619Y-1576190D02*
X72657142Y-1576190D01*
X72490476Y-1766666D01*
X72561904Y-1766666D01*
X72609523Y-1790476D01*
X72633333Y-1814285D01*
X72657142Y-1861904D01*
X72657142Y-1980952D01*
X72633333Y-2028571D01*
X72609523Y-2052380D01*
X72561904Y-2076190D01*
X72419047Y-2076190D01*
X72371428Y-2052380D01*
X72347619Y-2028571D01*
X72871428Y-2028571D02*
X72895238Y-2052380D01*
X72871428Y-2076190D01*
X72847619Y-2052380D01*
X72871428Y-2028571D01*
X72871428Y-2076190D01*
X73061904Y-1576190D02*
X73371428Y-1576190D01*
X73204761Y-1766666D01*
X73276190Y-1766666D01*
X73323809Y-1790476D01*
X73347619Y-1814285D01*
X73371428Y-1861904D01*
X73371428Y-1980952D01*
X73347619Y-2028571D01*
X73323809Y-2052380D01*
X73276190Y-2076190D01*
X73133333Y-2076190D01*
X73085714Y-2052380D01*
X73061904Y-2028571D01*
X73514285Y-1576190D02*
X73680952Y-2076190D01*
X73847619Y-1576190D01*
X73990476Y-1933333D02*
X74228571Y-1933333D01*
X73942857Y-2076190D02*
X74109523Y-1576190D01*
X74276190Y-2076190D01*
%TO.C,C13*%
X42903571Y-24878571D02*
X42879761Y-24902380D01*
X42808333Y-24926190D01*
X42760714Y-24926190D01*
X42689285Y-24902380D01*
X42641666Y-24854761D01*
X42617857Y-24807142D01*
X42594047Y-24711904D01*
X42594047Y-24640476D01*
X42617857Y-24545238D01*
X42641666Y-24497619D01*
X42689285Y-24450000D01*
X42760714Y-24426190D01*
X42808333Y-24426190D01*
X42879761Y-24450000D01*
X42903571Y-24473809D01*
X43379761Y-24926190D02*
X43094047Y-24926190D01*
X43236904Y-24926190D02*
X43236904Y-24426190D01*
X43189285Y-24497619D01*
X43141666Y-24545238D01*
X43094047Y-24569047D01*
X43546428Y-24426190D02*
X43855952Y-24426190D01*
X43689285Y-24616666D01*
X43760714Y-24616666D01*
X43808333Y-24640476D01*
X43832142Y-24664285D01*
X43855952Y-24711904D01*
X43855952Y-24830952D01*
X43832142Y-24878571D01*
X43808333Y-24902380D01*
X43760714Y-24926190D01*
X43617857Y-24926190D01*
X43570238Y-24902380D01*
X43546428Y-24878571D01*
D12*
%TO.C,U10*%
X66652619Y-22329523D02*
X66652619Y-23357619D01*
X66713095Y-23478571D01*
X66773571Y-23539047D01*
X66894523Y-23599523D01*
X67136428Y-23599523D01*
X67257380Y-23539047D01*
X67317857Y-23478571D01*
X67378333Y-23357619D01*
X67378333Y-22329523D01*
X68648333Y-23599523D02*
X67922619Y-23599523D01*
X68285476Y-23599523D02*
X68285476Y-22329523D01*
X68164523Y-22510952D01*
X68043571Y-22631904D01*
X67922619Y-22692380D01*
X69434523Y-22329523D02*
X69555476Y-22329523D01*
X69676428Y-22390000D01*
X69736904Y-22450476D01*
X69797380Y-22571428D01*
X69857857Y-22813333D01*
X69857857Y-23115714D01*
X69797380Y-23357619D01*
X69736904Y-23478571D01*
X69676428Y-23539047D01*
X69555476Y-23599523D01*
X69434523Y-23599523D01*
X69313571Y-23539047D01*
X69253095Y-23478571D01*
X69192619Y-23357619D01*
X69132142Y-23115714D01*
X69132142Y-22813333D01*
X69192619Y-22571428D01*
X69253095Y-22450476D01*
X69313571Y-22390000D01*
X69434523Y-22329523D01*
D10*
%TO.C,H3*%
X5313095Y-45202380D02*
X5313095Y-44202380D01*
X5313095Y-44678571D02*
X5884523Y-44678571D01*
X5884523Y-45202380D02*
X5884523Y-44202380D01*
X6265476Y-44202380D02*
X6884523Y-44202380D01*
X6551190Y-44583333D01*
X6694047Y-44583333D01*
X6789285Y-44630952D01*
X6836904Y-44678571D01*
X6884523Y-44773809D01*
X6884523Y-45011904D01*
X6836904Y-45107142D01*
X6789285Y-45154761D01*
X6694047Y-45202380D01*
X6408333Y-45202380D01*
X6313095Y-45154761D01*
X6265476Y-45107142D01*
D11*
%TO.C,C2*%
X59903571Y-25033333D02*
X59927380Y-25057142D01*
X59951190Y-25128571D01*
X59951190Y-25176190D01*
X59927380Y-25247619D01*
X59879761Y-25295238D01*
X59832142Y-25319047D01*
X59736904Y-25342857D01*
X59665476Y-25342857D01*
X59570238Y-25319047D01*
X59522619Y-25295238D01*
X59475000Y-25247619D01*
X59451190Y-25176190D01*
X59451190Y-25128571D01*
X59475000Y-25057142D01*
X59498809Y-25033333D01*
X59498809Y-24842857D02*
X59475000Y-24819047D01*
X59451190Y-24771428D01*
X59451190Y-24652380D01*
X59475000Y-24604761D01*
X59498809Y-24580952D01*
X59546428Y-24557142D01*
X59594047Y-24557142D01*
X59665476Y-24580952D01*
X59951190Y-24866666D01*
X59951190Y-24557142D01*
D10*
%TO.C,U6*%
X30268095Y-832380D02*
X30268095Y-1641904D01*
X30315714Y-1737142D01*
X30363333Y-1784761D01*
X30458571Y-1832380D01*
X30649047Y-1832380D01*
X30744285Y-1784761D01*
X30791904Y-1737142D01*
X30839523Y-1641904D01*
X30839523Y-832380D01*
X31744285Y-832380D02*
X31553809Y-832380D01*
X31458571Y-880000D01*
X31410952Y-927619D01*
X31315714Y-1070476D01*
X31268095Y-1260952D01*
X31268095Y-1641904D01*
X31315714Y-1737142D01*
X31363333Y-1784761D01*
X31458571Y-1832380D01*
X31649047Y-1832380D01*
X31744285Y-1784761D01*
X31791904Y-1737142D01*
X31839523Y-1641904D01*
X31839523Y-1403809D01*
X31791904Y-1308571D01*
X31744285Y-1260952D01*
X31649047Y-1213333D01*
X31458571Y-1213333D01*
X31363333Y-1260952D01*
X31315714Y-1308571D01*
X31268095Y-1403809D01*
D11*
%TO.C,R15*%
X15003571Y-36426190D02*
X14836904Y-36188095D01*
X14717857Y-36426190D02*
X14717857Y-35926190D01*
X14908333Y-35926190D01*
X14955952Y-35950000D01*
X14979761Y-35973809D01*
X15003571Y-36021428D01*
X15003571Y-36092857D01*
X14979761Y-36140476D01*
X14955952Y-36164285D01*
X14908333Y-36188095D01*
X14717857Y-36188095D01*
X15479761Y-36426190D02*
X15194047Y-36426190D01*
X15336904Y-36426190D02*
X15336904Y-35926190D01*
X15289285Y-35997619D01*
X15241666Y-36045238D01*
X15194047Y-36069047D01*
X15932142Y-35926190D02*
X15694047Y-35926190D01*
X15670238Y-36164285D01*
X15694047Y-36140476D01*
X15741666Y-36116666D01*
X15860714Y-36116666D01*
X15908333Y-36140476D01*
X15932142Y-36164285D01*
X15955952Y-36211904D01*
X15955952Y-36330952D01*
X15932142Y-36378571D01*
X15908333Y-36402380D01*
X15860714Y-36426190D01*
X15741666Y-36426190D01*
X15694047Y-36402380D01*
X15670238Y-36378571D01*
%TO.C,C23*%
X22653571Y-13328571D02*
X22629761Y-13352380D01*
X22558333Y-13376190D01*
X22510714Y-13376190D01*
X22439285Y-13352380D01*
X22391666Y-13304761D01*
X22367857Y-13257142D01*
X22344047Y-13161904D01*
X22344047Y-13090476D01*
X22367857Y-12995238D01*
X22391666Y-12947619D01*
X22439285Y-12900000D01*
X22510714Y-12876190D01*
X22558333Y-12876190D01*
X22629761Y-12900000D01*
X22653571Y-12923809D01*
X22844047Y-12923809D02*
X22867857Y-12900000D01*
X22915476Y-12876190D01*
X23034523Y-12876190D01*
X23082142Y-12900000D01*
X23105952Y-12923809D01*
X23129761Y-12971428D01*
X23129761Y-13019047D01*
X23105952Y-13090476D01*
X22820238Y-13376190D01*
X23129761Y-13376190D01*
X23296428Y-12876190D02*
X23605952Y-12876190D01*
X23439285Y-13066666D01*
X23510714Y-13066666D01*
X23558333Y-13090476D01*
X23582142Y-13114285D01*
X23605952Y-13161904D01*
X23605952Y-13280952D01*
X23582142Y-13328571D01*
X23558333Y-13352380D01*
X23510714Y-13376190D01*
X23367857Y-13376190D01*
X23320238Y-13352380D01*
X23296428Y-13328571D01*
%TO.C,R18*%
X51753571Y-9176190D02*
X51586904Y-8938095D01*
X51467857Y-9176190D02*
X51467857Y-8676190D01*
X51658333Y-8676190D01*
X51705952Y-8700000D01*
X51729761Y-8723809D01*
X51753571Y-8771428D01*
X51753571Y-8842857D01*
X51729761Y-8890476D01*
X51705952Y-8914285D01*
X51658333Y-8938095D01*
X51467857Y-8938095D01*
X52229761Y-9176190D02*
X51944047Y-9176190D01*
X52086904Y-9176190D02*
X52086904Y-8676190D01*
X52039285Y-8747619D01*
X51991666Y-8795238D01*
X51944047Y-8819047D01*
X52515476Y-8890476D02*
X52467857Y-8866666D01*
X52444047Y-8842857D01*
X52420238Y-8795238D01*
X52420238Y-8771428D01*
X52444047Y-8723809D01*
X52467857Y-8700000D01*
X52515476Y-8676190D01*
X52610714Y-8676190D01*
X52658333Y-8700000D01*
X52682142Y-8723809D01*
X52705952Y-8771428D01*
X52705952Y-8795238D01*
X52682142Y-8842857D01*
X52658333Y-8866666D01*
X52610714Y-8890476D01*
X52515476Y-8890476D01*
X52467857Y-8914285D01*
X52444047Y-8938095D01*
X52420238Y-8985714D01*
X52420238Y-9080952D01*
X52444047Y-9128571D01*
X52467857Y-9152380D01*
X52515476Y-9176190D01*
X52610714Y-9176190D01*
X52658333Y-9152380D01*
X52682142Y-9128571D01*
X52705952Y-9080952D01*
X52705952Y-8985714D01*
X52682142Y-8938095D01*
X52658333Y-8914285D01*
X52610714Y-8890476D01*
%TO.C,D3*%
X44230952Y-8326190D02*
X44230952Y-7826190D01*
X44350000Y-7826190D01*
X44421428Y-7850000D01*
X44469047Y-7897619D01*
X44492857Y-7945238D01*
X44516666Y-8040476D01*
X44516666Y-8111904D01*
X44492857Y-8207142D01*
X44469047Y-8254761D01*
X44421428Y-8302380D01*
X44350000Y-8326190D01*
X44230952Y-8326190D01*
X44683333Y-7826190D02*
X44992857Y-7826190D01*
X44826190Y-8016666D01*
X44897619Y-8016666D01*
X44945238Y-8040476D01*
X44969047Y-8064285D01*
X44992857Y-8111904D01*
X44992857Y-8230952D01*
X44969047Y-8278571D01*
X44945238Y-8302380D01*
X44897619Y-8326190D01*
X44754761Y-8326190D01*
X44707142Y-8302380D01*
X44683333Y-8278571D01*
%TO.C,R3*%
X18616666Y-7826190D02*
X18450000Y-7588095D01*
X18330952Y-7826190D02*
X18330952Y-7326190D01*
X18521428Y-7326190D01*
X18569047Y-7350000D01*
X18592857Y-7373809D01*
X18616666Y-7421428D01*
X18616666Y-7492857D01*
X18592857Y-7540476D01*
X18569047Y-7564285D01*
X18521428Y-7588095D01*
X18330952Y-7588095D01*
X18783333Y-7326190D02*
X19092857Y-7326190D01*
X18926190Y-7516666D01*
X18997619Y-7516666D01*
X19045238Y-7540476D01*
X19069047Y-7564285D01*
X19092857Y-7611904D01*
X19092857Y-7730952D01*
X19069047Y-7778571D01*
X19045238Y-7802380D01*
X18997619Y-7826190D01*
X18854761Y-7826190D01*
X18807142Y-7802380D01*
X18783333Y-7778571D01*
%TO.C,R12*%
X41828571Y-8951190D02*
X41661904Y-8713095D01*
X41542857Y-8951190D02*
X41542857Y-8451190D01*
X41733333Y-8451190D01*
X41780952Y-8475000D01*
X41804761Y-8498809D01*
X41828571Y-8546428D01*
X41828571Y-8617857D01*
X41804761Y-8665476D01*
X41780952Y-8689285D01*
X41733333Y-8713095D01*
X41542857Y-8713095D01*
X42304761Y-8951190D02*
X42019047Y-8951190D01*
X42161904Y-8951190D02*
X42161904Y-8451190D01*
X42114285Y-8522619D01*
X42066666Y-8570238D01*
X42019047Y-8594047D01*
X42495238Y-8498809D02*
X42519047Y-8475000D01*
X42566666Y-8451190D01*
X42685714Y-8451190D01*
X42733333Y-8475000D01*
X42757142Y-8498809D01*
X42780952Y-8546428D01*
X42780952Y-8594047D01*
X42757142Y-8665476D01*
X42471428Y-8951190D01*
X42780952Y-8951190D01*
D13*
%TO.C,Q1*%
X21879761Y-37747619D02*
X21784523Y-37700000D01*
X21689285Y-37604761D01*
X21546428Y-37461904D01*
X21451190Y-37414285D01*
X21355952Y-37414285D01*
X21403571Y-37652380D02*
X21308333Y-37604761D01*
X21213095Y-37509523D01*
X21165476Y-37319047D01*
X21165476Y-36985714D01*
X21213095Y-36795238D01*
X21308333Y-36700000D01*
X21403571Y-36652380D01*
X21594047Y-36652380D01*
X21689285Y-36700000D01*
X21784523Y-36795238D01*
X21832142Y-36985714D01*
X21832142Y-37319047D01*
X21784523Y-37509523D01*
X21689285Y-37604761D01*
X21594047Y-37652380D01*
X21403571Y-37652380D01*
X22784523Y-37652380D02*
X22213095Y-37652380D01*
X22498809Y-37652380D02*
X22498809Y-36652380D01*
X22403571Y-36795238D01*
X22308333Y-36890476D01*
X22213095Y-36938095D01*
D11*
%TO.C,C17*%
X24453571Y-14411428D02*
X24477380Y-14435238D01*
X24501190Y-14506666D01*
X24501190Y-14554285D01*
X24477380Y-14625714D01*
X24429761Y-14673333D01*
X24382142Y-14697142D01*
X24286904Y-14720952D01*
X24215476Y-14720952D01*
X24120238Y-14697142D01*
X24072619Y-14673333D01*
X24025000Y-14625714D01*
X24001190Y-14554285D01*
X24001190Y-14506666D01*
X24025000Y-14435238D01*
X24048809Y-14411428D01*
X24501190Y-13935238D02*
X24501190Y-14220952D01*
X24501190Y-14078095D02*
X24001190Y-14078095D01*
X24072619Y-14125714D01*
X24120238Y-14173333D01*
X24144047Y-14220952D01*
X24001190Y-13768571D02*
X24001190Y-13435238D01*
X24501190Y-13649523D01*
%TO.C,TP4*%
X94828571Y-28050000D02*
X94780952Y-28026190D01*
X94709523Y-28026190D01*
X94638095Y-28050000D01*
X94590476Y-28097619D01*
X94566666Y-28145238D01*
X94542857Y-28240476D01*
X94542857Y-28311904D01*
X94566666Y-28407142D01*
X94590476Y-28454761D01*
X94638095Y-28502380D01*
X94709523Y-28526190D01*
X94757142Y-28526190D01*
X94828571Y-28502380D01*
X94852380Y-28478571D01*
X94852380Y-28311904D01*
X94757142Y-28311904D01*
X95066666Y-28526190D02*
X95066666Y-28026190D01*
X95352380Y-28526190D01*
X95352380Y-28026190D01*
X95590476Y-28526190D02*
X95590476Y-28026190D01*
X95709523Y-28026190D01*
X95780952Y-28050000D01*
X95828571Y-28097619D01*
X95852380Y-28145238D01*
X95876190Y-28240476D01*
X95876190Y-28311904D01*
X95852380Y-28407142D01*
X95828571Y-28454761D01*
X95780952Y-28502380D01*
X95709523Y-28526190D01*
X95590476Y-28526190D01*
X96376190Y-28526190D02*
X96209523Y-28288095D01*
X96090476Y-28526190D02*
X96090476Y-28026190D01*
X96280952Y-28026190D01*
X96328571Y-28050000D01*
X96352380Y-28073809D01*
X96376190Y-28121428D01*
X96376190Y-28192857D01*
X96352380Y-28240476D01*
X96328571Y-28264285D01*
X96280952Y-28288095D01*
X96090476Y-28288095D01*
X96590476Y-28264285D02*
X96757142Y-28264285D01*
X96828571Y-28526190D02*
X96590476Y-28526190D01*
X96590476Y-28026190D01*
X96828571Y-28026190D01*
X97209523Y-28264285D02*
X97042857Y-28264285D01*
X97042857Y-28526190D02*
X97042857Y-28026190D01*
X97280952Y-28026190D01*
%TO.C,C18*%
X44453571Y-24078571D02*
X44429761Y-24102380D01*
X44358333Y-24126190D01*
X44310714Y-24126190D01*
X44239285Y-24102380D01*
X44191666Y-24054761D01*
X44167857Y-24007142D01*
X44144047Y-23911904D01*
X44144047Y-23840476D01*
X44167857Y-23745238D01*
X44191666Y-23697619D01*
X44239285Y-23650000D01*
X44310714Y-23626190D01*
X44358333Y-23626190D01*
X44429761Y-23650000D01*
X44453571Y-23673809D01*
X44929761Y-24126190D02*
X44644047Y-24126190D01*
X44786904Y-24126190D02*
X44786904Y-23626190D01*
X44739285Y-23697619D01*
X44691666Y-23745238D01*
X44644047Y-23769047D01*
X45215476Y-23840476D02*
X45167857Y-23816666D01*
X45144047Y-23792857D01*
X45120238Y-23745238D01*
X45120238Y-23721428D01*
X45144047Y-23673809D01*
X45167857Y-23650000D01*
X45215476Y-23626190D01*
X45310714Y-23626190D01*
X45358333Y-23650000D01*
X45382142Y-23673809D01*
X45405952Y-23721428D01*
X45405952Y-23745238D01*
X45382142Y-23792857D01*
X45358333Y-23816666D01*
X45310714Y-23840476D01*
X45215476Y-23840476D01*
X45167857Y-23864285D01*
X45144047Y-23888095D01*
X45120238Y-23935714D01*
X45120238Y-24030952D01*
X45144047Y-24078571D01*
X45167857Y-24102380D01*
X45215476Y-24126190D01*
X45310714Y-24126190D01*
X45358333Y-24102380D01*
X45382142Y-24078571D01*
X45405952Y-24030952D01*
X45405952Y-23935714D01*
X45382142Y-23888095D01*
X45358333Y-23864285D01*
X45310714Y-23840476D01*
%TO.C,C1*%
X21341666Y-13328571D02*
X21317857Y-13352380D01*
X21246428Y-13376190D01*
X21198809Y-13376190D01*
X21127380Y-13352380D01*
X21079761Y-13304761D01*
X21055952Y-13257142D01*
X21032142Y-13161904D01*
X21032142Y-13090476D01*
X21055952Y-12995238D01*
X21079761Y-12947619D01*
X21127380Y-12900000D01*
X21198809Y-12876190D01*
X21246428Y-12876190D01*
X21317857Y-12900000D01*
X21341666Y-12923809D01*
X21817857Y-13376190D02*
X21532142Y-13376190D01*
X21675000Y-13376190D02*
X21675000Y-12876190D01*
X21627380Y-12947619D01*
X21579761Y-12995238D01*
X21532142Y-13019047D01*
%TO.C,TP14*%
X68964285Y-34951190D02*
X68964285Y-34451190D01*
X69130952Y-34808333D01*
X69297619Y-34451190D01*
X69297619Y-34951190D01*
X69630952Y-34451190D02*
X69726190Y-34451190D01*
X69773809Y-34475000D01*
X69821428Y-34522619D01*
X69845238Y-34617857D01*
X69845238Y-34784523D01*
X69821428Y-34879761D01*
X69773809Y-34927380D01*
X69726190Y-34951190D01*
X69630952Y-34951190D01*
X69583333Y-34927380D01*
X69535714Y-34879761D01*
X69511904Y-34784523D01*
X69511904Y-34617857D01*
X69535714Y-34522619D01*
X69583333Y-34475000D01*
X69630952Y-34451190D01*
X70035714Y-34927380D02*
X70107142Y-34951190D01*
X70226190Y-34951190D01*
X70273809Y-34927380D01*
X70297619Y-34903571D01*
X70321428Y-34855952D01*
X70321428Y-34808333D01*
X70297619Y-34760714D01*
X70273809Y-34736904D01*
X70226190Y-34713095D01*
X70130952Y-34689285D01*
X70083333Y-34665476D01*
X70059523Y-34641666D01*
X70035714Y-34594047D01*
X70035714Y-34546428D01*
X70059523Y-34498809D01*
X70083333Y-34475000D01*
X70130952Y-34451190D01*
X70250000Y-34451190D01*
X70321428Y-34475000D01*
X70535714Y-34951190D02*
X70535714Y-34451190D01*
D12*
%TO.C,K1*%
X87062619Y-4074523D02*
X87062619Y-2804523D01*
X87788333Y-4074523D02*
X87244047Y-3348809D01*
X87788333Y-2804523D02*
X87062619Y-3530238D01*
X88997857Y-4074523D02*
X88272142Y-4074523D01*
X88635000Y-4074523D02*
X88635000Y-2804523D01*
X88514047Y-2985952D01*
X88393095Y-3106904D01*
X88272142Y-3167380D01*
D11*
%TO.C,C27*%
X85153571Y-39803571D02*
X85129761Y-39827380D01*
X85058333Y-39851190D01*
X85010714Y-39851190D01*
X84939285Y-39827380D01*
X84891666Y-39779761D01*
X84867857Y-39732142D01*
X84844047Y-39636904D01*
X84844047Y-39565476D01*
X84867857Y-39470238D01*
X84891666Y-39422619D01*
X84939285Y-39375000D01*
X85010714Y-39351190D01*
X85058333Y-39351190D01*
X85129761Y-39375000D01*
X85153571Y-39398809D01*
X85344047Y-39398809D02*
X85367857Y-39375000D01*
X85415476Y-39351190D01*
X85534523Y-39351190D01*
X85582142Y-39375000D01*
X85605952Y-39398809D01*
X85629761Y-39446428D01*
X85629761Y-39494047D01*
X85605952Y-39565476D01*
X85320238Y-39851190D01*
X85629761Y-39851190D01*
X85796428Y-39351190D02*
X86129761Y-39351190D01*
X85915476Y-39851190D01*
%TO.C,D5*%
X51705952Y-8501190D02*
X51705952Y-8001190D01*
X51825000Y-8001190D01*
X51896428Y-8025000D01*
X51944047Y-8072619D01*
X51967857Y-8120238D01*
X51991666Y-8215476D01*
X51991666Y-8286904D01*
X51967857Y-8382142D01*
X51944047Y-8429761D01*
X51896428Y-8477380D01*
X51825000Y-8501190D01*
X51705952Y-8501190D01*
X52444047Y-8001190D02*
X52205952Y-8001190D01*
X52182142Y-8239285D01*
X52205952Y-8215476D01*
X52253571Y-8191666D01*
X52372619Y-8191666D01*
X52420238Y-8215476D01*
X52444047Y-8239285D01*
X52467857Y-8286904D01*
X52467857Y-8405952D01*
X52444047Y-8453571D01*
X52420238Y-8477380D01*
X52372619Y-8501190D01*
X52253571Y-8501190D01*
X52205952Y-8477380D01*
X52182142Y-8453571D01*
D10*
%TO.C,TP15*%
X63625000Y-33425000D02*
G75*
G03*
X63625000Y-33425000I-1400000J0D01*
G01*
%TO.C,TP1*%
X12800000Y-9000000D02*
G75*
G03*
X12800000Y-9000000I-1400000J0D01*
G01*
D14*
%TO.C,C6*%
X3806267Y-14070000D02*
X3513733Y-14070000D01*
X3806267Y-15090000D02*
X3513733Y-15090000D01*
%TO.C,D1*%
X50610000Y-3150000D02*
X50610000Y-290000D01*
X50610000Y-290000D02*
X48690000Y-290000D01*
X48690000Y-290000D02*
X48690000Y-3150000D01*
%TO.C,R1*%
X9125276Y-27272500D02*
X9634724Y-27272500D01*
X9125276Y-26227500D02*
X9634724Y-26227500D01*
%TO.C,C31*%
X64638733Y-36775000D02*
X64931267Y-36775000D01*
X64638733Y-37795000D02*
X64931267Y-37795000D01*
D15*
%TO.C,K2*%
X90950000Y-44190000D02*
X90950000Y-48970000D01*
X90950000Y-48970000D02*
X84950000Y-48970000D01*
X84950000Y-44190000D02*
X90950000Y-44190000D01*
X84950000Y-48970000D02*
X84950000Y-44190000D01*
X82700000Y-44585000D02*
X84600000Y-44585000D01*
D14*
%TO.C,C5*%
X47513767Y-34840000D02*
X47221233Y-34840000D01*
X47513767Y-35860000D02*
X47221233Y-35860000D01*
%TO.C,C25*%
X89045000Y-42171252D02*
X89045000Y-41648748D01*
X90515000Y-42171252D02*
X90515000Y-41648748D01*
D16*
%TO.C,C29*%
X89970000Y-30810000D02*
X85470000Y-30810000D01*
X89970000Y-28210000D02*
X89970000Y-27610000D01*
X89970000Y-30210000D02*
X89970000Y-30810000D01*
X85470000Y-30810000D02*
X85470000Y-30210000D01*
X85470000Y-27610000D02*
X85470000Y-28210000D01*
X89970000Y-27610000D02*
X85470000Y-27610000D01*
%TO.C,SW3*%
X7400000Y-42375000D02*
X21500000Y-42375000D01*
D15*
X16850000Y-41625000D02*
X16850000Y-41625000D01*
D16*
X7400000Y-49875000D02*
X7400000Y-42375000D01*
X21500000Y-42375000D02*
X21500000Y-49875000D01*
X21500000Y-49875000D02*
X7400000Y-49875000D01*
D15*
X17050000Y-41625000D02*
X17050000Y-41625000D01*
X17050000Y-41625000D02*
G75*
G03*
X16850000Y-41625000I-100000J0D01*
G01*
X16850000Y-41625000D02*
G75*
G03*
X17050000Y-41625000I100000J0D01*
G01*
D10*
%TO.C,TP2*%
X39730000Y-3880000D02*
G75*
G03*
X39730000Y-3880000I-1400000J0D01*
G01*
D17*
%TO.C,U1*%
X2433934Y-29470003D02*
X4297562Y-29470003D01*
X-1284100Y-20529997D02*
X197206Y-20529997D01*
X-1284100Y-29470003D02*
X197562Y-29470003D01*
X2434290Y-20529997D02*
X4297206Y-20529997D01*
X-1284100Y-29470003D02*
X-1284100Y-20529997D01*
D18*
X6596114Y-20523952D02*
G75*
G03*
X6596114Y-20523952I-29998J0D01*
G01*
D14*
%TO.C,C8*%
X46370000Y-41116233D02*
X46370000Y-41408767D01*
X45350000Y-41116233D02*
X45350000Y-41408767D01*
%TO.C,U7*%
X65030000Y-9300000D02*
X63530000Y-9300000D01*
X63530000Y-9300000D02*
X63530000Y-9030000D01*
X65030000Y-2400000D02*
X63530000Y-2400000D01*
X63530000Y-9030000D02*
X62430000Y-9030000D01*
X63530000Y-2400000D02*
X63530000Y-2670000D01*
X63530000Y-2670000D02*
X60700000Y-2670000D01*
D10*
%TO.C,TP10*%
X75600000Y-30570000D02*
G75*
G03*
X75600000Y-30570000I-1400000J0D01*
G01*
%TO.C,TP5*%
X82375000Y-13400000D02*
G75*
G03*
X82375000Y-13400000I-1400000J0D01*
G01*
D16*
%TO.C,C28*%
X85450000Y-17500000D02*
X89950000Y-17500000D01*
X89950000Y-14300000D02*
X89950000Y-14900000D01*
X89950000Y-17500000D02*
X89950000Y-16900000D01*
X85450000Y-16900000D02*
X85450000Y-17500000D01*
X85450000Y-14300000D02*
X89950000Y-14300000D01*
X85450000Y-14900000D02*
X85450000Y-14300000D01*
D19*
%TO.C,SW2*%
X950000Y-7650000D02*
X950000Y-12150000D01*
X2320000Y-12450000D02*
X4680000Y-12450000D01*
X4680000Y-7350000D02*
X2320000Y-7350000D01*
X6050000Y-7650000D02*
X6050000Y-12150000D01*
D15*
X1725000Y-14150000D02*
G75*
G03*
X1725000Y-14150000I-100000J0D01*
G01*
D14*
%TO.C,R17*%
X41985000Y-11052064D02*
X41985000Y-10597936D01*
X40515000Y-11052064D02*
X40515000Y-10597936D01*
%TO.C,R9*%
X35395000Y-12240276D02*
X35395000Y-12749724D01*
X34350000Y-12240276D02*
X34350000Y-12749724D01*
%TO.C,C7*%
X44810000Y-41116233D02*
X44810000Y-41408767D01*
X43790000Y-41116233D02*
X43790000Y-41408767D01*
D10*
%TO.C,TP7*%
X78975000Y-13400000D02*
G75*
G03*
X78975000Y-13400000I-1400000J0D01*
G01*
D13*
%TO.C,IC3*%
X45237500Y-13575000D02*
G75*
G03*
X45237500Y-13575000I-125000J0D01*
G01*
D14*
%TO.C,C15*%
X32677500Y-12621267D02*
X32677500Y-12328733D01*
X33697500Y-12621267D02*
X33697500Y-12328733D01*
%TO.C,D7*%
X92135000Y-20425000D02*
X92135000Y-21075000D01*
X92135000Y-20425000D02*
X92135000Y-18750000D01*
X89015000Y-20425000D02*
X89015000Y-21075000D01*
X89015000Y-20425000D02*
X89015000Y-19775000D01*
%TO.C,C30*%
X64638733Y-35175000D02*
X64931267Y-35175000D01*
X64638733Y-36195000D02*
X64931267Y-36195000D01*
D19*
%TO.C,SW1*%
X950000Y-37250000D02*
X950000Y-41750000D01*
X4680000Y-36950000D02*
X2320000Y-36950000D01*
X2320000Y-42050000D02*
X4680000Y-42050000D01*
X6050000Y-37250000D02*
X6050000Y-41750000D01*
D15*
X1725000Y-43750000D02*
G75*
G03*
X1725000Y-43750000I-100000J0D01*
G01*
D14*
%TO.C,C10*%
X54061233Y-35880000D02*
X54353767Y-35880000D01*
X54061233Y-34860000D02*
X54353767Y-34860000D01*
D10*
%TO.C,TP13*%
X56575000Y-46200000D02*
G75*
G03*
X56575000Y-46200000I-1400000J0D01*
G01*
D14*
%TO.C,U2*%
X18360000Y-17785000D02*
X19085000Y-17785000D01*
X13865000Y-17785000D02*
X13865000Y-17060000D01*
X13865000Y-12565000D02*
X13865000Y-13290000D01*
X19085000Y-12565000D02*
X19085000Y-13290000D01*
X14590000Y-17785000D02*
X13865000Y-17785000D01*
X14590000Y-12565000D02*
X13865000Y-12565000D01*
X18360000Y-12565000D02*
X19085000Y-12565000D01*
%TO.C,C9*%
X50923767Y-34850000D02*
X50631233Y-34850000D01*
X50923767Y-35870000D02*
X50631233Y-35870000D01*
%TO.C,C22*%
X62561252Y-515000D02*
X62038748Y-515000D01*
X62561252Y-1985000D02*
X62038748Y-1985000D01*
%TO.C,R11*%
X32297500Y-20345276D02*
X32297500Y-20854724D01*
X31252500Y-20345276D02*
X31252500Y-20854724D01*
%TO.C,R24*%
X88535000Y-20727064D02*
X88535000Y-20272936D01*
X87065000Y-20727064D02*
X87065000Y-20272936D01*
%TO.C,G\u002A\u002A\u002A*%
G36*
X11687566Y-760234D02*
G01*
X11818661Y-760257D01*
X11948984Y-760300D01*
X12078071Y-760363D01*
X12205459Y-760447D01*
X12330682Y-760550D01*
X12453279Y-760674D01*
X12572785Y-760818D01*
X12688737Y-760981D01*
X12800671Y-761165D01*
X12908124Y-761369D01*
X13010631Y-761593D01*
X13107730Y-761836D01*
X13198957Y-762100D01*
X13283847Y-762384D01*
X13361938Y-762688D01*
X13432766Y-763012D01*
X13495868Y-763356D01*
X13550778Y-763720D01*
X13597035Y-764104D01*
X13634175Y-764508D01*
X13661733Y-764933D01*
X13679246Y-765377D01*
X13685115Y-765684D01*
X13767282Y-778156D01*
X13844898Y-800419D01*
X13917842Y-832420D01*
X13985997Y-874105D01*
X14049244Y-925422D01*
X14058508Y-934146D01*
X14112313Y-991536D01*
X14156422Y-1051501D01*
X14191916Y-1115699D01*
X14216793Y-1176747D01*
X14220274Y-1186483D01*
X14223506Y-1195290D01*
X14226498Y-1203577D01*
X14229261Y-1211755D01*
X14231802Y-1220235D01*
X14234132Y-1229425D01*
X14236258Y-1239736D01*
X14238192Y-1251579D01*
X14239940Y-1265363D01*
X14241514Y-1281499D01*
X14242922Y-1300396D01*
X14244173Y-1322464D01*
X14245276Y-1348115D01*
X14246241Y-1377757D01*
X14247076Y-1411801D01*
X14247792Y-1450657D01*
X14248396Y-1494735D01*
X14248899Y-1544446D01*
X14249310Y-1600199D01*
X14249637Y-1662404D01*
X14249890Y-1731472D01*
X14250077Y-1807812D01*
X14250209Y-1891836D01*
X14250295Y-1983952D01*
X14250343Y-2084570D01*
X14250362Y-2194102D01*
X14250363Y-2312958D01*
X14250354Y-2441546D01*
X14250344Y-2580278D01*
X14250341Y-2675245D01*
X14250335Y-2820131D01*
X14250315Y-2954594D01*
X14250278Y-3079029D01*
X14250224Y-3193831D01*
X14250148Y-3299394D01*
X14250050Y-3396113D01*
X14249926Y-3484383D01*
X14249775Y-3564599D01*
X14249593Y-3637155D01*
X14249380Y-3702446D01*
X14249132Y-3760868D01*
X14248848Y-3812814D01*
X14248524Y-3858679D01*
X14248160Y-3898859D01*
X14247751Y-3933748D01*
X14247297Y-3963741D01*
X14246795Y-3989232D01*
X14246243Y-4010617D01*
X14245637Y-4028290D01*
X14244977Y-4042645D01*
X14244260Y-4054079D01*
X14243483Y-4062985D01*
X14242644Y-4069758D01*
X14242275Y-4072054D01*
X14223367Y-4151964D01*
X14195387Y-4226134D01*
X14158044Y-4295146D01*
X14111044Y-4359579D01*
X14080168Y-4394119D01*
X14021169Y-4449232D01*
X13958441Y-4494772D01*
X13890766Y-4531430D01*
X13816928Y-4559895D01*
X13760839Y-4575335D01*
X13712160Y-4586805D01*
X11624340Y-4587396D01*
X11474467Y-4587433D01*
X11327266Y-4587459D01*
X11183108Y-4587475D01*
X11042369Y-4587481D01*
X10905422Y-4587476D01*
X10772640Y-4587462D01*
X10644398Y-4587438D01*
X10521068Y-4587405D01*
X10403026Y-4587362D01*
X10290643Y-4587311D01*
X10184295Y-4587251D01*
X10084354Y-4587183D01*
X9991194Y-4587107D01*
X9905190Y-4587023D01*
X9826715Y-4586932D01*
X9756141Y-4586833D01*
X9693844Y-4586727D01*
X9640197Y-4586615D01*
X9595574Y-4586495D01*
X9560347Y-4586370D01*
X9534892Y-4586238D01*
X9519581Y-4586101D01*
X9514885Y-4585986D01*
X9436946Y-4573628D01*
X9360192Y-4551459D01*
X9286834Y-4520268D01*
X9219081Y-4480844D01*
X9217599Y-4479842D01*
X9190678Y-4459475D01*
X9160212Y-4433042D01*
X9128989Y-4403243D01*
X9099800Y-4372780D01*
X9075436Y-4344354D01*
X9069012Y-4335992D01*
X9026800Y-4270201D01*
X8993010Y-4198677D01*
X8968490Y-4123405D01*
X8958410Y-4076294D01*
X8957478Y-4070144D01*
X8956614Y-4062692D01*
X8955815Y-4053533D01*
X8955078Y-4042264D01*
X8954403Y-4028479D01*
X8953785Y-4011773D01*
X8953222Y-3991743D01*
X8952712Y-3967982D01*
X8952252Y-3940088D01*
X8951840Y-3907654D01*
X8951473Y-3870276D01*
X8951148Y-3827549D01*
X8950864Y-3779069D01*
X8950617Y-3724432D01*
X8950406Y-3663231D01*
X8950227Y-3595064D01*
X8950077Y-3519524D01*
X8949956Y-3436208D01*
X8949859Y-3344710D01*
X8949785Y-3244626D01*
X8949730Y-3135552D01*
X8949693Y-3017081D01*
X8949683Y-2961670D01*
X9414560Y-2961670D01*
X9416043Y-3482273D01*
X9417526Y-4002875D01*
X9429973Y-4029920D01*
X9451567Y-4065244D01*
X9479824Y-4092528D01*
X9513948Y-4111052D01*
X9522963Y-4114126D01*
X9529295Y-4114422D01*
X9546070Y-4114707D01*
X9572917Y-4114982D01*
X9609462Y-4115246D01*
X9655331Y-4115498D01*
X9710152Y-4115737D01*
X9773551Y-4115963D01*
X9845155Y-4116176D01*
X9924591Y-4116375D01*
X10011485Y-4116559D01*
X10105464Y-4116727D01*
X10206155Y-4116880D01*
X10313185Y-4117016D01*
X10426180Y-4117135D01*
X10544767Y-4117236D01*
X10668574Y-4117320D01*
X10797225Y-4117384D01*
X10930350Y-4117429D01*
X11067573Y-4117454D01*
X11208522Y-4117459D01*
X11352824Y-4117443D01*
X11500105Y-4117404D01*
X11608114Y-4117363D01*
X13679706Y-4116461D01*
X13701342Y-4104765D01*
X13733282Y-4081502D01*
X13759000Y-4050185D01*
X13770028Y-4029920D01*
X13782475Y-4002875D01*
X13783905Y-2688523D01*
X13784057Y-2532015D01*
X13784163Y-2386139D01*
X13784219Y-2250706D01*
X13784228Y-2125531D01*
X13784186Y-2010426D01*
X13784095Y-1905204D01*
X13783953Y-1809679D01*
X13783760Y-1723664D01*
X13783515Y-1646972D01*
X13783218Y-1579417D01*
X13782867Y-1520811D01*
X13782463Y-1470967D01*
X13782004Y-1429699D01*
X13781491Y-1396820D01*
X13780922Y-1372144D01*
X13780297Y-1355483D01*
X13779615Y-1346650D01*
X13779475Y-1345822D01*
X13766742Y-1310084D01*
X13744958Y-1278845D01*
X13715595Y-1254113D01*
X13709311Y-1250331D01*
X13679706Y-1233540D01*
X11611499Y-1232160D01*
X11406254Y-1232036D01*
X11211796Y-1231948D01*
X11028097Y-1231895D01*
X10855127Y-1231877D01*
X10692856Y-1231893D01*
X10541255Y-1231945D01*
X10400294Y-1232032D01*
X10269945Y-1232155D01*
X10150176Y-1232312D01*
X10040959Y-1232505D01*
X9942263Y-1232734D01*
X9854061Y-1232998D01*
X9776321Y-1233297D01*
X9709014Y-1233632D01*
X9652111Y-1234003D01*
X9605583Y-1234409D01*
X9569399Y-1234851D01*
X9543530Y-1235329D01*
X9527946Y-1235843D01*
X9522829Y-1236290D01*
X9488574Y-1250900D01*
X9458974Y-1274190D01*
X9436331Y-1304282D01*
X9433874Y-1308878D01*
X9417526Y-1340946D01*
X9416078Y-1918570D01*
X9414631Y-2496194D01*
X9840960Y-2497703D01*
X10267289Y-2499213D01*
X10307973Y-2519322D01*
X10349222Y-2544560D01*
X10375519Y-2568002D01*
X10385731Y-2580725D01*
X10401048Y-2602529D01*
X10421253Y-2633076D01*
X10446131Y-2672027D01*
X10475464Y-2719046D01*
X10509037Y-2773794D01*
X10540086Y-2825060D01*
X10567290Y-2870110D01*
X10592817Y-2912214D01*
X10616125Y-2950486D01*
X10636670Y-2984043D01*
X10653908Y-3011999D01*
X10667295Y-3033470D01*
X10676288Y-3047572D01*
X10680343Y-3053420D01*
X10680494Y-3053531D01*
X10683017Y-3048693D01*
X10689632Y-3034618D01*
X10700047Y-3011959D01*
X10713968Y-2981367D01*
X10731101Y-2943494D01*
X10751154Y-2898993D01*
X10773832Y-2848515D01*
X10798843Y-2792711D01*
X10825893Y-2732236D01*
X10854689Y-2667739D01*
X10884936Y-2599873D01*
X10909899Y-2543782D01*
X10950836Y-2451734D01*
X10987622Y-2369038D01*
X11020512Y-2295165D01*
X11049757Y-2229586D01*
X11075610Y-2171771D01*
X11098325Y-2121192D01*
X11118153Y-2077319D01*
X11135349Y-2039623D01*
X11150164Y-2007576D01*
X11162851Y-1980648D01*
X11173664Y-1958309D01*
X11182854Y-1940031D01*
X11190676Y-1925285D01*
X11197381Y-1913541D01*
X11203222Y-1904271D01*
X11208453Y-1896944D01*
X11213326Y-1891033D01*
X11218093Y-1886008D01*
X11223009Y-1881339D01*
X11228324Y-1876498D01*
X11229004Y-1875878D01*
X11269907Y-1845140D01*
X11314080Y-1824345D01*
X11360654Y-1813743D01*
X11408761Y-1813587D01*
X11431517Y-1817165D01*
X11475364Y-1830150D01*
X11513934Y-1850379D01*
X11550072Y-1879429D01*
X11558404Y-1887589D01*
X11567334Y-1896740D01*
X11583069Y-1913003D01*
X11604935Y-1935676D01*
X11632256Y-1964056D01*
X11664358Y-1997442D01*
X11700566Y-2035131D01*
X11740204Y-2076421D01*
X11782598Y-2120610D01*
X11827072Y-2166994D01*
X11866430Y-2208064D01*
X12142775Y-2496508D01*
X12521803Y-2496640D01*
X12599392Y-2496747D01*
X12669935Y-2497008D01*
X12732946Y-2497415D01*
X12787936Y-2497962D01*
X12834419Y-2498641D01*
X12871905Y-2499447D01*
X12899908Y-2500372D01*
X12917939Y-2501410D01*
X12924550Y-2502241D01*
X12970125Y-2517722D01*
X13009389Y-2540895D01*
X13042116Y-2570508D01*
X13068077Y-2605309D01*
X13087046Y-2644046D01*
X13098796Y-2685465D01*
X13103099Y-2728314D01*
X13099728Y-2771340D01*
X13088457Y-2813292D01*
X13069057Y-2852916D01*
X13041301Y-2888961D01*
X13004963Y-2920173D01*
X13000874Y-2922963D01*
X12991042Y-2929614D01*
X12982233Y-2935465D01*
X12973724Y-2940564D01*
X12964791Y-2944961D01*
X12954711Y-2948705D01*
X12942760Y-2951844D01*
X12928216Y-2954428D01*
X12910354Y-2956507D01*
X12888451Y-2958128D01*
X12861785Y-2959341D01*
X12829631Y-2960196D01*
X12791266Y-2960741D01*
X12745967Y-2961026D01*
X12693011Y-2961099D01*
X12631674Y-2961010D01*
X12561232Y-2960807D01*
X12480962Y-2960541D01*
X12448751Y-2960436D01*
X11986734Y-2958966D01*
X11956985Y-2946899D01*
X11934864Y-2935939D01*
X11912229Y-2921710D01*
X11902641Y-2914445D01*
X11894292Y-2906721D01*
X11879269Y-2891955D01*
X11858352Y-2870945D01*
X11832320Y-2844490D01*
X11801954Y-2813387D01*
X11768034Y-2778434D01*
X11731339Y-2740428D01*
X11692651Y-2700167D01*
X11671143Y-2677705D01*
X11632476Y-2637320D01*
X11596025Y-2599343D01*
X11562479Y-2564484D01*
X11532524Y-2533455D01*
X11506849Y-2506963D01*
X11486140Y-2485721D01*
X11471087Y-2470437D01*
X11462376Y-2461823D01*
X11460453Y-2460139D01*
X11457818Y-2464828D01*
X11451067Y-2478807D01*
X11440472Y-2501477D01*
X11426303Y-2532240D01*
X11408831Y-2570498D01*
X11388326Y-2615652D01*
X11365061Y-2667103D01*
X11339304Y-2724253D01*
X11311328Y-2786502D01*
X11281402Y-2853254D01*
X11249798Y-2923909D01*
X11216786Y-2997868D01*
X11188927Y-3060400D01*
X11154622Y-3137341D01*
X11121258Y-3211932D01*
X11089127Y-3283529D01*
X11058523Y-3351490D01*
X11029738Y-3415174D01*
X11003065Y-3473937D01*
X10978797Y-3527137D01*
X10957226Y-3574131D01*
X10938646Y-3614279D01*
X10923349Y-3646936D01*
X10911628Y-3671461D01*
X10903776Y-3687211D01*
X10900631Y-3692836D01*
X10870863Y-3728203D01*
X10834072Y-3756392D01*
X10791903Y-3776691D01*
X10746006Y-3788389D01*
X10698027Y-3790774D01*
X10678149Y-3788896D01*
X10643247Y-3780350D01*
X10607217Y-3765130D01*
X10573878Y-3745211D01*
X10547049Y-3722571D01*
X10544345Y-3719650D01*
X10537869Y-3710927D01*
X10526307Y-3693696D01*
X10510138Y-3668722D01*
X10489841Y-3636773D01*
X10465894Y-3598616D01*
X10438777Y-3555020D01*
X10408967Y-3506750D01*
X10376944Y-3454574D01*
X10343186Y-3399260D01*
X10308172Y-3341574D01*
X10299714Y-3327593D01*
X10078496Y-2961670D01*
X9414560Y-2961670D01*
X8949683Y-2961670D01*
X8949671Y-2888811D01*
X8949661Y-2750336D01*
X8949660Y-2675000D01*
X8949664Y-2531119D01*
X8949680Y-2397650D01*
X8949709Y-2274189D01*
X8949754Y-2160332D01*
X8949818Y-2055674D01*
X8949903Y-1959810D01*
X8950012Y-1872336D01*
X8950146Y-1792847D01*
X8950310Y-1720938D01*
X8950504Y-1656204D01*
X8950733Y-1598241D01*
X8950997Y-1546645D01*
X8951301Y-1501009D01*
X8951646Y-1460931D01*
X8952034Y-1426004D01*
X8952469Y-1395825D01*
X8952953Y-1369989D01*
X8953488Y-1348090D01*
X8954078Y-1329725D01*
X8954723Y-1314488D01*
X8955428Y-1301975D01*
X8956195Y-1291781D01*
X8957025Y-1283502D01*
X8957922Y-1276733D01*
X8958410Y-1273707D01*
X8976834Y-1197121D01*
X9005045Y-1123065D01*
X9042198Y-1053526D01*
X9069012Y-1014009D01*
X9092186Y-985682D01*
X9121272Y-954518D01*
X9153367Y-923316D01*
X9185567Y-894876D01*
X9214969Y-871999D01*
X9219641Y-868755D01*
X9284368Y-830966D01*
X9355324Y-800821D01*
X9430415Y-779051D01*
X9507549Y-766386D01*
X9514885Y-765684D01*
X9525439Y-765227D01*
X9546348Y-764789D01*
X9577146Y-764372D01*
X9617372Y-763974D01*
X9666561Y-763597D01*
X9724249Y-763239D01*
X9789974Y-762902D01*
X9863271Y-762585D01*
X9943677Y-762287D01*
X10030728Y-762010D01*
X10123960Y-761753D01*
X10222911Y-761516D01*
X10327116Y-761299D01*
X10436111Y-761102D01*
X10549434Y-760925D01*
X10666621Y-760768D01*
X10787207Y-760631D01*
X10910730Y-760514D01*
X11036725Y-760417D01*
X11164729Y-760340D01*
X11294279Y-760283D01*
X11424911Y-760247D01*
X11556161Y-760231D01*
X11687566Y-760234D01*
G37*
D15*
%TO.C,IC6*%
X69410000Y-12780000D02*
X67110000Y-12780000D01*
X67110000Y-9780000D02*
X69410000Y-9780000D01*
X71185000Y-12830000D02*
X69760000Y-12830000D01*
X69410000Y-9780000D02*
X69410000Y-12780000D01*
X67110000Y-12780000D02*
X67110000Y-9780000D01*
D14*
%TO.C,U3*%
X41250000Y-24300000D02*
X39500000Y-24300000D01*
X42000000Y-49800000D02*
X24000000Y-49800000D01*
X42000000Y-49800000D02*
X42000000Y-43050000D01*
X24750000Y-24300000D02*
X26500000Y-24300000D01*
X24000000Y-49800000D02*
X24000000Y-43050000D01*
X24000000Y-43860000D02*
X42000000Y-43860000D01*
X24000000Y-25050000D02*
X24000000Y-24300000D01*
X42000000Y-25050000D02*
X42000000Y-24300000D01*
X24000000Y-24300000D02*
X24750000Y-24300000D01*
X42000000Y-24300000D02*
X41250000Y-24300000D01*
%TO.C,R19*%
X53765000Y-5792936D02*
X53765000Y-6247064D01*
X55235000Y-5792936D02*
X55235000Y-6247064D01*
%TO.C,R20*%
X80047936Y-4390000D02*
X80502064Y-4390000D01*
X80047936Y-5860000D02*
X80502064Y-5860000D01*
%TO.C,C16*%
X46638767Y-14160000D02*
X46346233Y-14160000D01*
X46638767Y-15180000D02*
X46346233Y-15180000D01*
%TO.C,C14*%
X28466267Y-17120000D02*
X28173733Y-17120000D01*
X28466267Y-16100000D02*
X28173733Y-16100000D01*
%TO.C,R23*%
X86905000Y-41732936D02*
X86905000Y-42187064D01*
X88375000Y-41732936D02*
X88375000Y-42187064D01*
%TO.C,C24*%
X89065000Y-8338748D02*
X89065000Y-8861252D01*
X90535000Y-8338748D02*
X90535000Y-8861252D01*
%TO.C,C3*%
X56020000Y-23321267D02*
X56020000Y-23028733D01*
X57040000Y-23321267D02*
X57040000Y-23028733D01*
%TO.C,C21*%
X27591252Y-545000D02*
X27068748Y-545000D01*
X27591252Y-2015000D02*
X27068748Y-2015000D01*
D10*
%TO.C,TP12*%
X60050000Y-46200000D02*
G75*
G03*
X60050000Y-46200000I-1400000J0D01*
G01*
D14*
%TO.C,D2*%
X43110000Y-3150000D02*
X43110000Y-290000D01*
X43110000Y-290000D02*
X41190000Y-290000D01*
X41190000Y-290000D02*
X41190000Y-3150000D01*
D15*
%TO.C,U8*%
X80000000Y-11350000D02*
X76800000Y-11350000D01*
X76800000Y-6450000D02*
X80000000Y-6450000D01*
X76800000Y-11350000D02*
X76800000Y-6450000D01*
X81850000Y-11480000D02*
X80350000Y-11480000D01*
X80000000Y-6450000D02*
X80000000Y-11350000D01*
D14*
%TO.C,R22*%
X88335000Y-8372936D02*
X88335000Y-8827064D01*
X86865000Y-8372936D02*
X86865000Y-8827064D01*
%TO.C,C11*%
X57501233Y-35870000D02*
X57793767Y-35870000D01*
X57501233Y-34850000D02*
X57793767Y-34850000D01*
D15*
%TO.C,IC7*%
X69410000Y-30920000D02*
X69410000Y-33920000D01*
X67110000Y-30920000D02*
X69410000Y-30920000D01*
X69410000Y-33920000D02*
X67110000Y-33920000D01*
X67110000Y-33920000D02*
X67110000Y-30920000D01*
X71185000Y-33970000D02*
X69760000Y-33970000D01*
D14*
%TO.C,C4*%
X3696267Y-35440000D02*
X3403733Y-35440000D01*
X3696267Y-34420000D02*
X3403733Y-34420000D01*
%TO.C,R14*%
X47885000Y-5692936D02*
X47885000Y-6147064D01*
X46415000Y-5692936D02*
X46415000Y-6147064D01*
%TO.C,C19*%
X23695000Y-6041252D02*
X23695000Y-5518748D01*
X25165000Y-6041252D02*
X25165000Y-5518748D01*
%TO.C,R13*%
X45335000Y-5722936D02*
X45335000Y-6177064D01*
X43865000Y-5722936D02*
X43865000Y-6177064D01*
D10*
%TO.C,TP6*%
X82370000Y-30560000D02*
G75*
G03*
X82370000Y-30560000I-1400000J0D01*
G01*
D14*
%TO.C,C12*%
X47333767Y-21840000D02*
X47041233Y-21840000D01*
X47333767Y-22860000D02*
X47041233Y-22860000D01*
D10*
%TO.C,TP8*%
X79010000Y-30570000D02*
G75*
G03*
X79010000Y-30570000I-1400000J0D01*
G01*
D15*
%TO.C,U9*%
X80010000Y-32610000D02*
X80010000Y-37510000D01*
X81860000Y-37640000D02*
X80360000Y-37640000D01*
X76810000Y-37510000D02*
X76810000Y-32610000D01*
X76810000Y-32610000D02*
X80010000Y-32610000D01*
X80010000Y-37510000D02*
X76810000Y-37510000D01*
%TO.C,IC5*%
X55420000Y-11300000D02*
X59120000Y-11300000D01*
X55420000Y-16300000D02*
X55420000Y-11300000D01*
X60945000Y-16650000D02*
X59470000Y-16650000D01*
X59120000Y-11300000D02*
X59120000Y-16300000D01*
X59120000Y-16300000D02*
X55420000Y-16300000D01*
%TO.C,IC2*%
X49150000Y-31650000D02*
X49150000Y-25350000D01*
X55450000Y-25350000D02*
X55450000Y-31650000D01*
X49150000Y-25350000D02*
X55450000Y-25350000D01*
X55450000Y-31650000D02*
X49150000Y-31650000D01*
D13*
X55925000Y-23775000D02*
G75*
G03*
X55925000Y-23775000I-125000J0D01*
G01*
D14*
%TO.C,D4*%
X48110000Y-290000D02*
X46190000Y-290000D01*
X48110000Y-3150000D02*
X48110000Y-290000D01*
X46190000Y-290000D02*
X46190000Y-3150000D01*
%TO.C,R8*%
X15704724Y-34322500D02*
X15195276Y-34322500D01*
X15704724Y-33277500D02*
X15195276Y-33277500D01*
%TO.C,C26*%
X86235000Y-8338748D02*
X86235000Y-8861252D01*
X84765000Y-8338748D02*
X84765000Y-8861252D01*
%TO.C,R7*%
X50385000Y-5792936D02*
X50385000Y-6247064D01*
X48915000Y-5792936D02*
X48915000Y-6247064D01*
D10*
%TO.C,TP11*%
X75600000Y-25200000D02*
G75*
G03*
X75600000Y-25200000I-1400000J0D01*
G01*
D15*
%TO.C,IC1*%
X13800000Y-26712000D02*
X13200000Y-26712000D01*
X13200000Y-23788000D02*
X13800000Y-23788000D01*
X15350000Y-26850000D02*
X14150000Y-26850000D01*
X13200000Y-26712000D02*
X13200000Y-23788000D01*
X13800000Y-23788000D02*
X13800000Y-26712000D01*
%TO.C,Q2*%
X18850000Y-31350000D02*
X19250000Y-31350000D01*
X18850000Y-34250000D02*
X18850000Y-31350000D01*
X19250000Y-31350000D02*
X19250000Y-34250000D01*
X19250000Y-34250000D02*
X18850000Y-34250000D01*
X17400000Y-31300000D02*
X18500000Y-31300000D01*
D13*
%TO.C,IC4*%
X30400000Y-15100000D02*
G75*
G03*
X30400000Y-15100000I-125000J0D01*
G01*
D14*
%TO.C,R10*%
X25947500Y-17282776D02*
X25947500Y-17792224D01*
X24902500Y-17282776D02*
X24902500Y-17792224D01*
D10*
%TO.C,TP17*%
X24050000Y-21450000D02*
G75*
G03*
X24050000Y-21450000I-1400000J0D01*
G01*
D14*
%TO.C,D8*%
X92160000Y-24550000D02*
X92160000Y-25200000D01*
X89040000Y-24550000D02*
X89040000Y-26225000D01*
X89040000Y-24550000D02*
X89040000Y-23900000D01*
X92160000Y-24550000D02*
X92160000Y-23900000D01*
%TO.C,R5*%
X16972500Y-10045276D02*
X16972500Y-10554724D01*
X15927500Y-10045276D02*
X15927500Y-10554724D01*
%TO.C,R25*%
X88565000Y-24382936D02*
X88565000Y-24837064D01*
X87095000Y-24382936D02*
X87095000Y-24837064D01*
%TO.C,D6*%
X55460000Y-3200000D02*
X55460000Y-340000D01*
X53540000Y-340000D02*
X53540000Y-3200000D01*
X55460000Y-340000D02*
X53540000Y-340000D01*
%TO.C,R16*%
X44065000Y-11042064D02*
X44065000Y-10587936D01*
X42595000Y-11042064D02*
X42595000Y-10587936D01*
%TO.C,R6*%
X15372500Y-10554724D02*
X15372500Y-10045276D01*
X14327500Y-10554724D02*
X14327500Y-10045276D01*
%TO.C,R4*%
X19927500Y-9320276D02*
X19927500Y-9829724D01*
X20972500Y-9320276D02*
X20972500Y-9829724D01*
D15*
%TO.C,IC8*%
X62365000Y-41385000D02*
X61965000Y-41385000D01*
X64115000Y-41535000D02*
X62715000Y-41535000D01*
X61965000Y-41385000D02*
X61965000Y-38485000D01*
X62365000Y-38485000D02*
X62365000Y-41385000D01*
X61965000Y-38485000D02*
X62365000Y-38485000D01*
D14*
%TO.C,C20*%
X60135000Y-6011252D02*
X60135000Y-5488748D01*
X58665000Y-6011252D02*
X58665000Y-5488748D01*
%TO.C,R2*%
X9125276Y-23227500D02*
X9634724Y-23227500D01*
X9125276Y-24272500D02*
X9634724Y-24272500D01*
%TO.C,C32*%
X65125000Y-40431267D02*
X65125000Y-40138733D01*
X66145000Y-40431267D02*
X66145000Y-40138733D01*
%TO.C,R21*%
X80262936Y-47555000D02*
X80717064Y-47555000D01*
X80262936Y-49025000D02*
X80717064Y-49025000D01*
D10*
%TO.C,TP16*%
X19925000Y-40525000D02*
G75*
G03*
X19925000Y-40525000I-1400000J0D01*
G01*
%TO.C,TP9*%
X78080000Y-3890000D02*
G75*
G03*
X78080000Y-3890000I-1400000J0D01*
G01*
%TO.C,TP3*%
X74700000Y-3850000D02*
G75*
G03*
X74700000Y-3850000I-1400000J0D01*
G01*
D14*
%TO.C,C13*%
X45421267Y-25165000D02*
X45128733Y-25165000D01*
X45421267Y-26185000D02*
X45128733Y-26185000D01*
D15*
%TO.C,U10*%
X65775000Y-21425000D02*
X70675000Y-21425000D01*
X70805000Y-19575000D02*
X70805000Y-21075000D01*
X70675000Y-24625000D02*
X65775000Y-24625000D01*
X65775000Y-24625000D02*
X65775000Y-21425000D01*
X70675000Y-21425000D02*
X70675000Y-24625000D01*
D14*
%TO.C,C2*%
X58070000Y-24803733D02*
X58070000Y-25096267D01*
X59090000Y-24803733D02*
X59090000Y-25096267D01*
%TO.C,U6*%
X30060000Y-2430000D02*
X28560000Y-2430000D01*
X28560000Y-2430000D02*
X28560000Y-2700000D01*
X28560000Y-9330000D02*
X28560000Y-9060000D01*
X28560000Y-9060000D02*
X27460000Y-9060000D01*
X30060000Y-9330000D02*
X28560000Y-9330000D01*
X28560000Y-2700000D02*
X25730000Y-2700000D01*
%TO.C,R15*%
X15704724Y-36877500D02*
X15195276Y-36877500D01*
X15704724Y-37922500D02*
X15195276Y-37922500D01*
%TO.C,C23*%
X22465000Y-15153733D02*
X22465000Y-15446267D01*
X23485000Y-15153733D02*
X23485000Y-15446267D01*
%TO.C,R18*%
X51365000Y-5792936D02*
X51365000Y-6247064D01*
X52835000Y-5792936D02*
X52835000Y-6247064D01*
%TO.C,D3*%
X45560000Y-3150000D02*
X45560000Y-290000D01*
X45560000Y-290000D02*
X43640000Y-290000D01*
X43640000Y-290000D02*
X43640000Y-3150000D01*
%TO.C,R3*%
X18202500Y-9295276D02*
X18202500Y-9804724D01*
X19247500Y-9295276D02*
X19247500Y-9804724D01*
%TO.C,R12*%
X41415000Y-5697936D02*
X41415000Y-6152064D01*
X42885000Y-5697936D02*
X42885000Y-6152064D01*
D15*
%TO.C,Q1*%
X18850000Y-34950000D02*
X19250000Y-34950000D01*
X17400000Y-34900000D02*
X18500000Y-34900000D01*
X18850000Y-37850000D02*
X18850000Y-34950000D01*
X19250000Y-37850000D02*
X18850000Y-37850000D01*
X19250000Y-34950000D02*
X19250000Y-37850000D01*
D14*
%TO.C,C17*%
X24910000Y-14236267D02*
X24910000Y-13943733D01*
X25930000Y-14236267D02*
X25930000Y-13943733D01*
D10*
%TO.C,TP4*%
X97300000Y-30300000D02*
G75*
G03*
X97300000Y-30300000I-1400000J0D01*
G01*
D14*
%TO.C,C18*%
X47336267Y-23390000D02*
X47043733Y-23390000D01*
X47336267Y-24410000D02*
X47043733Y-24410000D01*
%TO.C,C1*%
X21960000Y-15153733D02*
X21960000Y-15446267D01*
X20940000Y-15153733D02*
X20940000Y-15446267D01*
D10*
%TO.C,TP14*%
X71150000Y-36725000D02*
G75*
G03*
X71150000Y-36725000I-1400000J0D01*
G01*
D15*
%TO.C,K1*%
X91000000Y-1110000D02*
X91000000Y-5890000D01*
X82750000Y-1505000D02*
X84650000Y-1505000D01*
X85000000Y-1110000D02*
X91000000Y-1110000D01*
X85000000Y-5890000D02*
X85000000Y-1110000D01*
X91000000Y-5890000D02*
X85000000Y-5890000D01*
D14*
%TO.C,C27*%
X86225000Y-42193752D02*
X86225000Y-41671248D01*
X84755000Y-42193752D02*
X84755000Y-41671248D01*
%TO.C,D5*%
X53060000Y-360000D02*
X51140000Y-360000D01*
X53060000Y-3220000D02*
X53060000Y-360000D01*
X51140000Y-360000D02*
X51140000Y-3220000D01*
%TD*%
%LPC*%
D20*
%TO.C,TP15*%
X62225000Y-33425000D03*
%TD*%
%TO.C,TP1*%
X11400000Y-9000000D03*
%TD*%
D21*
%TO.C,C6*%
X4522500Y-14580000D03*
X2797500Y-14580000D03*
%TD*%
D22*
%TO.C,D1*%
X49650000Y-1125000D03*
X49650000Y-3175000D03*
%TD*%
D23*
%TO.C,R1*%
X8467500Y-26750000D03*
X10292500Y-26750000D03*
%TD*%
D24*
%TO.C,C31*%
X63922500Y-37285000D03*
X65647500Y-37285000D03*
%TD*%
D25*
%TO.C,K2*%
X83650000Y-45310000D03*
X83650000Y-47850000D03*
X92250000Y-47850000D03*
X92250000Y-45310000D03*
%TD*%
D21*
%TO.C,C5*%
X48230000Y-35350000D03*
X46505000Y-35350000D03*
%TD*%
D26*
%TO.C,C25*%
X89780000Y-42947500D03*
X89780000Y-40872500D03*
%TD*%
D27*
%TO.C,C29*%
X89982500Y-29210000D03*
X85457500Y-29210000D03*
%TD*%
D28*
%TO.C,SW3*%
X16990000Y-46125000D03*
X14450000Y-46125000D03*
X11910000Y-46125000D03*
%TD*%
D20*
%TO.C,TP2*%
X38330000Y-3880000D03*
%TD*%
D29*
%TO.C,U1*%
X5015621Y-22099060D03*
X5015621Y-27898908D03*
D30*
X5515748Y-20673863D03*
X5515748Y-29324105D03*
D31*
X1315850Y-29324105D03*
X1315850Y-20673863D03*
D32*
X6284100Y-21648971D03*
X6284100Y-22449073D03*
X6284100Y-23749047D03*
X6284100Y-24749047D03*
X6284100Y-25248920D03*
X6284100Y-26248666D03*
X6284100Y-27549149D03*
X6284100Y-28348997D03*
X6284100Y-28049022D03*
X6284100Y-27248920D03*
X6284100Y-26749047D03*
X6284100Y-25749047D03*
X6284100Y-24248920D03*
X6284100Y-23248920D03*
X6284100Y-22749047D03*
X6284100Y-21948946D03*
%TD*%
D33*
%TO.C,C8*%
X45860000Y-40400000D03*
X45860000Y-42125000D03*
%TD*%
D34*
%TO.C,U7*%
X61800000Y-3570000D03*
D35*
X68100000Y-5850000D03*
D34*
X61800000Y-8130000D03*
%TD*%
D20*
%TO.C,TP10*%
X74200000Y-30570000D03*
%TD*%
%TO.C,TP5*%
X80975000Y-13400000D03*
%TD*%
D27*
%TO.C,C28*%
X85437500Y-15900000D03*
X89962500Y-15900000D03*
%TD*%
D36*
%TO.C,SW2*%
X1625000Y-12900000D03*
X1625000Y-6900000D03*
X5375000Y-12900000D03*
X5375000Y-6900000D03*
%TD*%
D37*
%TO.C,R17*%
X41250000Y-11825000D03*
X41250000Y-9825000D03*
%TD*%
D38*
%TO.C,R9*%
X34872500Y-11582500D03*
X34872500Y-13407500D03*
%TD*%
D39*
%TO.C,H4*%
X97000000Y-47000000D03*
D40*
X97000000Y-47000000D03*
%TD*%
D33*
%TO.C,C7*%
X44300000Y-40400000D03*
X44300000Y-42125000D03*
%TD*%
D20*
%TO.C,TP7*%
X77575000Y-13400000D03*
%TD*%
D41*
%TO.C,IC3*%
X45762500Y-13200000D03*
X46262500Y-13200000D03*
X46762500Y-13200000D03*
X47262500Y-13200000D03*
X47262500Y-11200000D03*
X46762500Y-11200000D03*
X46262500Y-11200000D03*
X45762500Y-11200000D03*
D42*
X46512500Y-12200000D03*
%TD*%
D43*
%TO.C,C15*%
X33187500Y-13337500D03*
X33187500Y-11612500D03*
%TD*%
D44*
%TO.C,D7*%
X91525000Y-19487500D03*
X89625000Y-19487500D03*
X90575000Y-21362500D03*
%TD*%
D24*
%TO.C,C30*%
X63922500Y-35685000D03*
X65647500Y-35685000D03*
%TD*%
D36*
%TO.C,SW1*%
X1625000Y-42500000D03*
X1625000Y-36500000D03*
X5375000Y-42500000D03*
X5375000Y-36500000D03*
%TD*%
D24*
%TO.C,C10*%
X53345000Y-35370000D03*
X55070000Y-35370000D03*
%TD*%
D20*
%TO.C,TP13*%
X55175000Y-46200000D03*
%TD*%
D45*
%TO.C,U2*%
X18925000Y-16675000D03*
X18925000Y-16175000D03*
X18925000Y-15675000D03*
X18925000Y-15175000D03*
X18925000Y-14675000D03*
X18925000Y-14175000D03*
X18925000Y-13675000D03*
D46*
X17975000Y-12725000D03*
X17475000Y-12725000D03*
X16975000Y-12725000D03*
X16475000Y-12725000D03*
X15975000Y-12725000D03*
X15475000Y-12725000D03*
X14975000Y-12725000D03*
D45*
X14025000Y-13675000D03*
X14025000Y-14175000D03*
X14025000Y-14675000D03*
X14025000Y-15175000D03*
X14025000Y-15675000D03*
X14025000Y-16175000D03*
X14025000Y-16675000D03*
D46*
X14975000Y-17625000D03*
X15475000Y-17625000D03*
X15975000Y-17625000D03*
X16475000Y-17625000D03*
X16975000Y-17625000D03*
X17475000Y-17625000D03*
X17975000Y-17625000D03*
D47*
X16475000Y-15175000D03*
%TD*%
D21*
%TO.C,C9*%
X51640000Y-35360000D03*
X49915000Y-35360000D03*
%TD*%
D48*
%TO.C,C22*%
X63337500Y-1250000D03*
X61262500Y-1250000D03*
%TD*%
D38*
%TO.C,R11*%
X31775000Y-19687500D03*
X31775000Y-21512500D03*
%TD*%
D37*
%TO.C,R24*%
X87800000Y-21500000D03*
X87800000Y-19500000D03*
%TD*%
D49*
%TO.C,IC6*%
X70472000Y-12255000D03*
X70472000Y-11605000D03*
X70472000Y-10955000D03*
X70472000Y-10305000D03*
X66048000Y-10305000D03*
X66048000Y-10955000D03*
X66048000Y-11605000D03*
X66048000Y-12255000D03*
%TD*%
D50*
%TO.C,U3*%
X41750000Y-42310000D03*
X41750000Y-41040000D03*
X41750000Y-39770000D03*
X41750000Y-38500000D03*
X41750000Y-37230000D03*
X41750000Y-35960000D03*
X41750000Y-34690000D03*
X41750000Y-33420000D03*
X41750000Y-32150000D03*
X41750000Y-30880000D03*
X41750000Y-29610000D03*
X41750000Y-28340000D03*
X41750000Y-27070000D03*
X41750000Y-25800000D03*
D51*
X38720000Y-24550000D03*
X37450000Y-24550000D03*
X36180000Y-24550000D03*
X34910000Y-24550000D03*
X33640000Y-24550000D03*
X32370000Y-24550000D03*
X31100000Y-24550000D03*
X29830000Y-24550000D03*
X28560000Y-24550000D03*
X27290000Y-24550000D03*
D50*
X24250000Y-25800000D03*
X24250000Y-27070000D03*
X24250000Y-28340000D03*
X24250000Y-29610000D03*
X24250000Y-30880000D03*
X24250000Y-32150000D03*
X24250000Y-33420000D03*
X24250000Y-34690000D03*
X24250000Y-35960000D03*
X24250000Y-37230000D03*
X24250000Y-38500000D03*
X24250000Y-39770000D03*
X24250000Y-41040000D03*
X24250000Y-42310000D03*
D52*
X33100000Y-34590000D03*
X34500000Y-34590000D03*
X35900000Y-35990000D03*
X33100000Y-33190000D03*
X35900000Y-34590000D03*
X34500000Y-33190000D03*
X34500000Y-35990000D03*
X35900000Y-33190000D03*
X33100000Y-35990000D03*
%TD*%
D53*
%TO.C,R19*%
X54500000Y-5020000D03*
X54500000Y-7020000D03*
%TD*%
D54*
%TO.C,R20*%
X79275000Y-5125000D03*
X81275000Y-5125000D03*
%TD*%
D21*
%TO.C,C16*%
X47355000Y-14670000D03*
X45630000Y-14670000D03*
%TD*%
D39*
%TO.C,H1*%
X3000000Y-3000000D03*
D40*
X3000000Y-3000000D03*
%TD*%
D21*
%TO.C,C14*%
X29182500Y-16610000D03*
X27457500Y-16610000D03*
%TD*%
D53*
%TO.C,R23*%
X87640000Y-40960000D03*
X87640000Y-42960000D03*
%TD*%
D55*
%TO.C,C24*%
X89800000Y-7562500D03*
X89800000Y-9637500D03*
%TD*%
D43*
%TO.C,C3*%
X56530000Y-24037500D03*
X56530000Y-22312500D03*
%TD*%
D48*
%TO.C,C21*%
X28367500Y-1280000D03*
X26292500Y-1280000D03*
%TD*%
D20*
%TO.C,TP12*%
X58650000Y-46200000D03*
%TD*%
D40*
%TO.C,H2*%
X97000000Y-3000000D03*
D39*
X97000000Y-3000000D03*
%TD*%
D22*
%TO.C,D2*%
X42150000Y-1125000D03*
X42150000Y-3175000D03*
%TD*%
D56*
%TO.C,U8*%
X81100000Y-10805000D03*
X81100000Y-9535000D03*
X81100000Y-8265000D03*
X81100000Y-6995000D03*
X75700000Y-6995000D03*
X75700000Y-8265000D03*
X75700000Y-9535000D03*
X75700000Y-10805000D03*
%TD*%
D53*
%TO.C,R22*%
X87600000Y-7600000D03*
X87600000Y-9600000D03*
%TD*%
D24*
%TO.C,C11*%
X56785000Y-35360000D03*
X58510000Y-35360000D03*
%TD*%
D49*
%TO.C,IC7*%
X70472000Y-33395000D03*
X70472000Y-32745000D03*
X70472000Y-32095000D03*
X70472000Y-31445000D03*
X66048000Y-31445000D03*
X66048000Y-32095000D03*
X66048000Y-32745000D03*
X66048000Y-33395000D03*
%TD*%
D21*
%TO.C,C4*%
X4412500Y-34930000D03*
X2687500Y-34930000D03*
%TD*%
D53*
%TO.C,R14*%
X47150000Y-4920000D03*
X47150000Y-6920000D03*
%TD*%
D26*
%TO.C,C19*%
X24430000Y-6817500D03*
X24430000Y-4742500D03*
%TD*%
D53*
%TO.C,R13*%
X44600000Y-4950000D03*
X44600000Y-6950000D03*
%TD*%
D20*
%TO.C,TP6*%
X80970000Y-30560000D03*
%TD*%
D21*
%TO.C,C12*%
X48050000Y-22350000D03*
X46325000Y-22350000D03*
%TD*%
D20*
%TO.C,TP8*%
X77610000Y-30570000D03*
%TD*%
D56*
%TO.C,U9*%
X81110000Y-36965000D03*
X81110000Y-35695000D03*
X81110000Y-34425000D03*
X81110000Y-33155000D03*
X75710000Y-33155000D03*
X75710000Y-34425000D03*
X75710000Y-35695000D03*
X75710000Y-36965000D03*
%TD*%
D57*
%TO.C,IC5*%
X60208000Y-16075000D03*
X60208000Y-15425000D03*
X60208000Y-14775000D03*
X60208000Y-14125000D03*
X60208000Y-13475000D03*
X60208000Y-12825000D03*
X60208000Y-12175000D03*
X60208000Y-11525000D03*
X54332000Y-11525000D03*
X54332000Y-12175000D03*
X54332000Y-12825000D03*
X54332000Y-13475000D03*
X54332000Y-14125000D03*
X54332000Y-14775000D03*
X54332000Y-15425000D03*
X54332000Y-16075000D03*
%TD*%
D58*
%TO.C,IC2*%
X55050000Y-24262000D03*
X54550000Y-24262000D03*
X54050000Y-24262000D03*
X53550000Y-24262000D03*
X53050000Y-24262000D03*
X52550000Y-24262000D03*
X52050000Y-24262000D03*
X51550000Y-24262000D03*
X51050000Y-24262000D03*
X50550000Y-24262000D03*
X50050000Y-24262000D03*
X49550000Y-24262000D03*
D59*
X48062000Y-25750000D03*
X48062000Y-26250000D03*
X48062000Y-26750000D03*
X48062000Y-27250000D03*
X48062000Y-27750000D03*
X48062000Y-28250000D03*
X48062000Y-28750000D03*
X48062000Y-29250000D03*
X48062000Y-29750000D03*
X48062000Y-30250000D03*
X48062000Y-30750000D03*
X48062000Y-31250000D03*
D58*
X49550000Y-32738000D03*
X50050000Y-32738000D03*
X50550000Y-32738000D03*
X51050000Y-32738000D03*
X51550000Y-32738000D03*
X52050000Y-32738000D03*
X52550000Y-32738000D03*
X53050000Y-32738000D03*
X53550000Y-32738000D03*
X54050000Y-32738000D03*
X54550000Y-32738000D03*
X55050000Y-32738000D03*
D59*
X56538000Y-31250000D03*
X56538000Y-30750000D03*
X56538000Y-30250000D03*
X56538000Y-29750000D03*
X56538000Y-29250000D03*
X56538000Y-28750000D03*
X56538000Y-28250000D03*
X56538000Y-27750000D03*
X56538000Y-27250000D03*
X56538000Y-26750000D03*
X56538000Y-26250000D03*
X56538000Y-25750000D03*
%TD*%
D22*
%TO.C,D4*%
X47150000Y-1125000D03*
X47150000Y-3175000D03*
%TD*%
D60*
%TO.C,R8*%
X16362500Y-33800000D03*
X14537500Y-33800000D03*
%TD*%
D55*
%TO.C,C26*%
X85500000Y-7562500D03*
X85500000Y-9637500D03*
%TD*%
D53*
%TO.C,R7*%
X49650000Y-5020000D03*
X49650000Y-7020000D03*
%TD*%
D20*
%TO.C,TP11*%
X74200000Y-25200000D03*
%TD*%
D61*
%TO.C,IC1*%
X14750000Y-26200000D03*
X14750000Y-25250000D03*
X14750000Y-24300000D03*
X12250000Y-24300000D03*
X12250000Y-25250000D03*
X12250000Y-26200000D03*
%TD*%
D62*
%TO.C,Q2*%
X17950000Y-31850000D03*
X17950000Y-33750000D03*
X20150000Y-32800000D03*
%TD*%
D63*
%TO.C,IC4*%
X29850000Y-14350000D03*
X29850000Y-13850000D03*
X29850000Y-13350000D03*
X29850000Y-12850000D03*
D64*
X29150000Y-12150000D03*
X28650000Y-12150000D03*
X28150000Y-12150000D03*
X27650000Y-12150000D03*
D63*
X26950000Y-12850000D03*
X26950000Y-13350000D03*
X26950000Y-13850000D03*
X26950000Y-14350000D03*
D64*
X27650000Y-15050000D03*
X28150000Y-15050000D03*
X28650000Y-15050000D03*
X29150000Y-15050000D03*
D65*
X28400000Y-13600000D03*
%TD*%
D38*
%TO.C,R10*%
X25425000Y-16625000D03*
X25425000Y-18450000D03*
%TD*%
D20*
%TO.C,TP17*%
X22650000Y-21450000D03*
%TD*%
D66*
%TO.C,D8*%
X89650000Y-25487500D03*
X91550000Y-25487500D03*
X90600000Y-23612500D03*
%TD*%
D38*
%TO.C,R5*%
X16450000Y-9387500D03*
X16450000Y-11212500D03*
%TD*%
D53*
%TO.C,R25*%
X87830000Y-23610000D03*
X87830000Y-25610000D03*
%TD*%
D22*
%TO.C,D6*%
X54500000Y-1175000D03*
X54500000Y-3225000D03*
%TD*%
D37*
%TO.C,R16*%
X43330000Y-11815000D03*
X43330000Y-9815000D03*
%TD*%
D67*
%TO.C,R6*%
X14850000Y-11212500D03*
X14850000Y-9387500D03*
%TD*%
D38*
%TO.C,R4*%
X20450000Y-8662500D03*
X20450000Y-10487500D03*
%TD*%
D68*
%TO.C,IC8*%
X63415000Y-40885000D03*
X63415000Y-39935000D03*
X63415000Y-38985000D03*
X60915000Y-38985000D03*
X60915000Y-39935000D03*
X60915000Y-40885000D03*
%TD*%
D26*
%TO.C,C20*%
X59400000Y-6787500D03*
X59400000Y-4712500D03*
%TD*%
D23*
%TO.C,R2*%
X8467500Y-23750000D03*
X10292500Y-23750000D03*
%TD*%
D43*
%TO.C,C32*%
X65635000Y-41147500D03*
X65635000Y-39422500D03*
%TD*%
D54*
%TO.C,R21*%
X79490000Y-48290000D03*
X81490000Y-48290000D03*
%TD*%
D20*
%TO.C,TP16*%
X18525000Y-40525000D03*
%TD*%
%TO.C,TP9*%
X76680000Y-3890000D03*
%TD*%
%TO.C,TP3*%
X73300000Y-3850000D03*
%TD*%
D21*
%TO.C,C13*%
X46137500Y-25675000D03*
X44412500Y-25675000D03*
%TD*%
D69*
%TO.C,U10*%
X70130000Y-20325000D03*
X68860000Y-20325000D03*
X67590000Y-20325000D03*
X66320000Y-20325000D03*
X66320000Y-25725000D03*
X67590000Y-25725000D03*
X68860000Y-25725000D03*
X70130000Y-25725000D03*
%TD*%
D40*
%TO.C,H3*%
X3000000Y-47000000D03*
D39*
X3000000Y-47000000D03*
%TD*%
D33*
%TO.C,C2*%
X58580000Y-24087500D03*
X58580000Y-25812500D03*
%TD*%
D34*
%TO.C,U6*%
X26830000Y-3600000D03*
D35*
X33130000Y-5880000D03*
D34*
X26830000Y-8160000D03*
%TD*%
D60*
%TO.C,R15*%
X16362500Y-37400000D03*
X14537500Y-37400000D03*
%TD*%
D33*
%TO.C,C23*%
X22975000Y-14437500D03*
X22975000Y-16162500D03*
%TD*%
D53*
%TO.C,R18*%
X52100000Y-5020000D03*
X52100000Y-7020000D03*
%TD*%
D22*
%TO.C,D3*%
X44600000Y-1125000D03*
X44600000Y-3175000D03*
%TD*%
D38*
%TO.C,R3*%
X18725000Y-8637500D03*
X18725000Y-10462500D03*
%TD*%
D53*
%TO.C,R12*%
X42150000Y-4925000D03*
X42150000Y-6925000D03*
%TD*%
D62*
%TO.C,Q1*%
X17950000Y-35450000D03*
X17950000Y-37350000D03*
X20150000Y-36400000D03*
%TD*%
D43*
%TO.C,C17*%
X25420000Y-14952500D03*
X25420000Y-13227500D03*
%TD*%
D20*
%TO.C,TP4*%
X95900000Y-30300000D03*
%TD*%
D21*
%TO.C,C18*%
X48052500Y-23900000D03*
X46327500Y-23900000D03*
%TD*%
D33*
%TO.C,C1*%
X21450000Y-14437500D03*
X21450000Y-16162500D03*
%TD*%
D20*
%TO.C,TP14*%
X69750000Y-36725000D03*
%TD*%
D25*
%TO.C,K1*%
X83700000Y-2230000D03*
X83700000Y-4770000D03*
X92300000Y-4770000D03*
X92300000Y-2230000D03*
%TD*%
D26*
%TO.C,C27*%
X85490000Y-42970000D03*
X85490000Y-40895000D03*
%TD*%
D22*
%TO.C,D5*%
X52100000Y-1195000D03*
X52100000Y-3245000D03*
%TD*%
D70*
%TO.C,JP1*%
X6925000Y-17750000D03*
D71*
X4385000Y-17750000D03*
X1845000Y-17750000D03*
%TD*%
D72*
%TO.C,J3*%
X95762500Y-8200000D03*
X95762500Y-15800000D03*
D73*
X87962500Y-12000000D03*
%TD*%
D72*
%TO.C,J4*%
X95762500Y-34200000D03*
X95762500Y-41800000D03*
D73*
X87962500Y-38000000D03*
%TD*%
D74*
%TO.C,U5*%
X11380000Y-33000000D03*
X83600000Y-33000000D03*
D75*
X74780000Y-40870000D03*
D76*
X11380000Y-40870000D03*
D75*
X19580000Y-25130000D03*
%TD*%
D74*
%TO.C,U4*%
X11400000Y-12000000D03*
X83620000Y-12000000D03*
D75*
X74800000Y-19870000D03*
D76*
X11400000Y-19870000D03*
D75*
X19600000Y-4130000D03*
%TD*%
D77*
%TO.C,J1*%
X93607000Y-25000000D03*
X98607000Y-25000000D03*
%TD*%
M02*
