%TF.GenerationSoftware,KiCad,Pcbnew,(6.0.4)*%
%TF.CreationDate,2023-03-24T19:38:28+01:00*%
%TF.ProjectId,test,74657374-2e6b-4696-9361-645f70636258,rev?*%
%TF.SameCoordinates,Original*%
%TF.FileFunction,Soldermask,Bot*%
%TF.FilePolarity,Negative*%
%FSLAX46Y46*%
G04 Gerber Fmt 4.6, Leading zero omitted, Abs format (unit mm)*
G04 Created by KiCad (PCBNEW (6.0.4)) date 2023-03-24 19:38:28*
%MOMM*%
%LPD*%
G01*
G04 APERTURE LIST*
%ADD10C,2.000000*%
%ADD11C,1.650000*%
%ADD12C,0.750013*%
%ADD13O,2.000000X1.200000*%
%ADD14O,1.800000X1.200000*%
%ADD15C,3.100000*%
%ADD16C,5.400000*%
%ADD17R,1.700000X1.700000*%
%ADD18O,1.700000X1.700000*%
%ADD19C,2.800000*%
%ADD20C,1.550000*%
%ADD21C,1.980000*%
%ADD22C,5.325000*%
%ADD23C,3.585000*%
%ADD24C,1.950000*%
G04 APERTURE END LIST*
D10*
%TO.C,TP15*%
X62225000Y-33425000D03*
%TD*%
%TO.C,TP1*%
X11400000Y-9000000D03*
%TD*%
D11*
%TO.C,SW3*%
X16990000Y-46125000D03*
X14450000Y-46125000D03*
X11910000Y-46125000D03*
%TD*%
D10*
%TO.C,TP2*%
X38330000Y-3880000D03*
%TD*%
D12*
%TO.C,U1*%
X5015621Y-22099060D03*
X5015621Y-27898908D03*
D13*
X5515748Y-20673863D03*
X5515748Y-29324105D03*
D14*
X1315850Y-29324105D03*
X1315850Y-20673863D03*
%TD*%
D10*
%TO.C,TP10*%
X74200000Y-30570000D03*
%TD*%
%TO.C,TP5*%
X80975000Y-13400000D03*
%TD*%
D15*
%TO.C,H4*%
X97000000Y-47000000D03*
D16*
X97000000Y-47000000D03*
%TD*%
D10*
%TO.C,TP7*%
X77575000Y-13400000D03*
%TD*%
%TO.C,TP13*%
X55175000Y-46200000D03*
%TD*%
D15*
%TO.C,H1*%
X3000000Y-3000000D03*
D16*
X3000000Y-3000000D03*
%TD*%
D10*
%TO.C,TP12*%
X58650000Y-46200000D03*
%TD*%
D16*
%TO.C,H2*%
X97000000Y-3000000D03*
D15*
X97000000Y-3000000D03*
%TD*%
D10*
%TO.C,TP6*%
X80970000Y-30560000D03*
%TD*%
%TO.C,TP8*%
X77610000Y-30570000D03*
%TD*%
%TO.C,TP11*%
X74200000Y-25200000D03*
%TD*%
%TO.C,TP17*%
X22650000Y-21450000D03*
%TD*%
%TO.C,TP16*%
X18525000Y-40525000D03*
%TD*%
%TO.C,TP9*%
X76680000Y-3890000D03*
%TD*%
%TO.C,TP3*%
X73300000Y-3850000D03*
%TD*%
D16*
%TO.C,H3*%
X3000000Y-47000000D03*
D15*
X3000000Y-47000000D03*
%TD*%
D10*
%TO.C,TP4*%
X95900000Y-30300000D03*
%TD*%
%TO.C,TP14*%
X69750000Y-36725000D03*
%TD*%
D17*
%TO.C,JP1*%
X6925000Y-17750000D03*
D18*
X4385000Y-17750000D03*
X1845000Y-17750000D03*
%TD*%
D19*
%TO.C,J3*%
X95762500Y-8200000D03*
X95762500Y-15800000D03*
D20*
X87962500Y-12000000D03*
%TD*%
D19*
%TO.C,J4*%
X95762500Y-34200000D03*
X95762500Y-41800000D03*
D20*
X87962500Y-38000000D03*
%TD*%
D21*
%TO.C,U5*%
X11380000Y-33000000D03*
X83600000Y-33000000D03*
D22*
X74780000Y-40870000D03*
D23*
X11380000Y-40870000D03*
D22*
X19580000Y-25130000D03*
%TD*%
D21*
%TO.C,U4*%
X11400000Y-12000000D03*
X83620000Y-12000000D03*
D22*
X74800000Y-19870000D03*
D23*
X11400000Y-19870000D03*
D22*
X19600000Y-4130000D03*
%TD*%
D24*
%TO.C,J1*%
X93607000Y-25000000D03*
X98607000Y-25000000D03*
%TD*%
M02*
